<?xml version="1.0" encoding="utf-8"?>
<!-- Generator: Adobe Illustrator 26.0.1, SVG Export Plug-In . SVG Version: 6.00 Build 0)  -->
<svg version="1.1" id="Layer_1" xmlns="http://www.w3.org/2000/svg" xmlns:xlink="http://www.w3.org/1999/xlink" x="0px" y="0px"
	 viewBox="0 0 1052.3 655.4" style="enable-background:new 0 0 1052.3 655.4;" xml:space="preserve">
<style type="text/css">
	.st0{fill:#F0F0F0;}
	.st1{clip-path:url(#SVGID_00000080208261460494799620000005013825182262408110_);}
	.st2{fill:#DEE0DF;}
	.st3{fill:#EDEFEE;}
	.st4{fill:#E5E7E6;}
	.st5{fill:#FBFBFB;}
</style>
<rect x="1529.3" y="23.2" transform="matrix(-1 -1.224647e-16 1.224647e-16 -1 4640.9585 822.6183)" class="st0" width="1582.3" height="776.3"/>
<g>
	<g id="OBJECTS">
		<g>
			<defs>
				<polyline id="SVGID_1_" points="1529.3,799.5 3111.6,799.5 3111.6,23.2 1529.3,23.2 				"/>
			</defs>
			<clipPath id="SVGID_00000133522631561838836690000000609569518141534396_">
				<use xlink:href="#SVGID_1_"  style="overflow:visible;"/>
			</clipPath>
			<g style="clip-path:url(#SVGID_00000133522631561838836690000000609569518141534396_);">
				<path class="st2" d="M3142.3,133.1h-98.7c-3,0-5.4,2.4-5.4,5.4v69.8c0,3,2.4,5.4,5.4,5.4h98.7c3,0,5.4-2.4,5.4-5.4v-69.8
					C3147.7,135.5,3145.3,133.1,3142.3,133.1z"/>
				<path class="st2" d="M2994.5,328.6h-134c-4,0-7.3,3.3-7.3,7.3v94.7c0,4,3.3,7.3,7.3,7.3h134c4,0,7.3-3.3,7.3-7.3v-94.7
					C3001.8,331.9,2998.5,328.6,2994.5,328.6z"/>
				<path class="st2" d="M3185.1,293.2h-134c-4,0-7.3,3.3-7.3,7.3v94.7c0,4,3.3,7.3,7.3,7.3h134c4,0,7.3-3.3,7.3-7.3v-94.7
					C3192.4,296.5,3189.1,293.2,3185.1,293.2z"/>
				<path class="st3" d="M2887.2-5.8h-160.3c-13.8,0-25.1,8.3-25.1,18.5v117.9c0,10.2,11.2,18.4,25.1,18.4h160.3
					c13.8,0,25.1-8.3,25.1-18.4V12.7C2912.2,2.5,2901-5.8,2887.2-5.8z M2726.9,146.5c-11.9,0-21.7-7.2-21.7-15.9V12.7
					c0-8.8,9.7-15.9,21.7-15.9h160.3c11.9,0,21.7,7.2,21.7,15.9v117.9c0,8.8-9.7,15.9-21.7,15.9L2726.9,146.5z"/>
				<path class="st2" d="M2824.2,193.2h-102.3c-9.2,0-16.6,5.5-16.6,12.2v75.3c0,6.7,7.5,12.2,16.6,12.2h102.3
					c9.2,0,16.6-5.5,16.6-12.2v-75.3C2840.8,198.6,2833.4,193.2,2824.2,193.2z M2721.9,290.3c-7.3,0-13.2-4.4-13.2-9.7v-75.3
					c0-5.4,5.9-9.7,13.2-9.7h102.3c7.3,0,13.2,4.4,13.2,9.7v75.3c0,5.4-5.9,9.7-13.2,9.7H2721.9z"/>
				<path class="st2" d="M3028.9,415.6h-102.3c-9.2,0-16.6,5.5-16.6,12.2v75.3c0,6.7,7.4,12.2,16.6,12.2h102.3
					c9.2,0,16.6-5.5,16.6-12.2v-75.2C3045.5,421.1,3038.1,415.6,3028.9,415.6z M2926.7,512.8c-7.3,0-13.2-4.4-13.2-9.7v-75.2
					c0-5.4,5.9-9.7,13.2-9.7h102.3c7.3,0,13.2,4.4,13.2,9.7v75.3c0,5.4-5.9,9.7-13.2,9.7L2926.7,512.8z"/>
				<path class="st2" d="M3065.8-3.7h-102.3c-9.2,0-16.6,5.5-16.6,12.2v75.3c0,6.7,7.4,12.2,16.6,12.2h102.3
					c9.2,0,16.6-5.5,16.6-12.2V8.5C3082.4,1.8,3074.9-3.7,3065.8-3.7z M2963.5,93.5c-7.3,0-13.2-4.4-13.2-9.7V8.5
					c0-5.4,5.9-9.7,13.2-9.7h102.3c7.3,0,13.2,4.4,13.2,9.7v75.3c0,5.4-5.9,9.7-13.2,9.7L2963.5,93.5z"/>
				<path class="st2" d="M2524.4,11.3h-26.9c-3.1,0-5.6,1.8-5.6,4.1v19.8c0,2.3,2.5,4.1,5.6,4.1h26.9c3.1,0,5.6-1.8,5.6-4.1V15.4
					C2530,13.1,2527.5,11.3,2524.4,11.3z M2497.5,36.8c-1.2,0-2.2-0.7-2.2-1.6V15.4c0-0.9,1-1.6,2.2-1.6h26.9c1.2,0,2.2,0.7,2.2,1.6
					v19.8c0,0.9-1,1.6-2.2,1.6H2497.5z"/>
				<path class="st2" d="M2472.2,28.7H2441c-0.9,0-1.7,0.8-1.7,1.7v22.1c0,0.9,0.8,1.7,1.7,1.7h31.3c0.9,0,1.7-0.8,1.7-1.7V30.4
					C2473.9,29.5,2473.2,28.7,2472.2,28.7z"/>
				<path class="st3" d="M2886.8,293.9h-31.3c-0.9,0-1.7,0.8-1.7,1.7v22.1c0,0.9,0.8,1.7,1.7,1.7h31.3c0.9,0,1.7-0.8,1.7-1.7v-22.1
					C2888.5,294.7,2887.7,293.9,2886.8,293.9z"/>
				<path class="st3" d="M2756.1,380.5h-31.3c-0.9,0-1.7,0.8-1.7,1.7v22.1c0,0.9,0.8,1.7,1.7,1.7h31.3c0.9,0,1.7-0.8,1.7-1.7v-22.1
					C2757.8,381.2,2757,380.5,2756.1,380.5z"/>
				<path class="st2" d="M2833.2,110.2H2802c-0.9,0-1.7,0.8-1.7,1.7V134c0,0.9,0.8,1.7,1.7,1.7h31.3c0.9,0,1.7-0.8,1.7-1.7v-22.1
					C2834.9,110.9,2834.2,110.2,2833.2,110.2z"/>
				<path class="st2" d="M2717.5,373.4h-16c-0.5,0-0.9,0.4-0.9,0.9v11.3c0,0.5,0.4,0.9,0.9,0.9h16c0.5,0,0.9-0.4,0.9-0.9v-11.3
					C2718.4,373.8,2718,373.4,2717.5,373.4z"/>
				<path class="st2" d="M2784.6,103.9h-16c-0.5,0-0.9,0.4-0.9,0.9v11.3c0,0.5,0.4,0.9,0.9,0.9h16c0.5,0,0.9-0.4,0.9-0.9v-11.3
					C2785.4,104.3,2785.1,103.9,2784.6,103.9z"/>
				<path class="st2" d="M2689.6,23.2h-16c-0.5,0-0.9,0.4-0.9,0.9v11.3c0,0.5,0.4,0.9,0.9,0.9h16c0.5,0,0.9-0.4,0.9-0.9V24
					C2690.5,23.5,2690.1,23.2,2689.6,23.2z"/>
				<path class="st2" d="M2889.4,458.9h-16c-0.5,0-0.9,0.4-0.9,0.9v11.3c0,0.5,0.4,0.9,0.9,0.9h16c0.5,0,0.9-0.4,0.9-0.9v-11.3
					C2890.3,459.3,2889.9,458.9,2889.4,458.9z"/>
				<path class="st2" d="M2578.3,25.3h-63.9c-1.9,0-3.5,1.6-3.5,3.5v45.2c0,1.9,1.6,3.5,3.5,3.5h63.9c1.9,0,3.5-1.6,3.5-3.5V28.8
					C2581.8,26.8,2580.3,25.3,2578.3,25.3z"/>
				<path class="st2" d="M2538.3,253.3h-26.8c-3.1,0-5.6,1.8-5.6,4.1v19.8c0,2.3,2.5,4.1,5.6,4.1h26.8c3.1,0,5.6-1.8,5.6-4.1v-19.8
					C2543.9,255.2,2541.4,253.3,2538.3,253.3z M2511.4,278.9c-1.2,0-2.2-0.7-2.2-1.6v-19.8c0-0.9,1-1.6,2.2-1.6h26.9
					c1.2,0,2.2,0.7,2.2,1.6v19.8c0,0.9-1,1.6-2.2,1.6H2511.4z"/>
				<path class="st2" d="M2523.2,364.8h-31.3c-0.9,0-1.7,0.8-1.7,1.7v22.1c0,0.9,0.8,1.7,1.7,1.7h31.3c0.9,0,1.7-0.8,1.7-1.7v-22.1
					C2524.9,365.5,2524.1,364.8,2523.2,364.8z"/>
				<path class="st2" d="M2592.2,267.4h-63.9c-1.9,0-3.5,1.6-3.5,3.5V316c0,1.9,1.6,3.5,3.5,3.5h63.9c1.9,0,3.5-1.6,3.5-3.5v-45.2
					C2595.7,268.9,2594.2,267.4,2592.2,267.4z"/>
				
					<image style="overflow:visible;opacity:0.3;enable-background:new    ;" width="1516" height="1206" xlink:href="3C2D7DAF.png"  transform="matrix(0.2206 0 0 -0.2206 2727.593 235.6955)">
				</image>
				<path class="st4" d="M2780,205.7h245.1c3.8,0,6.9-2.3,6.9-5.1V20.2c0-2.8-3.1-5.1-6.9-5.1H2780c-3.8,0-6.9,2.3-6.9,5.1v180.4
					C2773.1,203.4,2776.2,205.7,2780,205.7z"/>
				<path class="st5" d="M3025.1,205.7H2780c-3.8,0-6.9-2.3-6.9-5.1V20.2c0-2.8,3.1-5.1,6.9-5.1h245.1c3.8,0,6.9,2.3,6.9,5.1v180.4
					C3032,203.4,3028.9,205.7,3025.1,205.7z M3031.1,20.2c0-2.5-2.8-4.4-6-4.4H2780c-3.3,0-6,2-6,4.4v180.4c0,2.4,2.8,4.4,6,4.4
					h245.1c3.3,0,6-2,6-4.4V20.2z"/>
				
					<image style="overflow:visible;opacity:0.2;enable-background:new    ;" width="238" height="208" xlink:href="3C2D7DAD.png"  transform="matrix(0.2206 0 0 -0.2206 2535.9285 231.9366)">
				</image>
				<path class="st4" d="M2571.7,202.8H2561c-3.8,0-6.9,2.3-6.9,5.1v7.9c0,2.8,3.1,5.1,6.9,5.1h10.7c3.8,0,6.9-2.3,6.9-5.1v-7.9
					C2578.6,205,2575.5,202.8,2571.7,202.8z"/>
				<path class="st5" d="M2571.7,220.8H2561c-3.8,0-6.9-2.3-6.9-5.1v-7.9c0-2.8,3.1-5.1,6.9-5.1h10.7c3.8,0,6.9,2.3,6.9,5.1v7.9
					C2578.6,218.5,2575.5,220.8,2571.7,220.8z M2577.7,207.9c0-2.4-2.7-4.4-6-4.4H2561c-3.3,0-6,2-6,4.4v7.9c0,2.4,2.7,4.4,6,4.4
					h10.7c3.3,0,6-2,6-4.4V207.9z"/>
				
					<image style="overflow:visible;opacity:0.2;enable-background:new    ;" width="251" height="199" xlink:href="3C2D7DB3.png"  transform="matrix(0.2206 0 0 -0.2206 2785.7219 380.4893)">
				</image>
				<path class="st3" d="M2801,377.5h30.3c3.8,0,6.9-2.3,6.9-5.1v-22.3c0-2.8-3.1-5.1-6.9-5.1H2801c-3.8,0-6.9,2.3-6.9,5.1v22.3
					C2794,375.3,2797.2,377.5,2801,377.5z"/>
				<path class="st5" d="M2801,345.1h30.3c3.8,0,6.9,2.3,6.9,5.1v22.3c0,2.8-3.1,5.1-6.9,5.1H2801c-3.8,0-6.9-2.3-6.9-5.1v-22.3
					C2794,347.3,2797.2,345.1,2801,345.1z M2794.9,372.4c0,2.4,2.7,4.4,6,4.4h30.3c3.3,0,6-2,6-4.4v-22.3c0-2.4-2.7-4.4-6-4.4H2801
					c-3.3,0-6,2-6,4.4V372.4z"/>
				
					<image style="overflow:visible;opacity:0.2;enable-background:new    ;" width="808" height="628" xlink:href="3C2D7DB5.png"  transform="matrix(0.2206 0 0 -0.2206 2567.4697 193.1166)">
				</image>
				<path class="st4" d="M2592.6,181.9h136.6c3.8,0,6.9-2.3,6.9-5.1V76.3c0-2.8-3.1-5.1-6.9-5.1h-136.6c-3.8,0-6.9,2.3-6.9,5.1
					v100.5C2585.7,179.6,2588.8,181.9,2592.6,181.9z"/>
				<path class="st5" d="M2592.6,71.2h136.6c3.8,0,6.9,2.3,6.9,5.1v100.5c0,2.8-3.1,5.1-6.9,5.1h-136.6c-3.8,0-6.9-2.3-6.9-5.1V76.3
					C2585.7,73.5,2588.8,71.2,2592.6,71.2z M2586.5,176.8c0,2.4,2.8,4.4,6,4.4h136.6c3.3,0,6-2,6-4.4V76.3c0-2.4-2.8-4.4-6-4.4
					h-136.6c-3.3,0-6,2-6,4.4V176.8z"/>
				
					<image style="overflow:visible;opacity:0.2;enable-background:new    ;" width="1093" height="837" xlink:href="3C2D7DB7.png"  transform="matrix(0.2206 0 0 -0.2206 2938.2449 361.1896)">
				</image>
				<path class="st3" d="M2963.3,350.1h199.3c3.8,0,6.9-2.3,6.9-5.1V198.3c0-2.8-3.1-5.1-6.9-5.1h-199.3c-3.8,0-6.9,2.3-6.9,5.1V345
					C2956.4,347.8,2959.5,350.1,2963.3,350.1z"/>
				<path class="st5" d="M2963.3,193.2h199.3c3.8,0,6.9,2.3,6.9,5.1V345c0,2.8-3.1,5.1-6.9,5.1h-199.3c-3.8,0-6.9-2.3-6.9-5.1V198.3
					C2956.4,195.5,2959.5,193.2,2963.3,193.2z M2957.3,345c0,2.5,2.7,4.4,6,4.4h199.3c3.3,0,6-2,6-4.4V198.3c0-2.4-2.7-4.4-6-4.4
					h-199.3c-3.3,0-6,2-6,4.4V345z"/>
				
					<image style="overflow:visible;opacity:0.2;enable-background:new    ;" width="668" height="525" xlink:href="3C2D7DB4.png"  transform="matrix(0.2206 0 0 -0.2206 2785.6116 267.007)">
				</image>
				<path class="st3" d="M2810.6,255.8h105.7c3.8,0,6.9-2.3,6.9-5.1v-77.8c0-2.8-3.1-5.1-6.9-5.1h-105.7c-3.8,0-6.9,2.3-6.9,5.1
					v77.8C2803.7,253.5,2806.8,255.8,2810.6,255.8z"/>
				<path class="st5" d="M2810.6,167.8h105.7c3.8,0,6.9,2.3,6.9,5.1v77.8c0,2.8-3.1,5.1-6.9,5.1h-105.7c-3.8,0-6.9-2.3-6.9-5.1
					v-77.8C2803.7,170.1,2806.8,167.8,2810.6,167.8z M2804.6,250.7c0,2.5,2.8,4.4,6,4.4h105.7c3.3,0,6-2,6-4.4v-77.8
					c0-2.5-2.7-4.4-6-4.4h-105.7c-3.3,0-6,2-6,4.4V250.7z"/>
				
					<image style="overflow:visible;opacity:0.2;enable-background:new    ;" width="496" height="398" xlink:href="3C2D7DBC.png"  transform="matrix(0.2206 0 0 -0.2206 3056.0283 491.3249)">
				</image>
				<path class="st3" d="M3155.7,475.1v-49.8c0-2.8-3.1-5.1-6.9-5.1H3081c-3.8,0-6.9,2.3-6.9,5.1v49.8c0,2.8,3.1,5.1,6.9,5.1h67.7
					C3152.6,480.3,3155.7,478,3155.7,475.1z"/>
				<path class="st5" d="M3081,420.2h67.7c3.8,0,6.9,2.3,6.9,5.1v49.8c0,2.8-3.1,5.1-6.9,5.1H3081c-3.8,0-6.9-2.3-6.9-5.1v-49.8
					C3074.1,422.5,3077.2,420.2,3081,420.2z M3075,475.1c0,2.5,2.7,4.4,6,4.4h67.7c3.3,0,6-2,6-4.4v-49.8c0-2.4-2.8-4.4-6-4.4H3081
					c-3.3,0-6,2-6,4.4V475.1z"/>
				
					<image style="overflow:visible;opacity:0.2;enable-background:new    ;" width="368" height="304" xlink:href="3C2D7DBD.png"  transform="matrix(0.2206 0 0 -0.2206 2231.7646 128.7107)">
				</image>
				<path class="st5" d="M2256.7,78.3h39.5c3.8,0,6.9,2.3,6.9,5.1v29.1c0,2.8-3.1,5.1-6.9,5.1h-39.5c-3.8,0-6.9-2.3-6.9-5.1V83.4
					C2249.8,80.6,2252.9,78.3,2256.7,78.3z M2250.7,112.5c0,2.5,2.7,4.4,6,4.4h39.5c3.3,0,6-2,6-4.4V83.4c0-2.5-2.7-4.4-6-4.4h-39.5
					c-3.3,0-6,2-6,4.4V112.5z"/>
				
					<image style="overflow:visible;opacity:0.2;enable-background:new    ;" width="514" height="412" xlink:href="3C2D7DBF.png"  transform="matrix(0.2206 0 0 -0.2206 3011.0325 572.0529)">
				</image>
				<path class="st3" d="M3036.1,560.9h71.7c3.8,0,6.9-2.3,6.9-5.1V503c0-2.8-3.1-5.1-6.9-5.1h-71.7c-3.8,0-6.9,2.3-6.9,5.1v52.8
					C3029.1,558.6,3032.2,560.9,3036.1,560.9z"/>
				<path class="st0" d="M3036.1,497.9h71.7c3.8,0,6.9,2.3,6.9,5.1v52.8c0,2.8-3.1,5.1-6.9,5.1h-71.7c-3.8,0-6.9-2.3-6.9-5.1V503
					C3029.1,500.2,3032.2,497.9,3036.1,497.9z M3030,555.8c0,2.4,2.8,4.4,6,4.4h71.7c3.3,0,6-2,6-4.4V503c0-2.4-2.7-4.4-6-4.4h-71.7
					c-3.3,0-6,2-6,4.4V555.8z"/>
				
					<image style="overflow:visible;opacity:0.2;enable-background:new    ;" width="237" height="208" xlink:href="B2932A5C.png"  transform="matrix(0.2206 0 0 -0.2206 2342.0488 50.409)">
				</image>
				<path class="st3" d="M2377.7,21.1H2367c-3.8,0-6.9,2.3-6.9,5.1v7.8c0,2.8,3.1,5.1,6.9,5.1h10.7c3.8,0,6.9-2.3,6.9-5.1v-7.8
					C2384.6,23.4,2381.5,21.1,2377.7,21.1z"/>
				<path class="st5" d="M2377.7,39.2H2367c-3.8,0-6.9-2.3-6.9-5.1v-7.8c0-2.8,3.1-5.1,6.9-5.1h10.7c3.8,0,6.9,2.3,6.9,5.1v7.8
					C2384.6,36.9,2381.5,39.2,2377.7,39.2z M2383.7,26.3c0-2.4-2.7-4.4-6-4.4H2367c-3.3,0-6,2-6,4.4v7.8c0,2.5,2.7,4.4,6,4.4h10.7
					c3.3,0,6-2,6-4.4V26.3z"/>
				
					<image style="overflow:visible;opacity:0.2;enable-background:new    ;" width="238" height="208" xlink:href="B2932A5B.png"  transform="matrix(0.2206 0 0 -0.2206 2841.8567 505.0002)">
				</image>
				<path class="st3" d="M2877.7,475.8H2867c-3.8,0-6.9,2.3-6.9,5.1v7.8c0,2.8,3.1,5.1,6.9,5.1h10.7c3.8,0,6.9-2.3,6.9-5.1v-7.8
					C2884.6,478.1,2881.5,475.8,2877.7,475.8z"/>
				<path class="st5" d="M2877.7,493.8H2867c-3.8,0-6.9-2.3-6.9-5.1v-7.8c0-2.8,3.1-5.1,6.9-5.1h10.7c3.8,0,6.9,2.3,6.9,5.1v7.8
					C2884.6,491.5,2881.5,493.8,2877.7,493.8z M2883.7,480.9c0-2.5-2.7-4.4-6-4.4H2867c-3.3,0-6,2-6,4.4v7.8c0,2.4,2.7,4.4,6,4.4
					h10.7c3.3,0,6-2,6-4.4V480.9z"/>
				
					<image style="overflow:visible;opacity:0.2;enable-background:new    ;" width="600" height="475" xlink:href="B2932A54.png"  transform="matrix(0.2206 0 0 -0.2206 2376.8987 78.8622)">
				</image>
				<path class="st4" d="M2499.6,62.6V-4.1c0-2.8-3.1-5.1-6.9-5.1H2402c-3.8,0-6.9,2.3-6.9,5.1v66.7c0,2.8,3.1,5.1,6.9,5.1h90.7
					C2496.5,67.7,2499.6,65.4,2499.6,62.6z"/>
				<path class="st5" d="M2492.7,67.7H2402c-3.8,0-6.9-2.3-6.9-5.1V-4.1c0-2.8,3.1-5.1,6.9-5.1h90.7c3.8,0,6.9,2.3,6.9,5.1v66.7
					C2499.6,65.4,2496.5,67.7,2492.7,67.7z M2498.7-4.1c0-2.5-2.7-4.4-6-4.4H2402c-3.3,0-6,2-6,4.4v66.7c0,2.4,2.8,4.4,6,4.4h90.7
					c3.3,0,6-2,6-4.4V-4.1z"/>
				
					<image style="overflow:visible;opacity:0.2;enable-background:new    ;" width="378" height="291" xlink:href="B2932A57.png"  transform="matrix(0.2206 0 0 -0.2206 2819.9099 102.7939)">
				</image>
				<path class="st3" d="M2893.5,46.9h-58.1c-3.8,0-6.9,2.3-6.9,5.1v42.8c0,2.8,3.1,5.1,6.9,5.1h58.1c3.8,0,6.9-2.3,6.9-5.1V52
					C2900.4,49.2,2897.3,46.9,2893.5,46.9z"/>
				<path class="st5" d="M2893.5,99.9h-58.1c-3.8,0-6.9-2.3-6.9-5.1V52c0-2.8,3.1-5.1,6.9-5.1h58.1c3.8,0,6.9,2.3,6.9,5.1v42.8
					C2900.4,97.6,2897.3,99.9,2893.5,99.9z M2899.5,52c0-2.4-2.7-4.4-6-4.4h-58.1c-3.3,0-6,2-6,4.4v42.8c0,2.5,2.8,4.4,6,4.4h58.1
					c3.3,0,6-2,6-4.4L2899.5,52z"/>
				
					<image style="overflow:visible;opacity:0.2;enable-background:new    ;" width="646" height="508" xlink:href="B2932A55.png"  transform="matrix(0.2206 0 0 -0.2206 2621.0679 333.398)">
				</image>
				<path class="st3" d="M2639.1,243v74.2c0,2.8,3.1,5.1,6.9,5.1h100.9c3.8,0,6.9-2.3,6.9-5.1V243c0-2.8-3.1-5.1-6.9-5.1H2646
					C2642.2,237.9,2639.1,240.2,2639.1,243z"/>
				<path class="st5" d="M2646,237.9h100.9c3.8,0,6.9,2.3,6.9,5.1v74.2c0,2.8-3.1,5.1-6.9,5.1H2646c-3.8,0-6.9-2.3-6.9-5.1V243
					C2639.1,240.2,2642.2,237.9,2646,237.9z M2640,317.3c0,2.4,2.8,4.4,6,4.4h100.9c3.3,0,6-2,6-4.4V243c0-2.4-2.8-4.4-6-4.4H2646
					c-3.3,0-6,2-6,4.4V317.3z"/>
				
					<image style="overflow:visible;opacity:0.2;enable-background:new    ;" width="257" height="203" xlink:href="B2932A4B.png"  transform="matrix(0.2206 0 0 -0.2206 2644.9995 127.0564)">
				</image>
				<path class="st4" d="M2660.2,124.1h31.6c3.8,0,6.9-2.3,6.9-5.1V95.8c0-2.8-3.1-5.1-6.9-5.1h-31.6c-3.8,0-6.9,2.3-6.9,5.1v23.3
					C2653.3,121.8,2656.4,124.1,2660.2,124.1z"/>
				<path class="st5" d="M2660.2,90.7h31.6c3.8,0,6.9,2.3,6.9,5.1v23.3c0,2.8-3.1,5.1-6.9,5.1h-31.6c-3.8,0-6.9-2.3-6.9-5.1V95.8
					C2653.3,93,2656.4,90.7,2660.2,90.7z M2654.2,119.1c0,2.5,2.7,4.4,6,4.4h31.6c3.3,0,6-2,6-4.4V95.8c0-2.5-2.8-4.4-6-4.4h-31.6
					c-3.3,0-6,2-6,4.4V119.1z"/>
				
					<image style="overflow:visible;opacity:0.2;enable-background:new    ;" width="410" height="335" xlink:href="B2932A4C.png"  transform="matrix(0.2206 0 0 -0.2206 2444.1721 161.3548)">
				</image>
				<path class="st3" d="M2469.3,150.2h48.7c3.8,0,6.9-2.3,6.9-5.1v-35.9c0-2.8-3.1-5.1-6.9-5.1h-48.7c-3.8,0-6.9,2.3-6.9,5.1v35.9
					C2462.3,147.9,2465.4,150.2,2469.3,150.2z"/>
				<path class="st5" d="M2469.3,104.1h48.7c3.8,0,6.9,2.3,6.9,5.1v35.9c0,2.8-3.1,5.1-6.9,5.1h-48.7c-3.8,0-6.9-2.3-6.9-5.1v-35.9
					C2462.3,106.4,2465.4,104.1,2469.3,104.1z M2463.2,145.1c0,2.4,2.8,4.4,6,4.4h48.7c3.3,0,6-2,6-4.4v-35.9c0-2.4-2.8-4.4-6-4.4
					h-48.7c-3.3,0-6,2-6,4.4V145.1z"/>
				
					<image style="overflow:visible;opacity:0.2;enable-background:new    ;" width="242" height="211" xlink:href="B2932A4F.png"  transform="matrix(0.2206 0 0 -0.2206 3056.0283 425.8161)">
				</image>
				<path class="st4" d="M3092.8,395.9H3081c-3.8,0-6.9,2.3-6.9,5.1v8.7c0,2.8,3.1,5.1,6.9,5.1h11.8c3.8,0,6.9-2.3,6.9-5.1v-8.7
					C3099.7,398.1,3096.6,395.9,3092.8,395.9z"/>
				<path class="st5" d="M3081,395.9h11.8c3.8,0,6.9,2.3,6.9,5.1v8.7c0,2.8-3.1,5.1-6.9,5.1H3081c-3.8,0-6.9-2.3-6.9-5.1v-8.7
					C3074.1,398.1,3077.2,395.9,3081,395.9z M3075,409.6c0,2.4,2.7,4.4,6,4.4h11.8c3.3,0,6-2,6-4.4V401c0-2.4-2.8-4.4-6-4.4H3081
					c-3.3,0-6,2-6,4.4V409.6z"/>
				
					<image style="overflow:visible;opacity:0.2;enable-background:new    ;" width="758" height="591" xlink:href="B2932A4D.png"  transform="matrix(0.2206 0 0 -0.2206 2873.8389 481.6199)">
				</image>
				<path class="st3" d="M2899,470.5h125.4c3.8,0,6.9-2.3,6.9-5.1v-92.3c0-2.8-3.1-5.1-6.9-5.1H2899c-3.8,0-6.9,2.3-6.9,5.1v92.3
					C2892,468.2,2895.1,470.5,2899,470.5z"/>
				<path class="st5" d="M2899,368h125.4c3.8,0,6.9,2.3,6.9,5.1v92.3c0,2.8-3.1,5.1-6.9,5.1H2899c-3.8,0-6.9-2.3-6.9-5.1v-92.3
					C2892,370.3,2895.1,368,2899,368z M2892.9,465.4c0,2.4,2.7,4.4,6,4.4h125.4c3.3,0,6-2,6-4.4v-92.3c0-2.4-2.7-4.4-6-4.4H2899
					c-3.3,0-6,2-6,4.4V465.4z"/>
				
					<image style="overflow:visible;opacity:0.2;enable-background:new    ;" width="219" height="174" xlink:href="B2932A4A.png"  transform="matrix(0.2206 0 0 -0.2206 2612.1348 63.9739)">
				</image>
				<path class="st4" d="M2657.6,56.1v-17c0-2.8-3.1-5.1-6.9-5.1h-23.1c-3.8,0-6.9,2.3-6.9,5.1v17c0,2.8,3.1,5.1,6.9,5.1h23.1
					C2654.5,61.2,2657.6,58.9,2657.6,56.1z"/>
				<path class="st5" d="M2627.5,34h23.1c3.8,0,6.9,2.3,6.9,5.1v17c0,2.8-3.1,5.1-6.9,5.1h-23.1c-3.8,0-6.9-2.3-6.9-5.1v-17
					C2620.6,36.3,2623.8,34,2627.5,34z M2621.5,56.1c0,2.5,2.7,4.4,6,4.4h23.1c3.3,0,6-2,6-4.4V39.1c0-2.5-2.8-4.4-6-4.4h-23.1
					c-3.3,0-6,2-6,4.4V56.1z"/>
				
					<image style="overflow:visible;opacity:0.2;enable-background:new    ;" width="219" height="174" xlink:href="B2932A6F.png"  transform="matrix(0.2206 0 0 -0.2206 2225.2581 44.3433)">
				</image>
				<path class="st3" d="M2270.6,36.4v-17c0-2.8-3.1-5.1-6.9-5.1h-23.1c-3.8,0-6.9,2.3-6.9,5.1v17c0,2.8,3.1,5.1,6.9,5.1h23.1
					C2267.5,41.4,2270.6,39.1,2270.6,36.4z"/>
				<path class="st5" d="M2240.6,14.2h23.1c3.8,0,6.9,2.3,6.9,5.1v17c0,2.8-3.1,5.1-6.9,5.1h-23.1c-3.8,0-6.9-2.3-6.9-5.1v-17
					C2233.7,16.5,2236.8,14.2,2240.6,14.2z M2234.6,36.4c0,2.5,2.7,4.4,6,4.4h23.1c3.3,0,6-2,6-4.4v-17c0-2.5-2.7-4.4-6-4.4h-23.1
					c-3.3,0-6,2-6,4.4V36.4z"/>
				
					<image style="overflow:visible;opacity:0.2;enable-background:new    ;" width="757" height="591" xlink:href="B2932A69.png"  transform="matrix(0.2206 0 0 -0.2206 2986.77 161.1342)">
				</image>
				<path class="st3" d="M3011.8,152.8h125.4c3.8,0,6.9-2.3,6.9-5.1V55.4c0-2.8-3.1-5.1-6.9-5.1h-125.4c-3.8,0-6.9,2.3-6.9,5.1v92.3
					C3004.8,150.5,3007.9,152.8,3011.8,152.8z"/>
				<path class="st5" d="M3011.8,50.3h125.4c3.8,0,6.9,2.3,6.9,5.1v92.3c0,2.8-3.1,5.1-6.9,5.1h-125.4c-3.8,0-6.9-2.3-6.9-5.1V55.4
					C3004.8,52.6,3007.9,50.3,3011.8,50.3z M3005.7,147.7c0,2.5,2.7,4.4,6,4.4h125.4c3.3,0,6-2,6-4.4V55.4c0-2.4-2.8-4.4-6-4.4
					h-125.4c-3.3,0-6,2-6,4.4V147.7z"/>
				
					<image style="overflow:visible;opacity:0.2;enable-background:new    ;" width="452" height="366" xlink:href="B2932A6B.png"  transform="matrix(0.2206 0 0 -0.2206 3032.8687 134.666)">
				</image>
				<path class="st4" d="M3116,73.4h-58.1c-3.8,0-6.9,2.3-6.9,5.1v42.8c0,2.8,3.1,5.1,6.9,5.1h58.1c3.8,0,6.9-2.3,6.9-5.1V78.5
					C3122.9,75.7,3119.8,73.4,3116,73.4z"/>
				<path class="st5" d="M3116,126.4h-58.1c-3.8,0-6.9-2.3-6.9-5.1V78.5c0-2.8,3.1-5.1,6.9-5.1h58.1c3.8,0,6.9,2.3,6.9,5.1v42.8
					C3122.9,124.1,3119.8,126.4,3116,126.4z M3122,78.5c0-2.4-2.8-4.4-6-4.4h-58.1c-3.3,0-6,2-6,4.4v42.8c0,2.5,2.7,4.4,6,4.4h58.1
					c3.3,0,6-2,6-4.4V78.5z"/>
			</g>
		</g>
	</g>
</g>
</svg>
