<svg id="Layer_1" data-name="Layer 1" xmlns="http://www.w3.org/2000/svg" viewBox="0 0 200.98 200.98"><defs><style>.cls-1{fill:#71c5a7;opacity:0.25;}.cls-2{fill:#474e56;}.cls-3{fill:#565c64;}.cls-4{fill:#444b54;}.cls-5{fill:#217c84;}.cls-6{fill:#edd4bd;}.cls-7{fill:#454c55;}.cls-8{fill:#9cb7d1;}.cls-9{fill:#555c64;}.cls-10{fill:#fefefc;}.cls-11{fill:#f8e59b;}</style></defs><circle class="cls-1" cx="100.49" cy="100.49" r="100.49"/><path class="cls-2" d="M13.83-6.09c.8-3.11-1.17-6.74,1.78-9.44h.84c1.13,1.11,2,2.37,1.62,4-.82,3.33,1.38,3.88,3.81,4.44,1.29.3,2.31.78,2.53-1.23a1.74,1.74,0,0,1,2.18-1.44c1.4.23,1.7,1.27,1.69,2.47,0,1.8-.09,3.61-.13,5.41C24.88.42,15.4-2.39,13.83-6.09Z" transform="translate(92.49 92.1)"/><path class="cls-3" d="M5.45-15.53c.92,1.07,1.91,2.13.62,3.56a1.58,1.58,0,0,1-2.21.35c-1.83-1.24-.78-2.58-.1-3.91Z" transform="translate(92.49 92.1)"/><path class="cls-4" d="M22.51,51.35a3.49,3.49,0,0,1,2.33-2.72c4.31-1.69,8.53-3.61,12.86-5.25,2.85-1.09,5.74-1.08,7.14,2.25,1.34,3.16-.64,5-3.24,6.34C33,56.36,24.31,60.71,15.7,65.14a15.16,15.16,0,0,1-11.9,1c-9.5-3.19-18.94-5.6-29.08-3.42-2.16.47-5.49.3-3.07-3.75,1.75-1.61,4-1.21,6-1.3,2.39-.09,3.66-1.15,3.64-3.6,0-.28,0-.56,0-.84,0-12.22,1-10.72-9.95-10.81a12.35,12.35,0,0,1-5.72-1.11c-2.63-1.88-2-3.45.83-3.63,5.2-.31,11-1.55,15.49.28,5.71,2.34,11.58,1.15,17.07,3,1.33.46,3,.58,3.92,1.45,3.35,3,7.3,3.14,11.41,2.93s6.65,1.74,7.26,5.94c.05,3.56-1.54,5.59-5.31,6a85.55,85.55,0,0,1-13.49.09C1,57.37-.61,56.64-.61,54.52S1,51.61,2.73,51.33c3.57-.57,7.19-.06,10.81-.46A16.61,16.61,0,0,1,1.33,47.42c-1.79-1.38-4.19-1.55-6.4-2-7.6-1.46-8.34-.39-7.65,8.17.16,2,1.7,2.83,3.39,3.3C-4.86,58.18-.47,59.7,4,61a14.59,14.59,0,0,0,11-1.25C22.65,55.9,30.24,52,38,48.47c-3.65,1.43-7.07,3.4-10.8,4.66C25.22,53.81,23.29,54,22.51,51.35Z" transform="translate(92.49 92.1)"/><path class="cls-5" d="M13.83-6.09c.43.92,1,1.85,2.05,2a24.07,24.07,0,0,1,9.56,3c.95.55,1.89-.08,2.71-.67C29.21-.32,30,1.42,31.73,2.4c3.19,7.46,1,17.77-4.73,22.52a17.07,17.07,0,0,1-20.49.88c-7.81-5.24-9.64-15.94-4-23.95A32.09,32.09,0,0,1,7.09-3.66Z" transform="translate(92.49 92.1)"/><path class="cls-6" d="M22.51,51.35c1.43,1.92,3.08,1.3,4.86.54,4.21-1.8,8.47-3.49,12.7-5.22l.47.91c-1.14.73-2.24,1.57-3.44,2.19-7.26,3.74-14.6,7.32-21.79,11.17A15.26,15.26,0,0,1,3.08,62c-4.57-1.4-9.1-3-13.71-4.22-2.28-.63-3.41-1.66-3.09-4.11a27.19,27.19,0,0,0,0-3.38c0-6.82,0-6.89,6.72-6.23,4.07.41,8.17,1,11.24,4.14a4.54,4.54,0,0,0,3.49,1.21c1.83,0,3.67-.1,5.49,0,1.38.12,3.71-.79,3.81,1.35s-2.25,1.51-3.63,1.56c-3,.12-5.92,0-8.88.06-1.73,0-4.37-.61-4.41,1.91-.06,3,2.79,2,4.58,2.1,3.24.12,6.48,0,9.72,0,3.67.07,6.27-1.29,7.21-5.07Z" transform="translate(92.49 92.1)"/><path class="cls-7" d="M7.09-3.66C7.18-1.82,6.24-.6,5,.68a15.62,15.62,0,0,0-2.64,19,15.93,15.93,0,0,0,17.29,7.64A15.44,15.44,0,0,0,31.75,12.09c.07-3.23,0-6.46,0-9.69C32.44.51,30.71-3.11,34-3S35.8.51,35.86,2.47c.14,4.35.36,8.8-.35,13.05-1.44,8.62-8.06,14.6-16.84,16C11.25,32.74,3,28.7-1,21.88-5.23,14.65-4.62,6.2.72-.61,1.85-2,3.19-3.26,2.89-5.38c-.2-1.45,0-3.1,1.92-3.07s2,1.67,2.05,3.13C6.89-4.76,7-4.21,7.09-3.66Z" transform="translate(92.49 92.1)"/><path class="cls-8" d="M-34.34,41.36c4.34,0,8.68.12,13,0,2.65-.1,4,.69,3.7,3.53-.11,1,0,2,0,2.94-.21,3.46,1.41,7.75-.69,10.19s-6.61.47-10,1.05C-29.73,52.92-31,46.8-34.34,41.36Z" transform="translate(92.49 92.1)"/><path class="cls-9" d="M35.87-8.44c-.12,1.35-.68,2.25-2,2.3a1.86,1.86,0,0,1-2-1.74A1.88,1.88,0,0,1,33.87-10,2,2,0,0,1,35.87-8.44Z" transform="translate(92.49 92.1)"/><path class="cls-10" d="M18.2,10.62c3.38,3.09,3.56,5.65.6,8.41-2.45,2.31-6,1.3-7.11-2-.25-.74-.29-1.44.42-1.85a2.35,2.35,0,0,1,2.72.38c.74.54,1.68,1.55,2.32,0,.48-1.16-.42-1.89-1.41-2.16a6.27,6.27,0,0,1-3.49-2.2,4.11,4.11,0,0,1,.26-5.74C13.82,4.2,15.27,1.86,17.77,4c1.64,1.36,4.33,2.27,2.05,5.17C20.24,10.66,16,7.16,18.2,10.62Z" transform="translate(92.49 92.1)"/><path class="cls-11" d="M18.2,10.62l-1.56-.55c-1.05-.35-2.45-.65-1.52-2.14.66-1.06,1.64-.39,2.5.19a14.63,14.63,0,0,0,2.2,1Z" transform="translate(92.49 92.1)"/><path class="cls-4" d="M22.89-35.7c-.6,4.13-3.05,6.06-7.26,5.84S7.53-30,4.23-27a5.61,5.61,0,0,1-3.11,1.2c-10.88,1-21.43,4.88-32.57,3.59-1.1-.13-2.37.12-3-1.12s.11-2.08,1.3-2.57c3.45-1.73,7.17-.91,10.78-1.08,4.33-.21,4.78-.62,4.91-4.85,0-.41,0-.83,0-1.24-.12-2.47.66-5.16-.55-7.36-1.48-2.69-4.59-1.16-6.92-1.77a5.22,5.22,0,0,1-2.23-1.08c-1.7-2-1.09-3.66,1.4-3.64,4.1,0,8.47-1.44,12.25,1.37,1.18.87,2.2,0,3.17-.29,24.75-7.69,19.59-7.09,42.69,4.17,3.52,1.71,7,3.54,10.48,5.33,2.59,1.32,4.51,3.1,3.25,6.24-1.16,2.91-3.83,3.35-6.36,2.47-4.76-1.65-9.36-3.74-14-5.59a3.25,3.25,0,0,1-1.95-2.52c.79-2.64,2.71-2.41,4.73-1.74,3.73,1.23,7.14,3.18,10.8,4.58C31.61-36.24,24.13-40,16.64-43.78A15.76,15.76,0,0,0,4.4-45c-4,1.25-8.06,2.46-12.1,3.68-3.61,1.09-5.56,7.71-3.32,10.75a3.22,3.22,0,0,0,3,1.13A25.83,25.83,0,0,0,2.61-31.8C8.82-35,8.79-35,15.49-35.32c-3.91-.22-7.1,0-10.27-.19C3-35.67.66-36.18.67-38.82c0-2.83,2.55-2.93,4.68-3a105.9,105.9,0,0,1,11.82.1C21.2-41.3,23-39.33,22.89-35.7Z" transform="translate(92.49 92.1)"/><path class="cls-6" d="M22.89-35.7c-.87-3.5-3.26-5-6.79-5-4,0-7.91,0-11.86,0-1.54,0-3,.29-2.94,2.12.08,1.51,1.43,1.88,2.83,1.88,3.81,0,7.62,0,11.42,0,1.22,0,2.89-.23,2.82,1.61-.06,1.53-1.63,1.35-2.66,1.27A20.1,20.1,0,0,0,1.89-30.31c-3.31,2.3-7.81,2-11.93,1.88-.65,0-1.76-.21-1.87-.56-1.12-3.5-.51-7.13-.45-10.7,0-2.28,2.43-2.07,3.88-2.49,5.41-1.54,10.64-3.66,16.21-4.64a10,10,0,0,1,5.83.43A265.27,265.27,0,0,1,41.86-31.7c-4.75-.57-8.88-2.87-13.22-4.53-1.8-.69-3.44-1.36-4.88.53Z" transform="translate(92.49 92.1)"/><path class="cls-8" d="M-27.12-43.24l1.68.09c9,.21,9,.21,9,9.32,0,8,0,8-8.31,8h-8.39C-29.8-31.22-28.5-37.24-27.12-43.24Z" transform="translate(92.49 92.1)"/></svg>