<svg id="Layer_1" data-name="Layer 1" xmlns="http://www.w3.org/2000/svg" viewBox="0 0 200.98 200.98"><defs><style>.cls-1{fill:#71c5a7;opacity:0.25;}.cls-2{fill:#217c84;}</style></defs><circle class="cls-1" cx="100.49" cy="100.49" r="100.49"/><path class="cls-2" d="M-52.2,53.59a5.9,5.9,0,0,0-1,3.25,5.88,5.88,0,0,0,5.88,5.88h26.12A7.63,7.63,0,0,0-14.64,59L1.73,31.75A49.55,49.55,0,0,1-27.75,17Zm120.36,0L43.74,17A49.55,49.55,0,0,1,14.25,31.75L30.62,59a7.67,7.67,0,0,0,6.55,3.7H63.29a5.88,5.88,0,0,0,4.89-9.13ZM-34.06-17.57A42.06,42.06,0,0,0,8,24.49,42.06,42.06,0,0,0,50.05-17.57,42.06,42.06,0,0,0,8-59.62,42.05,42.05,0,0,0-34.06-17.57ZM10,5.11a2.23,2.23,0,0,1-4,0L.63-5.74A2.19,2.19,0,0,0-1-7L-13-8.7a2.25,2.25,0,0,1-1.25-3.83L-5.6-21A2.29,2.29,0,0,0-5-23L-7-34.89a2.25,2.25,0,0,1,3.25-2.37l10.7,5.64a2.25,2.25,0,0,0,2.08,0l10.71-5.64A2.24,2.24,0,0,1,23-34.89L20.92-23a2.29,2.29,0,0,0,.65,2l8.67,8.45A2.24,2.24,0,0,1,29-8.7L17-7a2.25,2.25,0,0,0-1.68,1.22Z" transform="translate(92.49 92.1)"/></svg>