<svg id="katman_1" data-name="katman 1" xmlns="http://www.w3.org/2000/svg" viewBox="0 0 511.35 73.2"><defs><style>.cls-1{fill:#b0b2b2;}.cls-1,.cls-2,.cls-3{fill-rule:evenodd;}.cls-2{fill:#fff;}</style></defs><g id="Page-1"><g id="Group-39"><path id="Fill-1" class="cls-1" d="M505.9,57.81l-3.1-17.6a13.08,13.08,0,0,0-2.7-5.4,10.66,10.66,0,0,0-3.5-2.9,11.64,11.64,0,0,0-4.1-1.3c-.7-.1-3.3-.4-3.3-.4a122.35,122.35,0,0,0-20.4.7h0c-4.6.5-9.5,1.1-14.3,2-13.4,2.4-25.9,5.9-34.3,9.7l-1,.5c-3.7,1.7-7.9,4.7-8,10.4,4.9,1.4,8.7,4.2,10.8,7.9a4.57,4.57,0,0,1,.5,1.5,2,2,0,0,1,.1.7,4.42,4.42,0,0,1-8.4,1.9,7.52,7.52,0,0,0-1.5-1.6l1.8,10c.1.4,1.9,9.5,11.9,9.9,9.4.8,22.5-.1,36.1-2.5,13.3-2.3,25.8-5.9,34.3-9.7,4.9-1.8,10.5-5.7,9.1-13.8" transform="translate(-4.4 -11.41)"/><path id="Fill-3" class="cls-2" d="M426.2,72.61c-.2,0-.4-.1-.4-.3L425,68c0-.2.1-.4.3-.4l4.3-.8c.2,0,.4.1.4.3l.8,4.3c0,.2-.1.4-.3.4Z" transform="translate(-4.4 -11.41)"/><path id="Fill-5" class="cls-2" d="M442.8,70c-5.7,1-8.3-2-9.4-8.1s.3-10.1,6-11.1a13.9,13.9,0,0,1,3.9-.2c.1,0,.2,0,.2.2l.4,3a.22.22,0,0,1-.2.2,13.78,13.78,0,0,0-2.8.1c-2.9.5-3.5,2.1-2.6,6.9.8,4.5,1.9,5.7,4.8,5.2a16,16,0,0,0,2.6-.8.3.3,0,0,1,.4,0l.7,3c.1.2,0,.2-.1.3a12.75,12.75,0,0,1-3.9,1.3" transform="translate(-4.4 -11.41)"/><path id="Fill-7" class="cls-2" d="M454.3,63.61c.5.4,1.2.6,2.7.3s2.1-.6,2.5-1.2c.6-.9.5-3.2.1-5.8s-1.1-4.4-2-5.1c-.5-.4-1.1-.6-2.7-.3s-2.1.6-2.5,1.2c-.5,1-.6,2.9-.1,5.5s1.1,4.7,2,5.4m8.9.9c-1.1,1.6-2.8,2.4-5.7,2.9s-4.7.3-6.2-.8-3.1-4-3.7-7.5-.2-6.4,1-8.1c1-1.6,2.8-2.4,5.6-2.9s4.8-.3,6.3.8,2.9,3.8,3.6,7.3.2,6.6-.9,8.3" transform="translate(-4.4 -11.41)"/><path id="Fill-9" class="cls-2" d="M485,61.81c0,.2-.1.4-.3.4l-3.9.7c-.2,0-.4-.1-.4-.3l-2.3-13c-.3-1.6-1.5-1.9-3.3-1.6a13.8,13.8,0,0,0-2.6.7c-.2.1-.3.2-.3.4l2.6,14.5c0,.2-.1.4-.3.4l-3.8.7c-.2,0-.4-.1-.4-.3l-3.1-17.5c0-.2.1-.3.3-.4a40.18,40.18,0,0,1,7.2-2c1.9-.3,4-.5,5.2,0a.6.6,0,0,0,.4-.1,18,18,0,0,1,5.4-1.8c5.3-.9,7.5,1.1,8.2,5.1l2.2,12.2c0,.2-.1.4-.3.4l-3.9.7c-.2,0-.4-.1-.4-.3l-2.1-11.9c-.4-2.3-1.6-3-3.8-2.6a9.15,9.15,0,0,0-2.5.7c-.2.1-.4.2-.3.4Z" transform="translate(-4.4 -11.41)"/><path id="Fill-11" class="cls-3" d="M383.5,60.41a24.68,24.68,0,0,1,7.9-5.2c-.5-.4-1.1-.7-1.7-1.1-7.7-4.7-9.3-5.8-9.3-9.2,0-4.2,2-4.6,8.2-4.6a67.79,67.79,0,0,1,9.9,1,.55.55,0,0,0,.7-.4l.6-8.6c0-.5-.2-.6-.5-.7a76,76,0,0,0-13-1.1c-12.6,0-18.4,3.7-18.4,14.6,0,6.5,2.7,9.2,10.6,14.4,1.4,1,2.6,1.8,3.6,2.5a6.68,6.68,0,0,1,1.4-1.6" transform="translate(-4.4 -11.41)"/><path id="Fill-13" class="cls-1" d="M403.1,79.81a12.41,12.41,0,0,1-2.7.3,13.54,13.54,0,0,1-4.3,4,25.28,25.28,0,0,0,2.8.1,28.86,28.86,0,0,0,5-.4,26.86,26.86,0,0,0,10.3-4.1,21.81,21.81,0,0,1-1.9-3.7,24.51,24.51,0,0,1-9.2,3.8" transform="translate(-4.4 -11.41)"/><path id="Fill-15" class="cls-1" d="M419.9,62.71h0c-2.6-4.7-8.8-7.7-16.3-7.7a28.86,28.86,0,0,0-5,.4c-10.8,1.9-18.4,9.2-17.6,16.9,2.9,0,3.8-.2,4.1-.8-.2-5.2,6-10.6,14.2-12a20.87,20.87,0,0,1,4.3-.4c5.8,0,10.7,2.2,12.6,5.5a2,2,0,0,0,1.9,1.2,2.11,2.11,0,0,0,2.1-2.1c-.1-.3-.2-.7-.3-1" transform="translate(-4.4 -11.41)"/><g id="Group-19"><path id="Fill-17" class="cls-3" d="M43.8,72.7c-.1-.6-.8-.6-1.3-.5a43.1,43.1,0,0,1-10.3,1.3c-11.3,0-13.8-5.9-13.8-22.8,0-18.1,2.5-24,13.8-24a38.68,38.68,0,0,1,10.5,1.4.74.74,0,0,0,1-.5l.5-9.3c0-.6-.3-.7-.7-.9-2.7-1-7.6-1.7-13.3-1.7C11.1,15.7,4.4,29.2,4.4,50.6c0,21.8,6.7,33.9,25.8,33.9a47,47,0,0,0,13.9-1.9c.3-.1.5-.6.4-1.2Z" transform="translate(-4.4 -11.41)"/></g><path id="Fill-20" class="cls-3" d="M75.7,75c0,.3-.1.5-.7.7a33.6,33.6,0,0,1-6.2.5c-7.8,0-9.5-.8-9.5-7.8s2.2-8.3,9.2-8.3h6.6a.53.53,0,0,1,.6.6Zm-7-45.1c-6.6,0-13.5.8-17.2,1.9-.6.2-.7.8-.6,1.4l.7,7.6c.1.6.9.6,1.5.5a92.66,92.66,0,0,1,12.2-1c7.7,0,10.4,1.4,10.4,7.3v3.9c0,.4-.2.5-.6.6l-11.6,1.5c-14.4,1.8-16.7,6.3-16.7,16.3,0,11.3,5.3,14.6,23,14.6,6.8,0,13.8-.7,17.2-1.8,1.1-.4,1.3-.9,1.3-1.5V45.51C88.3,34.11,80.9,29.91,68.7,29.91Z" transform="translate(-4.4 -11.41)"/><path id="Fill-22" class="cls-3" d="M121.5,30.31a63.72,63.72,0,0,0-8-.4A93.24,93.24,0,0,0,95,32c-.6.1-1,.4-1,1v49.5a.94.94,0,0,0,1,1h10.8a.89.89,0,0,0,1.1-1V41.91a1,1,0,0,1,.7-1.1,18.7,18.7,0,0,1,5.7-.8,45.92,45.92,0,0,1,7.6.6c.5.1.7-.2.7-.5l.5-9c0-.5-.1-.7-.6-.8" transform="translate(-4.4 -11.41)"/><path id="Fill-24" class="cls-3" d="M144.2,49.41h-4.8c-.5-.1-.7-.3-.7-.8V26.81c0-.4.2-.6,1.3-.6h4.2c8.8,0,11.2,2.3,11.2,11.1S152.6,49.41,144.2,49.41Zm16.8,9.1c-1.1-1.8-1.6-2.8-1.6-3.8,0-.4.3-.8,1-1.4,6.8-3.9,8.6-9.2,8.6-18.1,0-13.5-7.6-18.5-22.5-18.5H126.6a.94.94,0,0,0-1,1v64.8a.94.94,0,0,0,1,1h11.1a.94.94,0,0,0,1-1V58.91c0-.5.3-.7.8-.7h6.9c.6.1.8.4,1.6,1.9l11.4,22.5c.3.7.6.9,1.2.9h13.1c.8,0,.8-.5.5-1Z" transform="translate(-4.4 -11.41)"/><path id="Fill-26" class="cls-3" d="M204.9,53.21H186.7c-.4,0-.6-.3-.6-.7,0-7.7,1.8-13.6,10.5-13.6,7.5,0,9.3,3.9,9.3,11.4.1,2.7-.2,2.9-1,2.9M196.8,30c-16,0-23.5,9.8-23.5,27.4,0,16.6,6.1,27.1,25.2,27.1,6.9,0,13-1.1,16.8-2.9a.93.93,0,0,0,.7-.9l-.7-7.7c-.2-.4-.6-.5-1.1-.5a49.39,49.39,0,0,1-13.8,2.3c-9.1,0-14.1-2.6-14.1-13.2,0-.4.1-.6.6-.6h27.7c2.4,0,2.7-1.7,2.7-8.4,0-14.1-4.7-22.6-20.5-22.6" transform="translate(-4.4 -11.41)"/><path id="Fill-28" class="cls-3" d="M245,30a140.61,140.61,0,0,0-20.3,2.1c-.6.1-1,.4-1,1v49.5a.94.94,0,0,0,1,1h10.9a.94.94,0,0,0,1-1v-41c0-.6.3-.8,1-1a31.8,31.8,0,0,1,7-.6c7.9,0,9.5,2,9.5,9.4v33.2a.94.94,0,0,0,1,1H266a.94.94,0,0,0,1-1V48.81c-.1-14.4-4.7-18.8-22-18.8" transform="translate(-4.4 -11.41)"/><path id="Fill-30" class="cls-3" d="M299.1,31h-8.3a.53.53,0,0,1-.6-.6V18.11a.94.94,0,0,0-1-1H278.3a.94.94,0,0,0-1,1v12.3a.53.53,0,0,1-.6.6H270a.94.94,0,0,0-1,1v8a.94.94,0,0,0,1,1h6.8a.53.53,0,0,1,.6.6v32.2c0,7.2,4,10.8,11.9,10.8a38.32,38.32,0,0,0,8-.9,1.41,1.41,0,0,0,1-1.3l.3-6.6a.89.89,0,0,0-1-1h-3c-3.1,0-4.2-.9-4.2-4.1V41.51a.53.53,0,0,1,.6-.6h8.3a.94.94,0,0,0,1-1v-8a1.29,1.29,0,0,0-1.2-.9" transform="translate(-4.4 -11.41)"/><path id="Fill-32" class="cls-3" d="M330.7,75.11c0,.3-.1.5-.7.7a33.6,33.6,0,0,1-6.2.5c-7.8,0-9.5-.8-9.5-7.8s2.2-8.3,9.2-8.3h6.6a.53.53,0,0,1,.6.6ZM323.8,30c-6.6,0-13.5.8-17.2,1.9-.6.2-.7.8-.6,1.4l.7,7.6c.1.6.9.6,1.5.5a92.66,92.66,0,0,1,12.2-1c7.7,0,10.4,1.4,10.4,7.3v3.9c0,.4-.2.5-.6.6l-11.6,1.5c-14.4,1.8-16.7,6.3-16.7,16.3,0,11.3,5.3,14.6,23,14.6,6.8,0,13.8-.7,17.2-1.8,1.1-.4,1.3-.9,1.3-1.5V45.71C343.3,34.11,335.9,30,323.8,30Z" transform="translate(-4.4 -11.41)"/><path id="Fill-34" class="cls-3" d="M398.7,62c-5.3,1.2-9.7,4.3-11,7.5a6.37,6.37,0,0,0-.2.7c-.2,3.8-1.6,4.5-7.9,4.5H366.2c-2.8,0-4.1-1-4.1-4.1V12.51a1,1,0,0,0-1-1.1H350.2a1,1,0,0,0-1,1.1v59.9c0,9.1,4.1,11.9,12.2,11.9H382c8.3-.1,14-1.5,16.6-6.6h0a19,19,0,0,0,1.7-8.6,10.07,10.07,0,0,0-1.6-7.1" transform="translate(-4.4 -11.41)"/><g id="Group-38"><path id="Fill-36" class="cls-1" d="M514.55,32.49h0l-1.5,3.5h-.7l-1.5-3.7h0V36h-1.2v-5.9h1.5l1.6,4.2,1.6-4.2h1.4V36h-1.2v-3.5Zm-5.6-1.3h-1.5V36h-1.3v-4.8h-1.5v-1H509Z" transform="translate(-4.4 -11.41)"/></g></g></g></svg>