<svg id="Layer_1" data-name="Layer 1" xmlns="http://www.w3.org/2000/svg" viewBox="0 0 208.65 75.96"><defs><style>.cls-1{fill:#231f20;fill-rule:evenodd;}</style></defs><polygon class="cls-1" points="147.32 33.35 139.46 56.69 156.96 56.69 164.56 33.76 166.19 51.4 149.36 75.95 167 75.95 196.31 33.35 147.32 33.35 147.32 33.35 147.32 33.35"/><polygon class="cls-1" points="110.19 56.64 127.56 56.64 135.43 33.3 118.06 33.3 110.19 56.64 110.19 56.64 110.19 56.64"/><polygon class="cls-1" points="99.11 33.3 91.23 56.64 108.6 56.64 116.47 33.3 99.11 33.3 99.11 33.3 99.11 33.3"/><polygon class="cls-1" points="64.78 56.64 82.15 56.64 90.02 33.3 72.65 33.3 64.78 56.64 64.78 56.64 64.78 56.64"/><polygon class="cls-1" points="53.69 33.3 45.82 56.64 63.19 56.64 71.06 33.3 53.69 33.3 53.69 33.3 53.69 33.3"/><polygon class="cls-1" points="34.73 33.3 26.87 56.64 44.23 56.64 52.11 33.3 34.73 33.3 34.73 33.3 34.73 33.3"/><polygon class="cls-1" points="0 56.64 17.37 56.64 25.24 33.3 7.87 33.3 0 56.64 0 56.64 0 56.64"/><path class="cls-1" d="M82.93,40.94l2.58-7.74h0c.95-3,.95-9.36-6-9.36s-10.32,5-12,6.51h0l6.79-20.08H57L46.67,40.94Z" transform="translate(-11.05 -10.23)"/><path class="cls-1" d="M109.4,41l5.7-17h0c-9.64,0-11.13,5-12.49,6.39h0l1.23-4.62H89.59l-5,15.2Z" transform="translate(-11.05 -10.23)"/><polygon class="cls-1" points="127.67 0 110.02 0 105.41 13.84 123.05 13.84 127.67 0 127.67 0 127.67 0"/><polygon class="cls-1" points="117.32 30.75 122.34 15.55 104.98 15.55 99.96 30.75 117.32 30.75 117.32 30.75 117.32 30.75"/><path class="cls-1" d="M130,40.94H153.6l5.17-15.2H148.31l.54-1.63h11.67l4.75-13.84H148.58c-9.22,0-11.4,8.55-12.07,11h0Z" transform="translate(-11.05 -10.23)"/><polygon class="cls-1" points="149.2 15.51 144.18 30.71 179.32 30.71 177.82 15.51 170.5 15.51 175.79 0.04 158.15 0.04 152.99 15.51 149.2 15.51 149.2 15.51 149.2 15.51"/><polygon class="cls-1" points="208.65 15.55 190.2 15.55 179.82 30.75 198.14 30.75 208.65 15.55 208.65 15.55 208.65 15.55"/><polygon class="cls-1" points="37.91 18.63 44.29 0.04 7.92 0.04 1.54 18.63 12.77 18.63 8.74 30.71 26.11 30.71 30.18 18.63 37.91 18.63 37.91 18.63 37.91 18.63"/><path class="cls-1" d="M156.51,81.56a2.28,2.28,0,1,0,2.27,2.28h0A2.27,2.27,0,0,0,156.51,81.56Zm0,4.28a2,2,0,1,1,2-2h0A2,2,0,0,1,156.51,85.84Z" transform="translate(-11.05 -10.23)"/><path class="cls-1" d="M157.68,83.25a.62.62,0,0,0-.29-.55,1.19,1.19,0,0,0-.62-.12h-1.11v2.54H156V84h.57l.73,1.17h.37L156.87,84h0c.46,0,.8-.2.8-.7Zm-1.23.45H156v-.9h.73c.31,0,.66,0,.66.44s-.55.46-.91.46Z" transform="translate(-11.05 -10.23)"/></svg>