<svg id="katman_1" data-name="katman 1" xmlns="http://www.w3.org/2000/svg" viewBox="0 0 669.7 213.7"><defs><style>.cls-1{fill:#fff;fill-opacity:0;}.cls-2{fill:#231f20;}.cls-3{fill:#eb80aa;}</style></defs><g id="Layer_2_4" data-name="Layer 2 4"><g id="Logos_5" data-name="Logos 5"><g id="AutoNation_6" data-name="AutoNation 6"><rect id="Spacer_7" data-name="Spacer 7" class="cls-1" width="669.7" height="213.7"/><g id="AutoNation_Logo_8" data-name="AutoNation Logo 8"><path class="cls-2" d="M209.9,344.1l-.6-10.7h-.6a26.28,26.28,0,0,1-22.6,12.5c-13.1,0-24.3-7.7-24.3-30.9V273.4h19V312c0,11.9,3,19,11.9,19.6a14.11,14.11,0,0,0,13.7-9.5,16.32,16.32,0,0,0,1.2-5.3V274.1h19.6l-.6,49.3v21.4C226.5,344.7,209.9,344.1,209.9,344.1Zm30.8-70.6V252.1l17.2-5.3v27.9h17.2v14.8H257.9v26.7c0,9.5,2.4,14.2,9.5,14.2a28,28,0,0,0,7.1-.6l.6,15.4A24.42,24.42,0,0,1,262,347a19.68,19.68,0,0,1-8.3-1.8,21.47,21.47,0,0,1-7.1-4.7,34.78,34.78,0,0,1-5.3-22C241.3,318.6,240.7,273.5,240.7,273.5Zm283.2,0V252.1l17.2-5.3v27.9h17.2v14.8H541.1v26.7c0,9.5,2.4,14.2,9.5,14.2a28,28,0,0,0,7.1-.6l.6,15.4a24.42,24.42,0,0,1-13.1,1.8,20.85,20.85,0,0,1-15.4-6.5c-4.2-4.2-5.3-11.9-5.3-22C524.5,318.6,523.9,273.5,523.9,273.5Zm45.7,71.8V273.5h17.8v72.4H569.6ZM316.1,271.1c-20.2,0-35,15.4-35,39.8s14.8,38.6,33.2,38.6c17.2,0,34.4-12.5,34.4-39.8C350,286.5,336.3,271.1,316.1,271.1Zm-.6,58.8c-8.3,0-14.8-7.7-14.8-20.2s6.5-20.8,15.4-20.8,14.8,8.3,14.8,19.6C331,323.3,323.2,329.9,315.5,329.9Zm315.3-58.8c-20.2,0-35,15.4-35,39.8s14.8,38.6,33.2,38.6c17.2,0,34.4-12.5,34.4-39.8C664,286.5,650.9,271.1,630.8,271.1Zm-.6,58.8c-8.3,0-14.8-7.7-14.8-20.2s6.5-20.8,15.4-20.8,14.8,8.3,14.8,19.6C645.6,323.3,637.9,329.9,630.2,329.9ZM512.6,344.7H494.8v-8.9h-.6a32.47,32.47,0,0,1-22.6,9.5c-15.4,0-24.3-10.1-24.3-20.8,0-17.2,17.2-26.1,45.1-26.1v-1.2c0-4.7-1.8-11.9-15.4-11.9a43.17,43.17,0,0,0-20.8,5.3L452,279.3a61.47,61.47,0,0,1,27.9-6.5c24.3,0,31.5,14.2,31.5,29.1l.6,24.9C512,326.9,512.6,344.7,512.6,344.7Zm-19-35c-13.7-.6-26.1,2.4-26.1,12.5,0,6.5,4.7,9.5,10.7,9.5a17.09,17.09,0,0,0,15.4-9.5,9.76,9.76,0,0,0,.6-4.2Zm178.7-36.2h17.8v10.7h.6a23.86,23.86,0,0,1,7.7-9.5,17.39,17.39,0,0,1,11.9-3c11.9.6,24.3,8.3,24.3,30.9v42.7H718V304.9c0-10.7-3.6-18.4-13.7-18.4a14.74,14.74,0,0,0-13.7,10.7,19.43,19.43,0,0,0-.6,5.9v42.2H672.8l-.6-51.1C672.3,294.2,672.3,273.5,672.3,273.5ZM123.2,247.3H101.8L65,343.5H85.8l8.9-22h35l9.5,21.4H160Zm-21.4,56.4,10.7-30.3,11.3,30.3Zm258.3,41.6V248.5h19.6l41.6,60.6V248.5h19v96.2h-16l-45.7-61.1v61.1H360.2v.6Z" transform="translate(-65 -192.7)"/><path class="cls-2" d="M728.7,363.1h-5.9l-11.9-.6-23.2-.6H641.4c-31.5,0-61.7.6-93.2,1.2s-61.7,1.8-92.6,3.6c-15.4.6-30.9,1.8-46.3,3s-30.9,2.4-46.3,4.2l46.3-1.2c15.4-.6,30.9-.6,46.3-.6,30.9-.6,62.3-1.2,93.2-1.2s61.7-.6,92.6,0h46.9l23.2.6,11.9.6h7.7v-8.3Z" transform="translate(-65 -192.7)"/><path class="cls-3" d="M732.3,386.3c-46.9-2.4-94.4-4.7-141.9-5.3s-94.4-2.4-141.9-3c47.5-.6,95-.6,141.9-.6s95,.6,141.9,1.8v7.1Z" transform="translate(-65 -192.7)"/></g></g></g></g></svg>