<svg id="layer" xmlns="http://www.w3.org/2000/svg" viewBox="0 0 181.21 73.12"><defs><style>.cls-1{fill:#1d1d1b;}.cls-2{fill:#ef7d00;}</style></defs><g id="Layer_2" data-name="Layer 2"><g id="Ebene_1" data-name="Ebene 1"><path class="cls-1" d="M146.49,42l-8,11.2,18.43,27V42ZM91.34,44.24V78.79l17.39-25.85-8.15-10.69a51.65,51.65,0,0,0,18.39-9l5.26,6.68,10-15.08h56.69V42H178.14V83.69H134.19L123,66.93,111.27,83.69H70V72.21C67,80.27,57.6,85.29,39,85.29c-27.57,0-28.93-9.76-29.36-20.9H31.48c.06,3.32.63,5.74,2,7.34a7.65,7.65,0,0,0,6.13,2.41c4.44,0,9.21-1.23,9.21-6.07a4.73,4.73,0,0,0-.9-2.75c-2.93-3.86-27.21-6.7-34-13.77-2.75-2.84-3.59-7.06-3.59-10.51C10.31,27.94,20.52,22,40.84,22c21.6,0,26.73,7.55,27,20h-21c-.15-3.32-1.15-6-2.6-7.16a6.49,6.49,0,0,0-4.8-1.66c-4.5.09-6.88,2-6.88,5a4.31,4.31,0,0,0,.9,2.75C36.76,44.67,60.26,47.35,67,54.54A13.43,13.43,0,0,1,70,59.19V45.3A112.38,112.38,0,0,0,91.34,44.24Z" transform="translate(-9.67 -12.17)"/><path class="cls-2" d="M70,24.82c21.77,1.61,34-4.59,38.23-12.65h22.2C123.71,31.5,102.88,43.61,69.93,42V24.82Z" transform="translate(-9.67 -12.17)"/><path class="cls-1" d="M119.94,89.3" transform="translate(-9.67 -12.17)"/></g></g></svg>