<svg id="katman_1" data-name="katman 1" xmlns="http://www.w3.org/2000/svg" viewBox="0 0 404.9 113.7"><defs><style>.cls-1{fill:#58595b;}</style></defs><path class="cls-1" d="M480.8,226.8h0a8.43,8.43,0,0,0-7.9,6.5,6.6,6.6,0,0,0-.1,1.4h0a5,5,0,0,0,5.2,5.1h0a8.62,8.62,0,0,0,7.9-6.5,6.15,6.15,0,0,0,.1-1.3,5,5,0,0,0-5.2-5.2m4.2,6.3a7.66,7.66,0,0,1-7,5.8h0c-2.7-.1-4.3-1.7-4.3-4.2a4.87,4.87,0,0,1,.1-1.2,7.55,7.55,0,0,1,6.9-5.8c2.8.1,4.4,1.7,4.4,4.2a5.74,5.74,0,0,1-.1,1.2" transform="translate(-81.1 -127.7)"/><path class="cls-1" d="M480.3,230.2h-2.8l-1.3,6.2h1.4l.4-2h1.1l.9,2h1.6l-1.1-2.2a2.66,2.66,0,0,0,1.8-1.9c.3-1.4-.5-2.1-2-2.1m.6,2.1a1.24,1.24,0,0,1-1.3.9h-1.4l.4-1.8h1.3c.7,0,1.1.3,1,.9" transform="translate(-81.1 -127.7)"/><path d="M366.9,217.5c-3.4-3.7-1.4-11.1.4-19.4l6-28.3H398l4.5-21.1H377.7l4.4-21H358.8L343.6,200c-2.3,10.8-3.2,19.2,1.5,28.3,4.4,8.5,19.2,16.5,38.1,11.4l4.2-19.5c-12.8,1.6-17.9-.1-20.5-2.7" transform="translate(-81.1 -127.7)"/><path d="M169.4,127.7l-11.1,52.2H117.4l11.1-52.2H105L81.1,239.8h23.5l8.2-38.8h41l-8.2,38.8h23.3l23.8-112.1Z" transform="translate(-81.1 -127.7)"/><path d="M303.8,156.6c-8.2,6.8-12.8,15.7-15.8,29.8l-11.3,53.3H300l9.4-44.2c2.2-10.3,3.9-16.8,7.8-20.8,5.3-5.5,13.1-5.8,22.4-5l4.5-21.1c-16.4-4.1-30.7,0-40.3,8" transform="translate(-81.1 -127.7)"/><path d="M486,148.7H413.1l-4.5,21.1h42.3L398,219.6l-4.3,20.3h72.9l4.5-21H428.6l53.1-50Z" transform="translate(-81.1 -127.7)"/><path d="M240.1,147c-7.9,0-18.7,2.4-29.3,10.8-23.9,18.7-35.7,83.6,15.6,83.6,13.3,0,28.1-4.2,38.4-12l-9.3-15.7c-7.8,6-46.9,19-42.8-12.7h61.1c0-.1,7.8-25.4-3.4-40.7-9.5-13.1-27.1-13.3-30.3-13.3m15.2,34.8H217.9c1.3-5,9.3-17.4,24-16.1,15.9,1.5,13.4,16.1,13.4,16.1" transform="translate(-81.1 -127.7)"/></svg>