<?xml version="1.0" encoding="UTF-8"?>
<svg id="Object" xmlns="http://www.w3.org/2000/svg" viewBox="0 0 924.66 563.96">
  <defs>
    <style>
      .cls-1 {
        fill: #fff;
      }

      .cls-2 {
        fill: #a32430;
      }
    </style>
  </defs>
  <path class="cls-2" d="m904.91,130.59L729.27,9.5c-12.54-8.64-28.16-11.57-42.98-8.04l-301.86,71.84-14.27,3.4L15.76,161.04c-11.01,2.62-17.81,13.67-15.19,24.68l86.27,362.48c2.62,11.01,13.67,17.81,24.68,15.19l354.42-84.35,14.27-3.4,305.37-72.67c12.58-2.99,23.3-11.18,29.5-22.53l104-190.39c11.21-20.52,5.1-46.2-14.15-59.48Z"/>
  <g>
    <path class="cls-1" d="m35.9,176.5c-2.77.66-4.47,3.43-3.82,6.2.66,2.77,3.43,4.47,6.2,3.82,2.77-.66,4.47-3.43,3.82-6.2-.66-2.77-3.43-4.47-6.2-3.82Z"/>
    <path class="cls-1" d="m51.48,172.79c-2.77.66-4.47,3.43-3.82,6.2.66,2.77,3.43,4.47,6.2,3.82,2.77-.66,4.47-3.43,3.82-6.2-.66-2.77-3.43-4.47-6.2-3.82Z"/>
    <path class="cls-1" d="m67.06,169.08c-2.77.66-4.47,3.43-3.82,6.2.66,2.77,3.43,4.47,6.2,3.82,2.77-.66,4.47-3.43,3.82-6.2-.66-2.77-3.43-4.47-6.2-3.82Z"/>
    <path class="cls-1" d="m82.64,165.38c-2.77.66-4.47,3.43-3.82,6.2.66,2.77,3.43,4.47,6.2,3.82,2.77-.66,4.47-3.43,3.82-6.2-.66-2.77-3.43-4.47-6.2-3.82Z"/>
    <path class="cls-1" d="m98.21,161.67c-2.77.66-4.47,3.43-3.82,6.2.66,2.77,3.43,4.47,6.2,3.82,2.77-.66,4.47-3.43,3.82-6.2-.66-2.77-3.43-4.47-6.2-3.82Z"/>
    <path class="cls-1" d="m113.79,157.96c-2.77.66-4.47,3.43-3.82,6.2.66,2.77,3.43,4.47,6.2,3.82,2.77-.66,4.47-3.43,3.82-6.2-.66-2.77-3.43-4.47-6.2-3.82Z"/>
    <path class="cls-1" d="m129.37,154.25c-2.77.66-4.47,3.43-3.82,6.2.66,2.77,3.43,4.47,6.2,3.82,2.77-.66,4.47-3.43,3.82-6.2s-3.43-4.47-6.2-3.82Z"/>
    <path class="cls-1" d="m144.95,150.55c-2.77.66-4.47,3.43-3.82,6.2.66,2.77,3.43,4.47,6.2,3.82,2.77-.66,4.47-3.43,3.82-6.2-.66-2.77-3.43-4.47-6.2-3.82Z"/>
    <path class="cls-1" d="m160.53,146.84c-2.77.66-4.47,3.43-3.82,6.2.66,2.77,3.43,4.47,6.2,3.82,2.77-.66,4.47-3.43,3.82-6.2-.66-2.77-3.43-4.47-6.2-3.82Z"/>
    <path class="cls-1" d="m176.11,143.13c-2.77.66-4.47,3.43-3.82,6.2.66,2.77,3.43,4.47,6.2,3.82,2.77-.66,4.47-3.43,3.82-6.2-.66-2.77-3.43-4.47-6.2-3.82Z"/>
    <path class="cls-1" d="m191.68,139.42c-2.77.66-4.47,3.43-3.82,6.2.66,2.77,3.43,4.47,6.2,3.82,2.77-.66,4.47-3.43,3.82-6.2-.66-2.77-3.43-4.47-6.2-3.82Z"/>
    <path class="cls-1" d="m207.26,135.72c-2.77.66-4.47,3.43-3.82,6.2.66,2.77,3.43,4.47,6.2,3.82,2.77-.66,4.47-3.43,3.82-6.2-.66-2.77-3.43-4.47-6.2-3.82Z"/>
    <path class="cls-1" d="m222.84,132.01c-2.77.66-4.47,3.43-3.82,6.2.66,2.77,3.43,4.47,6.2,3.82,2.77-.66,4.47-3.43,3.82-6.2-.66-2.77-3.43-4.47-6.2-3.82Z"/>
    <path class="cls-1" d="m238.42,128.3c-2.77.66-4.47,3.43-3.82,6.2.66,2.77,3.43,4.47,6.2,3.82,2.77-.66,4.47-3.43,3.82-6.2-.66-2.77-3.43-4.47-6.2-3.82Z"/>
    <path class="cls-1" d="m254,124.59c-2.77.66-4.47,3.43-3.82,6.2.66,2.77,3.43,4.47,6.2,3.82,2.77-.66,4.47-3.43,3.82-6.2s-3.43-4.47-6.2-3.82Z"/>
    <path class="cls-1" d="m269.57,120.89c-2.77.66-4.47,3.43-3.82,6.2.66,2.77,3.43,4.47,6.2,3.82,2.77-.66,4.47-3.43,3.82-6.2-.66-2.77-3.43-4.47-6.2-3.82Z"/>
    <path class="cls-1" d="m285.15,117.18c-2.77.66-4.47,3.43-3.82,6.2.66,2.77,3.43,4.47,6.2,3.82,2.77-.66,4.47-3.43,3.82-6.2-.66-2.77-3.43-4.47-6.2-3.82Z"/>
    <path class="cls-1" d="m300.73,113.47c-2.77.66-4.47,3.43-3.82,6.2.66,2.77,3.43,4.47,6.2,3.82,2.77-.66,4.47-3.43,3.82-6.2-.66-2.77-3.43-4.47-6.2-3.82Z"/>
    <path class="cls-1" d="m316.31,109.76c-2.77.66-4.47,3.43-3.82,6.2.66,2.77,3.43,4.47,6.2,3.82,2.77-.66,4.47-3.43,3.82-6.2-.66-2.77-3.43-4.47-6.2-3.82Z"/>
    <path class="cls-1" d="m331.89,106.06c-2.77.66-4.47,3.43-3.82,6.2.66,2.77,3.43,4.47,6.2,3.82,2.77-.66,4.47-3.43,3.82-6.2-.66-2.77-3.43-4.47-6.2-3.82Z"/>
    <path class="cls-1" d="m347.47,102.35c-2.77.66-4.47,3.43-3.82,6.2s3.43,4.47,6.2,3.82c2.77-.66,4.47-3.43,3.82-6.2-.66-2.77-3.43-4.47-6.2-3.82Z"/>
    <path class="cls-1" d="m363.04,98.64c-2.77.66-4.47,3.43-3.82,6.2.66,2.77,3.43,4.47,6.2,3.82,2.77-.66,4.47-3.43,3.82-6.2-.66-2.77-3.43-4.47-6.2-3.82Z"/>
    <path class="cls-1" d="m378.62,94.93c-2.77.66-4.47,3.43-3.82,6.2.66,2.77,3.43,4.47,6.2,3.82,2.77-.66,4.47-3.43,3.82-6.2-.66-2.77-3.43-4.47-6.2-3.82Z"/>
    <path class="cls-1" d="m394.2,91.23c-2.77.66-4.47,3.43-3.82,6.2.66,2.77,3.43,4.47,6.2,3.82,2.77-.66,4.47-3.43,3.82-6.2s-3.43-4.47-6.2-3.82Z"/>
    <path class="cls-1" d="m409.78,87.52c-2.77.66-4.47,3.43-3.82,6.2.66,2.77,3.43,4.47,6.2,3.82,2.77-.66,4.47-3.43,3.82-6.2-.66-2.77-3.43-4.47-6.2-3.82Z"/>
    <path class="cls-1" d="m425.36,83.81c-2.77.66-4.47,3.43-3.82,6.2.66,2.77,3.43,4.47,6.2,3.82,2.77-.66,4.47-3.43,3.82-6.2-.66-2.77-3.43-4.47-6.2-3.82Z"/>
    <path class="cls-1" d="m440.94,80.1c-2.77.66-4.47,3.43-3.82,6.2.66,2.77,3.43,4.47,6.2,3.82,2.77-.66,4.47-3.43,3.82-6.2-.66-2.77-3.43-4.47-6.2-3.82Z"/>
    <path class="cls-1" d="m456.51,76.4c-2.77.66-4.47,3.43-3.82,6.2.66,2.77,3.43,4.47,6.2,3.82,2.77-.66,4.47-3.43,3.82-6.2-.66-2.77-3.43-4.47-6.2-3.82Z"/>
    <path class="cls-1" d="m472.2,72.66c-2.77.66-4.47,3.43-3.82,6.2.66,2.77,3.43,4.47,6.2,3.82,2.77-.66,4.47-3.43,3.82-6.2-.66-2.77-3.43-4.47-6.2-3.82Z"/>
    <path class="cls-1" d="m487.89,68.93c-2.77.66-4.47,3.43-3.82,6.2.66,2.77,3.43,4.47,6.2,3.82,2.77-.66,4.47-3.43,3.82-6.2-.66-2.77-3.43-4.47-6.2-3.82Z"/>
    <path class="cls-1" d="m503.58,65.2c-2.77.66-4.47,3.43-3.82,6.2.66,2.77,3.43,4.47,6.2,3.82,2.77-.66,4.47-3.43,3.82-6.2-.66-2.77-3.43-4.47-6.2-3.82Z"/>
    <path class="cls-1" d="m519.27,61.46c-2.77.66-4.47,3.43-3.82,6.2.66,2.77,3.43,4.47,6.2,3.82,2.77-.66,4.47-3.43,3.82-6.2-.66-2.77-3.43-4.47-6.2-3.82Z"/>
    <path class="cls-1" d="m534.95,57.73c-2.77.66-4.47,3.43-3.82,6.2.66,2.77,3.43,4.47,6.2,3.82,2.77-.66,4.47-3.43,3.82-6.2-.66-2.77-3.43-4.47-6.2-3.82Z"/>
    <path class="cls-1" d="m550.64,54c-2.77.66-4.47,3.43-3.82,6.2.66,2.77,3.43,4.47,6.2,3.82,2.77-.66,4.47-3.43,3.82-6.2-.66-2.77-3.43-4.47-6.2-3.82Z"/>
    <path class="cls-1" d="m566.33,50.26c-2.77.66-4.47,3.43-3.82,6.2.66,2.77,3.43,4.47,6.2,3.82,2.77-.66,4.47-3.43,3.82-6.2-.66-2.77-3.43-4.47-6.2-3.82Z"/>
    <path class="cls-1" d="m582.02,46.53c-2.77.66-4.47,3.43-3.82,6.2s3.43,4.47,6.2,3.82c2.77-.66,4.47-3.43,3.82-6.2-.66-2.77-3.43-4.47-6.2-3.82Z"/>
    <path class="cls-1" d="m597.7,42.8c-2.77.66-4.47,3.43-3.82,6.2.66,2.77,3.43,4.47,6.2,3.82,2.77-.66,4.47-3.43,3.82-6.2-.66-2.77-3.43-4.47-6.2-3.82Z"/>
    <path class="cls-1" d="m613.39,39.06c-2.77.66-4.47,3.43-3.82,6.2.66,2.77,3.43,4.47,6.2,3.82,2.77-.66,4.47-3.43,3.82-6.2-.66-2.77-3.43-4.47-6.2-3.82Z"/>
    <path class="cls-1" d="m629.08,35.33c-2.77.66-4.47,3.43-3.82,6.2.66,2.77,3.43,4.47,6.2,3.82,2.77-.66,4.47-3.43,3.82-6.2-.66-2.77-3.43-4.47-6.2-3.82Z"/>
    <path class="cls-1" d="m644.77,31.6c-2.77.66-4.47,3.43-3.82,6.2s3.43,4.47,6.2,3.82c2.77-.66,4.47-3.43,3.82-6.2-.66-2.77-3.43-4.47-6.2-3.82Z"/>
    <path class="cls-1" d="m660.46,27.86c-2.77.66-4.47,3.43-3.82,6.2.66,2.77,3.43,4.47,6.2,3.82,2.77-.66,4.47-3.43,3.82-6.2-.66-2.77-3.43-4.47-6.2-3.82Z"/>
    <path class="cls-1" d="m676.14,24.13c-2.77.66-4.47,3.43-3.82,6.2.66,2.77,3.43,4.47,6.2,3.82,2.77-.66,4.47-3.43,3.82-6.2-.66-2.77-3.43-4.47-6.2-3.82Z"/>
    <path class="cls-1" d="m691.83,20.39c-2.77.66-4.47,3.43-3.82,6.2.66,2.77,3.43,4.47,6.2,3.82,2.77-.66,4.47-3.43,3.82-6.2-.66-2.77-3.43-4.47-6.2-3.82Z"/>
    <path class="cls-1" d="m708.52,24.21c-2.77.66-4.47,3.43-3.82,6.2.66,2.77,3.43,4.47,6.2,3.82,2.77-.66,4.47-3.43,3.82-6.2-.66-2.77-3.43-4.47-6.2-3.82Z"/>
    <path class="cls-1" d="m722.65,33.48c-2.79.55-4.61,3.25-4.06,6.04.55,2.79,3.25,4.61,6.04,4.06,2.79-.55,4.61-3.25,4.06-6.04-.55-2.79-3.25-4.61-6.04-4.06Z"/>
    <path class="cls-1" d="m736.27,42.62c-2.79.55-4.61,3.25-4.06,6.04.55,2.79,3.25,4.61,6.04,4.06,2.79-.55,4.61-3.25,4.06-6.04-.55-2.79-3.25-4.61-6.04-4.06Z"/>
    <path class="cls-1" d="m749.88,51.77c-2.79.55-4.61,3.25-4.06,6.04s3.25,4.61,6.04,4.06c2.79-.55,4.61-3.25,4.06-6.04s-3.25-4.61-6.04-4.06Z"/>
    <path class="cls-1" d="m763.5,60.91c-2.79.55-4.61,3.25-4.06,6.04.55,2.79,3.25,4.61,6.04,4.06,2.79-.55,4.61-3.25,4.06-6.04-.55-2.79-3.25-4.61-6.04-4.06Z"/>
    <path class="cls-1" d="m777.11,70.06c-2.79.55-4.61,3.25-4.06,6.04.55,2.79,3.25,4.61,6.04,4.06,2.79-.55,4.61-3.25,4.06-6.04s-3.25-4.61-6.04-4.06Z"/>
    <path class="cls-1" d="m790.73,79.21c-2.79.55-4.61,3.25-4.06,6.04.55,2.79,3.25,4.61,6.04,4.06,2.79-.55,4.61-3.25,4.06-6.04-.55-2.79-3.25-4.61-6.04-4.06Z"/>
    <path class="cls-1" d="m804.34,88.35c-2.79.55-4.61,3.25-4.06,6.04.55,2.79,3.25,4.61,6.04,4.06,2.79-.55,4.61-3.25,4.06-6.04-.55-2.79-3.25-4.61-6.04-4.06Z"/>
    <path class="cls-1" d="m817.96,97.5c-2.79.55-4.61,3.25-4.06,6.04.55,2.79,3.25,4.61,6.04,4.06,2.79-.55,4.61-3.25,4.06-6.04-.55-2.79-3.25-4.61-6.04-4.06Z"/>
    <path class="cls-1" d="m831.57,106.64c-2.79.55-4.61,3.25-4.06,6.04s3.25,4.61,6.04,4.06c2.79-.55,4.61-3.25,4.06-6.04-.55-2.79-3.25-4.61-6.04-4.06Z"/>
    <path class="cls-1" d="m845.19,115.79c-2.79.55-4.61,3.25-4.06,6.04.55,2.79,3.25,4.61,6.04,4.06,2.79-.55,4.61-3.25,4.06-6.04-.55-2.79-3.25-4.61-6.04-4.06Z"/>
    <path class="cls-1" d="m858.8,124.93c-2.79.55-4.61,3.25-4.06,6.04.55,2.79,3.25,4.61,6.04,4.06,2.79-.55,4.61-3.25,4.06-6.04s-3.25-4.61-6.04-4.06Z"/>
    <path class="cls-1" d="m872.42,134.08c-2.79.55-4.61,3.25-4.06,6.04.55,2.79,3.25,4.61,6.04,4.06,2.79-.55,4.61-3.25,4.06-6.04-.55-2.79-3.25-4.61-6.04-4.06Z"/>
    <path class="cls-1" d="m888.01,153.33c2.79-.55,4.61-3.25,4.06-6.04-.55-2.79-3.25-4.61-6.04-4.06-2.79.55-4.61,3.25-4.06,6.04s3.25,4.61,6.04,4.06Z"/>
    <path class="cls-1" d="m119.8,529.05c-2.77.66-4.47,3.43-3.82,6.2s3.43,4.47,6.2,3.82c2.77-.66,4.47-3.43,3.82-6.2-.66-2.77-3.43-4.47-6.2-3.82Z"/>
    <path class="cls-1" d="m135.38,525.34c-2.77.66-4.47,3.43-3.82,6.2.66,2.77,3.43,4.47,6.2,3.82,2.77-.66,4.47-3.43,3.82-6.2-.66-2.77-3.43-4.47-6.2-3.82Z"/>
    <path class="cls-1" d="m150.96,521.63c-2.77.66-4.47,3.43-3.82,6.2.66,2.77,3.43,4.47,6.2,3.82,2.77-.66,4.47-3.43,3.82-6.2-.66-2.77-3.43-4.47-6.2-3.82Z"/>
    <path class="cls-1" d="m166.54,517.92c-2.77.66-4.47,3.43-3.82,6.2.66,2.77,3.43,4.47,6.2,3.82s4.47-3.43,3.82-6.2c-.66-2.77-3.43-4.47-6.2-3.82Z"/>
    <path class="cls-1" d="m182.12,514.22c-2.77.66-4.47,3.43-3.82,6.2.66,2.77,3.43,4.47,6.2,3.82,2.77-.66,4.47-3.43,3.82-6.2-.66-2.77-3.43-4.47-6.2-3.82Z"/>
    <path class="cls-1" d="m197.69,510.51c-2.77.66-4.47,3.43-3.82,6.2.66,2.77,3.43,4.47,6.2,3.82,2.77-.66,4.47-3.43,3.82-6.2-.66-2.77-3.43-4.47-6.2-3.82Z"/>
    <path class="cls-1" d="m213.27,506.8c-2.77.66-4.47,3.43-3.82,6.2.66,2.77,3.43,4.47,6.2,3.82,2.77-.66,4.47-3.43,3.82-6.2-.66-2.77-3.43-4.47-6.2-3.82Z"/>
    <path class="cls-1" d="m228.85,503.09c-2.77.66-4.47,3.43-3.82,6.2.66,2.77,3.43,4.47,6.2,3.82,2.77-.66,4.47-3.43,3.82-6.2-.66-2.77-3.43-4.47-6.2-3.82Z"/>
    <path class="cls-1" d="m244.43,499.39c-2.77.66-4.47,3.43-3.82,6.2.66,2.77,3.43,4.47,6.2,3.82,2.77-.66,4.47-3.43,3.82-6.2-.66-2.77-3.43-4.47-6.2-3.82Z"/>
    <path class="cls-1" d="m260.01,495.68c-2.77.66-4.47,3.43-3.82,6.2.66,2.77,3.43,4.47,6.2,3.82,2.77-.66,4.47-3.43,3.82-6.2-.66-2.77-3.43-4.47-6.2-3.82Z"/>
    <path class="cls-1" d="m275.59,491.97c-2.77.66-4.47,3.43-3.82,6.2.66,2.77,3.43,4.47,6.2,3.82,2.77-.66,4.47-3.43,3.82-6.2-.66-2.77-3.43-4.47-6.2-3.82Z"/>
    <path class="cls-1" d="m291.16,488.26c-2.77.66-4.47,3.43-3.82,6.2.66,2.77,3.43,4.47,6.2,3.82,2.77-.66,4.47-3.43,3.82-6.2-.66-2.77-3.43-4.47-6.2-3.82Z"/>
    <path class="cls-1" d="m306.74,484.56c-2.77.66-4.47,3.43-3.82,6.2.66,2.77,3.43,4.47,6.2,3.82,2.77-.66,4.47-3.43,3.82-6.2-.66-2.77-3.43-4.47-6.2-3.82Z"/>
    <path class="cls-1" d="m322.32,480.85c-2.77.66-4.47,3.43-3.82,6.2.66,2.77,3.43,4.47,6.2,3.82,2.77-.66,4.47-3.43,3.82-6.2-.66-2.77-3.43-4.47-6.2-3.82Z"/>
    <path class="cls-1" d="m337.9,477.14c-2.77.66-4.47,3.43-3.82,6.2.66,2.77,3.43,4.47,6.2,3.82,2.77-.66,4.47-3.43,3.82-6.2-.66-2.77-3.43-4.47-6.2-3.82Z"/>
    <path class="cls-1" d="m353.48,473.43c-2.77.66-4.47,3.43-3.82,6.2.66,2.77,3.43,4.47,6.2,3.82,2.77-.66,4.47-3.43,3.82-6.2-.66-2.77-3.43-4.47-6.2-3.82Z"/>
    <path class="cls-1" d="m369.05,469.73c-2.77.66-4.47,3.43-3.82,6.2.66,2.77,3.43,4.47,6.2,3.82s4.47-3.43,3.82-6.2c-.66-2.77-3.43-4.47-6.2-3.82Z"/>
    <path class="cls-1" d="m384.63,466.02c-2.77.66-4.47,3.43-3.82,6.2s3.43,4.47,6.2,3.82c2.77-.66,4.47-3.43,3.82-6.2-.66-2.77-3.43-4.47-6.2-3.82Z"/>
    <path class="cls-1" d="m400.21,462.31c-2.77.66-4.47,3.43-3.82,6.2.66,2.77,3.43,4.47,6.2,3.82,2.77-.66,4.47-3.43,3.82-6.2-.66-2.77-3.43-4.47-6.2-3.82Z"/>
    <path class="cls-1" d="m415.79,458.6c-2.77.66-4.47,3.43-3.82,6.2.66,2.77,3.43,4.47,6.2,3.82,2.77-.66,4.47-3.43,3.82-6.2-.66-2.77-3.43-4.47-6.2-3.82Z"/>
    <path class="cls-1" d="m105.14,511.88c2.77-.66,4.47-3.43,3.82-6.2-.66-2.77-3.43-4.47-6.2-3.82-2.77.66-4.47,3.43-3.82,6.2.66,2.77,3.43,4.47,6.2,3.82Z"/>
    <path class="cls-1" d="m106.7,518.44c-2.77.66-4.47,3.43-3.82,6.2.66,2.77,3.43,4.47,6.2,3.82,2.77-.66,4.47-3.43,3.82-6.2-.66-2.77-3.43-4.47-6.2-3.82Z"/>
    <path class="cls-1" d="m101.43,496.3c2.77-.66,4.47-3.43,3.82-6.2-.66-2.77-3.43-4.47-6.2-3.82s-4.47,3.43-3.82,6.2c.66,2.77,3.43,4.47,6.2,3.82Z"/>
    <path class="cls-1" d="m97.72,480.72c2.77-.66,4.47-3.43,3.82-6.2-.66-2.77-3.43-4.47-6.2-3.82-2.77.66-4.47,3.43-3.82,6.2.66,2.77,3.43,4.47,6.2,3.82Z"/>
    <path class="cls-1" d="m94.01,465.15c2.77-.66,4.47-3.43,3.82-6.2-.66-2.77-3.43-4.47-6.2-3.82-2.77.66-4.47,3.43-3.82,6.2.66,2.77,3.43,4.47,6.2,3.82Z"/>
    <path class="cls-1" d="m90.31,449.57c2.77-.66,4.47-3.43,3.82-6.2-.66-2.77-3.43-4.47-6.2-3.82-2.77.66-4.47,3.43-3.82,6.2s3.43,4.47,6.2,3.82Z"/>
    <path class="cls-1" d="m86.6,433.99c2.77-.66,4.47-3.43,3.82-6.2-.66-2.77-3.43-4.47-6.2-3.82-2.77.66-4.47,3.43-3.82,6.2.66,2.77,3.43,4.47,6.2,3.82Z"/>
    <path class="cls-1" d="m82.89,418.41c2.77-.66,4.47-3.43,3.82-6.2-.66-2.77-3.43-4.47-6.2-3.82-2.77.66-4.47,3.43-3.82,6.2.66,2.77,3.43,4.47,6.2,3.82Z"/>
    <path class="cls-1" d="m79.18,402.83c2.77-.66,4.47-3.43,3.82-6.2-.66-2.77-3.43-4.47-6.2-3.82-2.77.66-4.47,3.43-3.82,6.2.66,2.77,3.43,4.47,6.2,3.82Z"/>
    <path class="cls-1" d="m75.48,387.25c2.77-.66,4.47-3.43,3.82-6.2-.66-2.77-3.43-4.47-6.2-3.82-2.77.66-4.47,3.43-3.82,6.2.66,2.77,3.43,4.47,6.2,3.82Z"/>
    <path class="cls-1" d="m71.77,371.68c2.77-.66,4.47-3.43,3.82-6.2-.66-2.77-3.43-4.47-6.2-3.82-2.77.66-4.47,3.43-3.82,6.2.66,2.77,3.43,4.47,6.2,3.82Z"/>
    <path class="cls-1" d="m68.06,356.1c2.77-.66,4.47-3.43,3.82-6.2-.66-2.77-3.43-4.47-6.2-3.82s-4.47,3.43-3.82,6.2c.66,2.77,3.43,4.47,6.2,3.82Z"/>
    <path class="cls-1" d="m64.35,340.52c2.77-.66,4.47-3.43,3.82-6.2-.66-2.77-3.43-4.47-6.2-3.82-2.77.66-4.47,3.43-3.82,6.2.66,2.77,3.43,4.47,6.2,3.82Z"/>
    <path class="cls-1" d="m60.65,324.94c2.77-.66,4.47-3.43,3.82-6.2-.66-2.77-3.43-4.47-6.2-3.82-2.77.66-4.47,3.43-3.82,6.2.66,2.77,3.43,4.47,6.2,3.82Z"/>
    <path class="cls-1" d="m56.94,309.36c2.77-.66,4.47-3.43,3.82-6.2-.66-2.77-3.43-4.47-6.2-3.82-2.77.66-4.47,3.43-3.82,6.2.66,2.77,3.43,4.47,6.2,3.82Z"/>
    <path class="cls-1" d="m53.23,293.79c2.77-.66,4.47-3.43,3.82-6.2-.66-2.77-3.43-4.47-6.2-3.82-2.77.66-4.47,3.43-3.82,6.2.66,2.77,3.43,4.47,6.2,3.82Z"/>
    <path class="cls-1" d="m49.52,278.21c2.77-.66,4.47-3.43,3.82-6.2-.66-2.77-3.43-4.47-6.2-3.82-2.77.66-4.47,3.43-3.82,6.2.66,2.77,3.43,4.47,6.2,3.82Z"/>
    <path class="cls-1" d="m45.82,262.63c2.77-.66,4.47-3.43,3.82-6.2-.66-2.77-3.43-4.47-6.2-3.82-2.77.66-4.47,3.43-3.82,6.2.66,2.77,3.43,4.47,6.2,3.82Z"/>
    <path class="cls-1" d="m42.11,247.05c2.77-.66,4.47-3.43,3.82-6.2-.66-2.77-3.43-4.47-6.2-3.82-2.77.66-4.47,3.43-3.82,6.2.66,2.77,3.43,4.47,6.2,3.82Z"/>
    <path class="cls-1" d="m38.4,231.47c2.77-.66,4.47-3.43,3.82-6.2-.66-2.77-3.43-4.47-6.2-3.82-2.77.66-4.47,3.43-3.82,6.2.66,2.77,3.43,4.47,6.2,3.82Z"/>
    <path class="cls-1" d="m34.7,215.89c2.77-.66,4.47-3.43,3.82-6.2-.66-2.77-3.43-4.47-6.2-3.82-2.77.66-4.47,3.43-3.82,6.2.66,2.77,3.43,4.47,6.2,3.82Z"/>
    <path class="cls-1" d="m31.15,200.99c2.77-.66,4.47-3.43,3.82-6.2-.66-2.77-3.43-4.47-6.2-3.82-2.77.66-4.47,3.43-3.82,6.2.66,2.77,3.43,4.47,6.2,3.82Z"/>
    <path class="cls-1" d="m431.37,454.9c-2.77.66-4.47,3.43-3.82,6.2.66,2.77,3.43,4.47,6.2,3.82,2.77-.66,4.47-3.43,3.82-6.2-.66-2.77-3.43-4.47-6.2-3.82Z"/>
    <path class="cls-1" d="m446.95,451.19c-2.77.66-4.47,3.43-3.82,6.2.66,2.77,3.43,4.47,6.2,3.82,2.77-.66,4.47-3.43,3.82-6.2-.66-2.77-3.43-4.47-6.2-3.82Z"/>
    <path class="cls-1" d="m462.52,447.48c-2.77.66-4.47,3.43-3.82,6.2.66,2.77,3.43,4.47,6.2,3.82,2.77-.66,4.47-3.43,3.82-6.2-.66-2.77-3.43-4.47-6.2-3.82Z"/>
    <path class="cls-1" d="m478.1,443.78c-2.77.66-4.47,3.43-3.82,6.2.66,2.77,3.43,4.47,6.2,3.82,2.77-.66,4.47-3.43,3.82-6.2-.66-2.77-3.43-4.47-6.2-3.82Z"/>
    <path class="cls-1" d="m493.68,440.07c-2.77.66-4.47,3.43-3.82,6.2.66,2.77,3.43,4.47,6.2,3.82,2.77-.66,4.47-3.43,3.82-6.2-.66-2.77-3.43-4.47-6.2-3.82Z"/>
    <path class="cls-1" d="m509.26,436.36c-2.77.66-4.47,3.43-3.82,6.2.66,2.77,3.43,4.47,6.2,3.82,2.77-.66,4.47-3.43,3.82-6.2-.66-2.77-3.43-4.47-6.2-3.82Z"/>
    <path class="cls-1" d="m524.84,432.65c-2.77.66-4.47,3.43-3.82,6.2.66,2.77,3.43,4.47,6.2,3.82,2.77-.66,4.47-3.43,3.82-6.2-.66-2.77-3.43-4.47-6.2-3.82Z"/>
    <path class="cls-1" d="m540.41,428.95c-2.77.66-4.47,3.43-3.82,6.2.66,2.77,3.43,4.47,6.2,3.82,2.77-.66,4.47-3.43,3.82-6.2s-3.43-4.47-6.2-3.82Z"/>
    <path class="cls-1" d="m556.1,425.21c-2.77.66-4.47,3.43-3.82,6.2.66,2.77,3.43,4.47,6.2,3.82,2.77-.66,4.47-3.43,3.82-6.2-.66-2.77-3.43-4.47-6.2-3.82Z"/>
    <path class="cls-1" d="m571.79,421.48c-2.77.66-4.47,3.43-3.82,6.2.66,2.77,3.43,4.47,6.2,3.82,2.77-.66,4.47-3.43,3.82-6.2-.66-2.77-3.43-4.47-6.2-3.82Z"/>
    <path class="cls-1" d="m587.48,417.75c-2.77.66-4.47,3.43-3.82,6.2.66,2.77,3.43,4.47,6.2,3.82,2.77-.66,4.47-3.43,3.82-6.2-.66-2.77-3.43-4.47-6.2-3.82Z"/>
    <path class="cls-1" d="m603.17,414.01c-2.77.66-4.47,3.43-3.82,6.2.66,2.77,3.43,4.47,6.2,3.82,2.77-.66,4.47-3.43,3.82-6.2-.66-2.77-3.43-4.47-6.2-3.82Z"/>
    <path class="cls-1" d="m618.85,410.28c-2.77.66-4.47,3.43-3.82,6.2.66,2.77,3.43,4.47,6.2,3.82,2.77-.66,4.47-3.43,3.82-6.2-.66-2.77-3.43-4.47-6.2-3.82Z"/>
    <path class="cls-1" d="m634.54,406.54c-2.77.66-4.47,3.43-3.82,6.2.66,2.77,3.43,4.47,6.2,3.82,2.77-.66,4.47-3.43,3.82-6.2-.66-2.77-3.43-4.47-6.2-3.82Z"/>
    <path class="cls-1" d="m650.23,402.81c-2.77.66-4.47,3.43-3.82,6.2.66,2.77,3.43,4.47,6.2,3.82,2.77-.66,4.47-3.43,3.82-6.2-.66-2.77-3.43-4.47-6.2-3.82Z"/>
    <path class="cls-1" d="m665.92,399.08c-2.77.66-4.47,3.43-3.82,6.2.66,2.77,3.43,4.47,6.2,3.82,2.77-.66,4.47-3.43,3.82-6.2s-3.43-4.47-6.2-3.82Z"/>
    <path class="cls-1" d="m681.61,395.34c-2.77.66-4.47,3.43-3.82,6.2.66,2.77,3.43,4.47,6.2,3.82,2.77-.66,4.47-3.43,3.82-6.2-.66-2.77-3.43-4.47-6.2-3.82Z"/>
    <path class="cls-1" d="m697.29,391.61c-2.77.66-4.47,3.43-3.82,6.2.66,2.77,3.43,4.47,6.2,3.82,2.77-.66,4.47-3.43,3.82-6.2s-3.43-4.47-6.2-3.82Z"/>
    <path class="cls-1" d="m712.98,387.88c-2.77.66-4.47,3.43-3.82,6.2s3.43,4.47,6.2,3.82c2.77-.66,4.47-3.43,3.82-6.2-.66-2.77-3.43-4.47-6.2-3.82Z"/>
    <path class="cls-1" d="m728.67,384.14c-2.77.66-4.47,3.43-3.82,6.2.66,2.77,3.43,4.47,6.2,3.82,2.77-.66,4.47-3.43,3.82-6.2-.66-2.77-3.43-4.47-6.2-3.82Z"/>
    <path class="cls-1" d="m744.36,380.41c-2.77.66-4.47,3.43-3.82,6.2.66,2.77,3.43,4.47,6.2,3.82,2.77-.66,4.47-3.43,3.82-6.2-.66-2.77-3.43-4.47-6.2-3.82Z"/>
    <path class="cls-1" d="m760.05,376.68c-2.77.66-4.47,3.43-3.82,6.2.66,2.77,3.43,4.47,6.2,3.82,2.77-.66,4.47-3.43,3.82-6.2-.66-2.77-3.43-4.47-6.2-3.82Z"/>
    <path class="cls-1" d="m775.73,372.94c-2.77.66-4.47,3.43-3.82,6.2.66,2.77,3.43,4.47,6.2,3.82,2.77-.66,4.47-3.43,3.82-6.2-.66-2.77-3.43-4.47-6.2-3.82Z"/>
    <path class="cls-1" d="m788.91,362.02c-2.77.66-4.47,3.43-3.82,6.2.66,2.77,3.43,4.47,6.2,3.82,2.77-.66,4.47-3.43,3.82-6.2-.66-2.77-3.43-4.47-6.2-3.82Z"/>
    <path class="cls-1" d="m796.96,347.48c-2.74.77-4.33,3.61-3.57,6.35.77,2.74,3.61,4.33,6.35,3.57,2.74-.77,4.33-3.61,3.57-6.35-.77-2.74-3.61-4.33-6.35-3.57Z"/>
    <path class="cls-1" d="m805,333.18c-2.74.77-4.33,3.61-3.57,6.35.77,2.74,3.61,4.33,6.35,3.57,2.74-.77,4.33-3.61,3.57-6.35-.77-2.74-3.61-4.33-6.35-3.57Z"/>
    <path class="cls-1" d="m813.03,318.89c-2.74.77-4.33,3.61-3.57,6.35.77,2.74,3.61,4.33,6.35,3.57s4.33-3.61,3.57-6.35c-.77-2.74-3.61-4.33-6.35-3.57Z"/>
    <path class="cls-1" d="m821.07,304.59c-2.74.77-4.33,3.61-3.57,6.35.77,2.74,3.61,4.33,6.35,3.57,2.74-.77,4.33-3.61,3.57-6.35-.77-2.74-3.61-4.33-6.35-3.57Z"/>
    <path class="cls-1" d="m829.1,290.29c-2.74.77-4.33,3.61-3.57,6.35.77,2.74,3.61,4.33,6.35,3.57,2.74-.77,4.33-3.61,3.57-6.35-.77-2.74-3.61-4.33-6.35-3.57Z"/>
    <path class="cls-1" d="m837.14,275.99c-2.74.77-4.33,3.61-3.57,6.35.77,2.74,3.61,4.33,6.35,3.57,2.74-.77,4.33-3.61,3.57-6.35s-3.61-4.33-6.35-3.57Z"/>
    <path class="cls-1" d="m845.17,261.69c-2.74.77-4.33,3.61-3.57,6.35.77,2.74,3.61,4.33,6.35,3.57,2.74-.77,4.33-3.61,3.57-6.35s-3.61-4.33-6.35-3.57Z"/>
    <path class="cls-1" d="m853.21,247.4c-2.74.77-4.33,3.61-3.57,6.35.77,2.74,3.61,4.33,6.35,3.57s4.33-3.61,3.57-6.35c-.77-2.74-3.61-4.33-6.35-3.57Z"/>
    <path class="cls-1" d="m861.25,233.1c-2.74.77-4.33,3.61-3.57,6.35.77,2.74,3.61,4.33,6.35,3.57s4.33-3.61,3.57-6.35c-.77-2.74-3.61-4.33-6.35-3.57Z"/>
    <path class="cls-1" d="m869.28,218.8c-2.74.77-4.33,3.61-3.57,6.35.77,2.74,3.61,4.33,6.35,3.57,2.74-.77,4.33-3.61,3.57-6.35s-3.61-4.33-6.35-3.57Z"/>
    <path class="cls-1" d="m877.32,204.5c-2.74.77-4.33,3.61-3.57,6.35.77,2.74,3.61,4.33,6.35,3.57s4.33-3.61,3.57-6.35-3.61-4.33-6.35-3.57Z"/>
    <path class="cls-1" d="m885.35,190.2c-2.74.77-4.33,3.61-3.57,6.35s3.61,4.33,6.35,3.57c2.74-.77,4.33-3.61,3.57-6.35-.77-2.74-3.61-4.33-6.35-3.57Z"/>
    <path class="cls-1" d="m893.39,175.91c-2.74.77-4.33,3.61-3.57,6.35.77,2.74,3.61,4.33,6.35,3.57,2.74-.77,4.33-3.61,3.57-6.35-.77-2.74-3.61-4.33-6.35-3.57Z"/>
    <path class="cls-1" d="m894.69,159.15c-2.74.77-4.33,3.61-3.57,6.35.77,2.74,3.61,4.33,6.35,3.57,2.74-.77,4.33-3.61,3.57-6.35-.77-2.74-3.61-4.33-6.35-3.57Z"/>
  </g>
  <g>
    <path class="cls-1" d="m147.13,370.95c-2.42.57-4.25,1.74-5.46,3.51-1.22,1.77-1.52,3.98-.9,6.61.62,2.64,1.84,4.6,3.67,5.87,1.82,1.27,3.98,2.06,6.49,2.39,2.51.32,5.28.54,8.3.65,3.02.12,6.07.39,9.13.85,3.07.45,5.94,1.23,8.64,2.34,2.7,1.11,5.12,2.99,7.27,5.67,2.15,2.67,3.73,6.11,4.72,10.32,1.73,7.34.47,14.28-3.78,20.82-4.25,6.53-10.85,10.86-19.82,12.98-8.97,2.12-16.75,1.47-23.35-1.94-6.6-3.4-10.92-9.44-12.97-18.11l20.67-4.88c2.16,6.81,6.24,9.51,12.21,8.09,2.8-.66,4.8-1.98,6.01-3.97,1.21-1.98,1.53-4.21.94-6.69-.58-2.48-1.79-4.32-3.59-5.55-1.81-1.23-3.97-2.03-6.49-2.39-2.52-.36-5.29-.6-8.32-.72-3.03-.11-6.08-.42-9.15-.91-3.08-.49-5.95-1.27-8.64-2.34-2.69-1.06-5.1-2.93-7.25-5.61-2.15-2.67-3.72-6.07-4.69-10.19-1.91-8.08-.67-15.22,3.7-21.39,4.38-6.17,10.86-10.28,19.45-12.3,8.59-2.03,16.04-1.54,22.34,1.46,6.31,3,10.65,9.05,13.03,18.15l-21.11,4.98c-1.04-3.06-2.55-5.25-4.49-6.58-1.95-1.32-4.14-1.7-6.56-1.13Z"/>
    <path class="cls-1" d="m259.02,419.92l-7.88-13.56-28.61,6.75-.98,15.65-20.66,4.88,7.13-93.67,23.61-5.57,48.16,80.61-20.77,4.9Zm-35.41-24.05l18.85-4.45-16.73-28.71-2.12,33.16Z"/>
    <path class="cls-1" d="m266.77,326.37l19.41-4.58,16.71,70.79,24.18-5.71,3.8,16.09-43.59,10.29-20.51-86.88Z"/>
    <path class="cls-1" d="m367.3,302.38l3.8,16.09-28.83,6.81,4.41,18.69,25.43-6,3.8,16.09-25.43,6,4.76,20.17,28.83-6.81,3.8,16.09-48.25,11.39-20.57-87.13,48.25-11.39Z"/>
  </g>
  <rect class="cls-1" x="388.3" y="154.94" width="3.1" height="261.84" transform="translate(-55.25 97.22) rotate(-13.28)"/>
  <g>
    <path class="cls-1" d="m88.78,242.84l44.72-10.56c10.46-2.47,19.4-1.89,26.81,1.72,7.4,3.62,12.03,9.34,13.88,17.16,2.75,11.63-2.19,21.1-14.81,28.42,7.17-.66,13.37.92,18.61,4.74,5.23,3.83,8.62,8.96,10.14,15.41,1.94,8.21.47,15.45-4.4,21.71-4.87,6.26-12.68,10.66-23.44,13.2l-47.21,11.15-24.3-102.94Zm29.58,13.14l5.26,22.29,16.43-3.88c3.61-.85,6.31-2.47,8.06-4.85,1.76-2.37,2.22-5.4,1.35-9.07-.87-3.67-2.63-6.19-5.28-7.58-2.64-1.39-5.78-1.66-9.39-.8l-16.43,3.88Zm15.3,64.81l18.92-4.47c3.42-.81,6.01-2.5,7.78-5.09,1.76-2.58,2.22-5.69,1.37-9.3-.85-3.62-2.62-6.24-5.27-7.89-2.66-1.64-5.7-2.06-9.12-1.26l-19.21,4.53,5.54,23.46Z"/>
    <path class="cls-1" d="m215.58,321.58l-24.3-102.94,25.08-5.92,24.3,102.94-25.08,5.92Z"/>
    <path class="cls-1" d="m272.31,293.41c-12.56-7.51-20.64-18.89-24.23-34.14-3.6-15.25-1.46-29.04,6.41-41.38,7.87-12.33,19.19-20.25,33.95-23.73,11.44-2.7,22.32-2.07,32.64,1.89,10.33,3.96,18.52,10.9,24.58,20.82l-29.91,7.06c-5.69-6.6-12.83-8.89-21.44-6.85-8.59,2.03-14.73,6.32-18.4,12.86-3.67,6.54-4.44,14.31-2.32,23.3,2.12,9,6.29,15.6,12.5,19.81,6.21,4.21,13.46,5.34,21.77,3.37,5.97-1.41,10.48-4.04,13.54-7.92,3.05-3.87,4.64-8.45,4.72-13.73l-29.03,6.85-4.5-19.06,56.02-13.22,4.5,19.06c.36,9.82-2.71,19.78-9.2,29.88-3.09,4.85-7.3,9.2-12.64,13.04-5.33,3.84-11.33,6.54-17.98,8.11-14.76,3.48-28.42,1.48-40.98-6.03Z"/>
  </g>
  <g>
    <path class="cls-1" d="m402.84,203.55c-3.21-1.96-5.41-5.42-6.58-10.39l-4.95-20.94,7.66-1.81,5.02,21.29c.67,2.84,1.84,4.85,3.51,6.02,1.67,1.17,3.74,1.47,6.21.89,2.47-.59,4.18-1.78,5.13-3.57.95-1.79,1.09-4.11.42-6.95l-5.02-21.29,7.71-1.82,4.94,20.94c1.17,4.95.74,9.02-1.26,12.22-2.01,3.21-5.5,5.4-10.48,6.57-5.01,1.18-9.12.8-12.33-1.16Z"/>
    <path class="cls-1" d="m428.88,163.35l16.18-3.82c3.94-.93,7.23-.7,9.86.69,2.64,1.39,4.34,3.72,5.12,6.99.76,3.24.27,6.08-1.48,8.52-1.75,2.44-4.58,4.12-8.49,5.04l-8.36,1.97,3.4,14.42-7.81,1.85-8.42-35.66Zm18.78,11.69c4.07-.96,5.75-2.98,5.02-6.05-.73-3.1-3.14-4.18-7.21-3.22l-7.36,1.74,2.19,9.27,7.36-1.74Z"/>
    <path class="cls-1" d="m493.39,185.77l-6.92-29.3-11.17,2.64-1.5-6.36,30.25-7.14,1.5,6.36-11.17,2.64,6.92,29.3-7.91,1.87Z"/>
    <path class="cls-1" d="m521.29,177.31c-2.97-.87-5.49-2.52-7.57-4.96-2.07-2.43-3.54-5.5-4.42-9.21s-.93-7.09-.15-10.17c.77-3.08,2.29-5.66,4.57-7.77s5.17-3.58,8.71-4.41c3.54-.83,6.78-.82,9.74.06,2.96.87,5.46,2.51,7.51,4.92,2.05,2.41,3.51,5.46,4.39,9.17.88,3.71.94,7.11.19,10.21-.75,3.11-2.25,5.71-4.51,7.81-2.25,2.1-5.15,3.57-8.69,4.41-3.54.84-6.8.82-9.77-.05Zm14.62-10.88c1.19-2.5,1.32-5.72.39-9.66-.93-3.94-2.48-6.74-4.66-8.42-2.17-1.67-4.76-2.15-7.77-1.44-3,.71-5.11,2.3-6.3,4.77-1.2,2.47-1.33,5.67-.4,9.61.94,3.97,2.5,6.8,4.68,8.49,2.18,1.69,4.77,2.18,7.77,1.47,3-.71,5.1-2.31,6.29-4.81Z"/>
  </g>
  <g>
    <path class="cls-1" d="m449.41,373.34c-6.23-1.29-11.51-3.78-15.84-7.48-4.33-3.7-7.14-8.33-8.46-13.89-1.05-4.47-.63-8.28,1.27-11.44,1.9-3.15,4.6-5.14,8.09-5.96,3.27-.77,6.35-.41,9.24,1.09,2.89,1.51,4.8,4.22,5.72,8.15-5.11,4.2-6.97,9.24-5.58,15.13,1.05,4.47,3.79,7.65,8.21,9.54,4.41,1.89,9.73,2.11,15.95.64,8.18-1.93,13.81-6.95,16.91-15.04,3.09-8.1,3.33-17.71.71-28.83-3.04-12.86-8.13-21.88-15.28-27.04-7.14-5.16-15.36-6.65-24.62-4.46-4.91,1.16-10.03,3.35-15.37,6.57l-3.44-1.43-5.7-56.32,43.34-10.23c6.55-1.54,11.19-3.19,13.95-4.93,2.75-1.74,4.22-4.65,4.41-8.72l3.8-.73c1.62,10.78.69,18.68-2.78,23.71-3.48,5.02-9.25,8.48-17.32,10.39l-39.09,9.23,3.43,33.55c5.09-2.81,10.64-4.93,16.63-6.35,9.7-2.29,18.85-2.43,27.44-.44,8.59,2.01,15.79,5.83,21.61,11.48,5.82,5.65,9.69,12.51,11.59,20.57,1.62,6.87,1.43,13.85-.58,20.95-2.01,7.09-6.21,13.52-12.62,19.3-6.41,5.77-15.12,9.95-26.13,12.55-6.76,1.6-13.26,1.75-19.49.46Z"/>
    <path class="cls-1" d="m557.2,343.92c-8.3-3.45-15.63-9.87-21.98-19.24-6.36-9.37-11.3-21.53-14.82-36.47-3.52-14.94-4.54-28.02-3.05-39.25,1.49-11.23,5.18-20.24,11.05-27.04,5.88-6.79,13.56-11.32,23.05-13.56s18.38-1.62,26.67,1.82c8.29,3.46,15.63,9.87,21.98,19.24,6.36,9.38,11.3,21.54,14.82,36.47,3.53,14.94,4.54,28.02,3.05,39.25-1.49,11.23-5.18,20.25-11.05,27.04-5.88,6.8-13.56,11.32-23.05,13.56-9.49,2.24-18.38,1.63-26.67-1.82Zm42.26-18.44c2.81-9.06,2.22-22.04-1.77-38.94l-7.45-31.56c-3.96-16.79-9.23-28.61-15.8-35.47-6.57-6.84-13.94-9.31-22.12-7.38-8.18,1.93-13.67,7.44-16.48,16.5-2.81,9.07-2.24,21.99,1.73,38.78l7.45,31.56c3.97,16.79,9.23,28.64,15.82,35.55,6.58,6.91,13.96,9.4,22.14,7.47,8.18-1.93,13.67-7.43,16.48-16.5Z"/>
    <path class="cls-1" d="m636.87,256.14c-6.2-5.04-10.65-13.29-13.35-24.74-2.71-11.45-2.41-20.78.9-28.01,3.3-7.22,8.82-11.75,16.56-13.58,7.85-1.85,14.87-.29,21.05,4.7,6.19,4.98,10.63,13.2,13.33,24.65,2.7,11.45,2.41,20.81-.88,28.09-3.29,7.28-8.85,11.84-16.71,13.7-7.74,1.83-14.71.22-20.9-4.82Zm28.64-6.68c1.36-4.23,1.05-10.54-.93-18.94l-3.94-16.68c-1.98-8.39-4.53-14.18-7.64-17.36-3.11-3.17-6.84-4.25-11.21-3.22-4.25,1-7.08,3.63-8.5,7.87-1.41,4.25-1.13,10.57.85,18.96l3.94,16.68c1.98,8.4,4.55,14.18,7.72,17.34,3.17,3.17,6.87,4.25,11.12,3.25,4.36-1.03,7.22-3.66,8.58-7.9Zm5.41,72.28l34.53-146.27,8.34-1.97-34.37,146.24-8.5,2.01Zm51.73-21.1c-6.2-5.04-10.64-13.29-13.35-24.74-2.7-11.45-2.41-20.78.9-28.01,3.3-7.22,8.88-11.77,16.73-13.62,7.74-1.83,14.7-.25,20.89,4.74,6.18,4.99,10.63,13.2,13.33,24.65,2.7,11.44,2.41,20.81-.88,28.09-3.29,7.28-8.8,11.83-16.54,13.66-7.85,1.85-14.87.26-21.07-4.78Zm28.72-6.7c1.41-4.24,1.13-10.56-.85-18.96l-3.94-16.68c-1.98-8.39-4.55-14.17-7.72-17.34-3.17-3.17-6.88-4.25-11.12-3.25-4.37,1.03-7.23,3.67-8.58,7.9-1.36,4.23-1.05,10.55.93,18.94l3.94,16.68c1.99,8.39,4.53,14.18,7.64,17.36,3.11,3.18,6.85,4.26,11.21,3.23,4.25-1,7.09-3.63,8.5-7.88Z"/>
  </g>
  <g>
    <path class="cls-1" d="m695.68,361.25c-2.88-.91-5.37-2.57-7.46-4.99-2.09-2.42-3.58-5.41-4.48-8.98-.9-3.57-1-6.92-.31-10.04.69-3.12,2.09-5.77,4.2-7.93s4.74-3.65,7.91-4.44c3.16-.8,6.19-.74,9.06.17,2.88.9,5.37,2.57,7.46,4.99,2.09,2.42,3.59,5.41,4.49,8.98.9,3.57,1,6.92.31,10.03-.69,3.12-2.09,5.76-4.2,7.93-2.1,2.16-4.74,3.65-7.9,4.44s-6.19.74-9.07-.17Zm14.04-3.9c1.39-1.53,2.3-3.46,2.73-5.81.43-2.34.28-4.95-.45-7.82l-1.68-6.7c-.73-2.87-1.83-5.24-3.32-7.1-1.49-1.86-3.21-3.13-5.15-3.82-1.95-.68-3.96-.76-6.06-.23-2.12.53-3.86,1.56-5.24,3.08-1.38,1.52-2.28,3.45-2.7,5.8-.43,2.34-.28,4.95.44,7.82l1.68,6.7c.73,2.88,1.83,5.24,3.32,7.1,1.49,1.87,3.19,3.14,5.13,3.83,1.93.69,3.95.76,6.07.23,2.09-.53,3.83-1.55,5.22-3.07Z"/>
    <path class="cls-1" d="m725.02,355.38l-.23-.92,3.84-1.66-7.98-31.67-4.16.39-.24-.95,26.19-6.6,2.51,9.96-1.18.3-5.59-8.03-12.88,3.25,4.11,16.32,7.35-1.85.98-6.96,1.18-.3,3.46,13.75-1.18.3-4.18-5.75-7.35,1.85,3.73,14.8,4.16-.36.23.92-12.79,3.22Z"/>
    <path class="cls-1" d="m754.26,348.02l-.23-.92,3.84-1.66-7.98-31.67-4.16.4-.24-.96,26.2-6.6,2.51,9.96-1.18.29-5.59-8.03-12.88,3.25,4.11,16.32,7.35-1.85.98-6.96,1.17-.29,3.46,13.75-1.17.29-4.18-5.75-7.35,1.85,3.73,14.8,4.17-.35.23.92-12.79,3.22Z"/>
  </g>
  <circle class="cls-1" cx="818.4" cy="183.3" r="30.69" transform="translate(110.09 632.38) rotate(-45)"/>
</svg>