<svg id="Layer_1" data-name="Layer 1" xmlns="http://www.w3.org/2000/svg" viewBox="0 0 264.21 225.53"><defs><style>.cls-1,.cls-11{fill:#71c5a7;}.cls-1{opacity:0.25;}.cls-2{fill:#263238;}.cls-3{fill:#217c84;}.cls-4{opacity:0.4;}.cls-5{fill:#455b64;}.cls-6{fill:#ebebeb;}.cls-7{fill:#fff;}.cls-8{opacity:0.3;}.cls-9{fill:#fafbfb;}.cls-10{fill:#e0e0e0;}.cls-11{stroke:#231f20;stroke-miterlimit:10;stroke-width:0.88px;}</style></defs><path class="cls-1" d="M421.84,194.84c40.68,13.56,33.81,56.84,75.66,65.39,46.1,9.41,63.7,46.95,45,81.95s-81,9.5-107.89,44.95c-41.36,54.43-117.71,19.31-117.71-27.93,0-67.87-37.13-49.83-30.41-105.33C291.57,211.58,361.39,174.69,421.84,194.84Z" transform="translate(-285.64 -189.18)"/><path class="cls-2" d="M375.59,313.91c-5.56-.36-16.76-1.84-23.21-2.71a45,45,0,0,1-8.88-2,10.61,10.61,0,0,1-6.43-5.61,5.31,5.31,0,0,1,.64-5.54c1.6-1.73,4.34-1.67,6.64-1.13a6.41,6.41,0,0,0-10.45,2.16,6.15,6.15,0,0,0-8.66,7.33,5.36,5.36,0,0,0-5.28,1c-1.41,1.25-1.85,4.71-1.43,6.54Z" transform="translate(-285.64 -189.18)"/><path class="cls-2" d="M357.31,309.75a32,32,0,0,1-7.68-2.05,3.06,3.06,0,0,1-1.34-.94,1.26,1.26,0,0,1-.06-1.53,1.54,1.54,0,0,1,1.3-.41,5.21,5.21,0,0,1,2.62,1c.78.55,1.46,1.21,2.19,1.82a18.87,18.87,0,0,0,3.13,2.11" transform="translate(-285.64 -189.18)"/><path class="cls-2" d="M401.56,269.22h.3l.86,0,3.17-.12,4.7-.2,2.77-.13c.48,0,1,0,1.47,0h1.51c4.09,0,7.79-.18,10.46-.3l3.17-.15.86-.05.22,0c.05,0,.08,0,.08,0h-.3l-.87,0-3.16.11c-2.68.09-6.38.24-10.46.25h-1.51c-.5,0-1,0-1.47,0l-2.78.13-4.69.24-3.17.17-.86.05-.22,0Z" transform="translate(-285.64 -189.18)"/><path class="cls-3" d="M355.85,283.58H504.42a0,0,0,0,1,0,0v19.87a0,0,0,0,1,0,0h-136a12.56,12.56,0,0,1-12.56-12.56v-7.31A0,0,0,0,1,355.85,283.58Z" transform="translate(574.62 397.85) rotate(180)"/><g class="cls-4"><path d="M355.85,283.58H504.42a0,0,0,0,1,0,0v19.87a0,0,0,0,1,0,0h-136a12.56,12.56,0,0,1-12.56-12.56v-7.31A0,0,0,0,1,355.85,283.58Z" transform="translate(574.62 397.85) rotate(180)"/></g><path class="cls-3" d="M517.12,302.76s-5.28,5.77-15,4.6c0,0,3.88-21.51-16.43-22.69,0,0-9.31-.82-14.1,6.82a14.77,14.77,0,0,0-2.19,7.46,87.06,87.06,0,0,0,.07,9.41s-67.11-2.79-78.86-1.46c0,0,5.35-16.64-9.39-22a17.17,17.17,0,0,0-8.06-.64,13.86,13.86,0,0,0-10,6,19.19,19.19,0,0,0-2.78,6,24.83,24.83,0,0,0,0,8l-5.55-.54-4-13.27.58-7.91,4.13-7.8,9.77,1.17s18.09-5.12,28.73-7.27,27.45-2.56,31.52-1.87a27.21,27.21,0,0,1,7.64,2.33c2,.87,20.63,9.77,20.63,9.77l28.44.23s19.42-.4,31.7,14.2l-1.63,6.57Z" transform="translate(-285.64 -189.18)"/><path class="cls-5" d="M453.86,278.87s-17.53.75-22.14.58-29.56-3.1-29.56-3.1l-.36-7.17s8.28-.54,13.71-.54c4.52,0,15.62-.43,15.62-.43l1.1.46C438.68,271.42,445.93,275,453.86,278.87Z" transform="translate(-285.64 -189.18)"/><path class="cls-6" d="M509.84,289.11a11.3,11.3,0,0,1-5.84-1c-3.25-1.46-12.48-6.44-12.48-6.44l.61-1.26s1.66.33,3.56.93a43.15,43.15,0,0,1,6,2.47,48.74,48.74,0,0,1,4.43,2.54A40,40,0,0,1,509.84,289.11Z" transform="translate(-285.64 -189.18)"/><path class="cls-2" d="M504.83,293.25s1.81.13,4.05.19,4,.09,4,.05-1.81-.13-4-.2S504.83,293.21,504.83,293.25Z" transform="translate(-285.64 -189.18)"/><g class="cls-4"><path class="cls-7" d="M512.37,299.87l-6.37,3s6.24,1.23,11.12-.07Z" transform="translate(-285.64 -189.18)"/></g><path class="cls-6" d="M501.42,291.71a15.48,15.48,0,0,1,2.34,5.39c.29,2.39.34,5.38.34,5.38h-.92s.77-7.28-3.07-10.77Z" transform="translate(-285.64 -189.18)"/><g class="cls-8"><polygon points="183.38 96.92 185.61 94.8 166.76 94.14 179.82 95.81 183.38 96.92"/></g><path class="cls-2" d="M467.58,303a.62.62,0,0,1,0-.09v-.24c0-.21,0-.53,0-.94a33.62,33.62,0,0,1,.35-3.42,21.57,21.57,0,0,1,1.37-4.9,16.29,16.29,0,0,1,3.48-5.12,16.61,16.61,0,0,1,5.15-3.46l.32-.15.33-.12.65-.25c.44-.12.85-.28,1.27-.37s.81-.21,1.2-.28l.57-.11.55-.07a19.61,19.61,0,0,1,3.44-.12c.4,0,.71.07.93.08l.24,0h0l-.24,0c-.21,0-.52-.08-.93-.1a17.19,17.19,0,0,0-3.45.07l-.56.07-.57.1a11.7,11.7,0,0,0-1.22.27c-.41.09-.83.24-1.27.37l-.66.24-.33.13-.33.14a16.67,16.67,0,0,0-5.19,3.48,16.09,16.09,0,0,0-3.5,5.18,20.19,20.19,0,0,0-1.35,4.93,32,32,0,0,0-.31,3.44c0,.41,0,.72,0,.94v.24A.31.31,0,0,0,467.58,303Z" transform="translate(-285.64 -189.18)"/><g class="cls-4"><polygon class="cls-7" points="178.77 112.76 167.5 107.94 112.2 109 178.77 112.76"/></g><polygon class="cls-2" points="168.17 108.23 183.75 96.57 179.82 95.81 163.73 108.02 168.17 108.23"/><path class="cls-2" d="M448.84,307.59s0,0,0-.11l.08-.33c.07-.29.17-.71.29-1.23.25-1.09.61-2.62,1-4.48v0h0c-.39-1.29-.83-2.74-1.3-4.31v0c.18-1.31.38-2.73.59-4.19.27-2.06.54-4,.7-5.82l0-.34c0-.11,0-.23,0-.34a4.56,4.56,0,0,0-.14-.64,7.59,7.59,0,0,0-.47-1.16,20.29,20.29,0,0,0-1.09-1.95c-.72-1.16-1.37-2.05-1.83-2.66-.22-.3-.41-.54-.53-.69l-.15-.18-.05-.06a.28.28,0,0,0,0,.07l.13.18.52.71c.44.62,1.07,1.52,1.79,2.68a21.69,21.69,0,0,1,1.06,1.95,8.19,8.19,0,0,1,.45,1.14,2.89,2.89,0,0,1,.12,1.28c-.17,1.79-.44,3.75-.71,5.81-.2,1.46-.4,2.88-.58,4.19v0h0c.48,1.57.93,3,1.33,4.3v0l-1,4.49-.27,1.25-.06.32A1.13,1.13,0,0,1,448.84,307.59Z" transform="translate(-285.64 -189.18)"/><path class="cls-2" d="M448.44,279.09l-21.77-10.65-5.64.2s14.06,3.35,16.72,10.78Z" transform="translate(-285.64 -189.18)"/><path class="cls-2" d="M384.54,272.6l2.14,2.39,15.48,1.36-.36-7.17S386.93,271.42,384.54,272.6Z" transform="translate(-285.64 -189.18)"/><path class="cls-5" d="M448.46,304.26l-.19,0-.56,0-2.14-.11-7.86-.39-25.95-1.23L408,302.3a8.5,8.5,0,0,1-3.44-1,16.15,16.15,0,0,1-5-4.61,24.66,24.66,0,0,1-3.12-5.37,17.19,17.19,0,0,1-1.28-5.24,14.21,14.21,0,0,1,0-2.36,15.3,15.3,0,0,1,.37-2.07,12.54,12.54,0,0,1,1.3-3.11,12.14,12.14,0,0,1,1.27-1.71c.16-.18.3-.31.38-.4l.13-.14a1,1,0,0,1-.14.13l-.39.39a10.83,10.83,0,0,0-1.3,1.71,12.18,12.18,0,0,0-1.33,3.11,15.42,15.42,0,0,0-.38,2.08,13.38,13.38,0,0,0,0,2.38,16.82,16.82,0,0,0,1.27,5.28,24.73,24.73,0,0,0,3.12,5.41,16.43,16.43,0,0,0,5.06,4.65,8.75,8.75,0,0,0,3.49,1.05l3.76.18,25.95,1.18,7.86.35,2.14.08.56,0Z" transform="translate(-285.64 -189.18)"/><path class="cls-2" d="M385.4,281.48a5.48,5.48,0,0,1,.16-.76,2.93,2.93,0,0,1,1.32-1.59,3.9,3.9,0,0,1,3-.36,3.36,3.36,0,0,1,1.55.94,2.54,2.54,0,0,1,0,3.54,3.36,3.36,0,0,1-1.55.94,3.85,3.85,0,0,1-3-.36,2.9,2.9,0,0,1-1.32-1.59,5.16,5.16,0,0,1-.16-.76v.2a1.29,1.29,0,0,0,0,.25,1.51,1.51,0,0,0,.07.33,3,3,0,0,0,1.33,1.66,3.93,3.93,0,0,0,3.11.4,3.51,3.51,0,0,0,1.62-1,2.68,2.68,0,0,0,0-3.74,3.51,3.51,0,0,0-1.62-1,3.93,3.93,0,0,0-3.11.4,3,3,0,0,0-1.33,1.66,1.51,1.51,0,0,0-.07.33,1.29,1.29,0,0,0,0,.25Z" transform="translate(-285.64 -189.18)"/><path class="cls-2" d="M365.07,275.87h.3l.85,0,3.14.06c2.65,0,6.31.13,10.36.27s7.7.34,10.34.53c1.32.11,2.39.19,3.13.27l.85.08.22,0h.08l-.08,0-.22,0-.84-.11c-.74-.09-1.81-.19-3.13-.31-2.64-.22-6.3-.43-10.35-.57s-7.7-.21-10.36-.24h-4.29Z" transform="translate(-285.64 -189.18)"/><polygon class="cls-6" points="78.09 86.54 68.71 87.86 69.93 85.56 78.09 86.54"/><path class="cls-2" d="M356.43,276.62a.75.75,0,0,0,.05.14l.17.4c.15.34.39.83.69,1.44a47.68,47.68,0,0,0,2.59,4.56,51.19,51.19,0,0,0,3.06,4.26c.43.52.77.94,1,1.22l.29.32.11.11s0-.05-.08-.13l-.27-.34c-.24-.29-.57-.71-1-1.24-.83-1.06-1.92-2.56-3-4.28s-2-3.34-2.62-4.53c-.31-.6-.56-1.08-.72-1.42l-.2-.38C356.46,276.66,356.44,276.62,356.43,276.62Z" transform="translate(-285.64 -189.18)"/><path class="cls-2" d="M358.28,302.08s0,0,0-.09v-.27c0-.24,0-.58,0-1a18.79,18.79,0,0,1,.55-3.75,27.5,27.5,0,0,1,2-5.26,26.23,26.23,0,0,1,1.62-2.89,10.72,10.72,0,0,1,2.37-2.63,11.21,11.21,0,0,1,3.13-1.65,21.49,21.49,0,0,1,3.2-.86,23,23,0,0,1,5.61-.36,22.43,22.43,0,0,1,3.75.52l.58.13.43.11.26.07.09,0-.09,0-.26-.08-.42-.13-.58-.14a20.63,20.63,0,0,0-3.76-.57,22.07,22.07,0,0,0-5.63.33,21.45,21.45,0,0,0-3.23.85,11.37,11.37,0,0,0-3.17,1.67,11,11,0,0,0-2.4,2.67,25.75,25.75,0,0,0-1.62,2.91,26.93,26.93,0,0,0-2,5.3,17.69,17.69,0,0,0-.51,3.77,10.15,10.15,0,0,0,0,1V302A.62.62,0,0,1,358.28,302.08Z" transform="translate(-285.64 -189.18)"/><path class="cls-2" d="M350.85,289l.38.13,1,.28a33,33,0,0,0,3.52.65,31.07,31.07,0,0,0,3.57.25c.46,0,.83,0,1.09,0l.4,0-.4,0-1.08,0c-.92,0-2.18-.12-3.56-.3s-2.62-.41-3.51-.6l-1.06-.24Z" transform="translate(-285.64 -189.18)"/><path class="cls-2" d="M458.33,289.33l-.18,0-.53-.05-2.06-.17L448,288.5c-6.38-.49-15.2-1.15-24.94-1.75-4.88-.3-9.52-.55-13.75-.74a104.17,104.17,0,0,0-11.24-.08,45.74,45.74,0,0,0-7.51,1c-.87.22-1.54.39-2,.53l-.52.15-.17.06.18,0,.51-.14c.46-.14,1.13-.3,2-.5a46.68,46.68,0,0,1,7.5-1,110.19,110.19,0,0,1,11.23.11c4.23.21,8.87.46,13.75.76,9.74.6,18.56,1.24,24.94,1.7l7.56.55,2.05.14.54,0Z" transform="translate(-285.64 -189.18)"/><circle class="cls-2" cx="375.85" cy="299.87" r="14.04" transform="translate(-214.93 482.28) rotate(-89.19)"/><path class="cls-2" d="M389.89,299.63v0a14,14,0,1,1-28.08.4v0Z" transform="translate(-285.64 -189.18)"/><path class="cls-9" d="M385.71,299.73a9.86,9.86,0,1,1-10-9.72A9.86,9.86,0,0,1,385.71,299.73Z" transform="translate(-285.64 -189.18)"/><path class="cls-10" d="M375.71,290a9.86,9.86,0,0,1,10,9.72L366,300A9.87,9.87,0,0,1,375.71,290Z" transform="translate(-285.64 -189.18)"/><path class="cls-2" d="M381.86,299.78a6,6,0,1,1-6.09-5.92A6,6,0,0,1,381.86,299.78Z" transform="translate(-285.64 -189.18)"/><circle class="cls-2" cx="485.68" cy="299.87" r="14.04" transform="translate(-103.01 594.39) rotate(-89.62)"/><path class="cls-2" d="M499.72,299.63v0a14,14,0,1,1-28.08.4v0Z" transform="translate(-285.64 -189.18)"/><path class="cls-9" d="M495.54,299.73a9.86,9.86,0,1,1-10-9.72A9.87,9.87,0,0,1,495.54,299.73Z" transform="translate(-285.64 -189.18)"/><path class="cls-10" d="M485.54,290a9.86,9.86,0,0,1,10,9.72l-19.72.28A9.86,9.86,0,0,1,485.54,290Z" transform="translate(-285.64 -189.18)"/><path class="cls-2" d="M491.68,299.78a6,6,0,1,1-6.09-5.92A6,6,0,0,1,491.68,299.78Z" transform="translate(-285.64 -189.18)"/><path class="cls-2" d="M393.35,275.58a2.47,2.47,0,0,1,.6,0l1.74.15,6.4.65,9.48,1,5.6.64,2.95.36c1,.14,2,.27,3.05.37,2.06.22,4.07.38,6,.51l2.87.19.71,0h2.05c3.59,0,6.83-.07,9.54-.18s4.91-.25,6.42-.36l1.74-.12.46,0,.15,0H453l-.46,0-1.74.1c-1.52.08-3.71.2-6.42.3s-5.95.16-9.54.16h-2.05l-.7,0-2.87-.19c-1.94-.14-4-.3-6-.51-1-.11-2-.24-3-.38l-3-.36-5.59-.63c-3.57-.39-6.79-.72-9.49-1s-4.89-.48-6.4-.6A13.8,13.8,0,0,0,393.35,275.58Z" transform="translate(-285.64 -189.18)"/><path class="cls-3" d="M438.53,281s-2.34-4.51-4-5.29a44.92,44.92,0,0,0-5.08-.31c-.68.16-.88,1.19-.88,1.87s-.11,1.87.41,2.28.11.36,1.09.62a10,10,0,0,0,3.11-.15l-.05,1.92s2.34,1.19,3.84.83A2,2,0,0,0,438.53,281Z" transform="translate(-285.64 -189.18)"/><path class="cls-2" d="M433.11,281.94s0-.05,0-.13l0-.38c0-.34,0-.81.05-1.41v0h-.06a14.69,14.69,0,0,1-1.76.21,6.2,6.2,0,0,1-1.05,0,3.53,3.53,0,0,1-.54-.13c-.19-.06-.39-.09-.49-.24a2.39,2.39,0,0,0-.22-.23.81.81,0,0,1-.21-.2,1.35,1.35,0,0,1-.21-.57,7,7,0,0,1-.06-1.31,3.85,3.85,0,0,1,.2-1.35,1.29,1.29,0,0,1,.39-.55,1,1,0,0,1,.66-.14c.82,0,1.64.07,2.42.13l2.22.2h0a4,4,0,0,1,1.08.88,11.48,11.48,0,0,1,.81,1c.49.65.87,1.25,1.18,1.75s.54.91.7,1.18l.19.32c0,.07.06.11.07.1l-.05-.11-.17-.33c-.15-.28-.37-.69-.67-1.2s-.68-1.12-1.16-1.78a11.55,11.55,0,0,0-.81-1,4,4,0,0,0-1.11-.92h0l-2.23-.22c-.78-.06-1.59-.13-2.43-.13a2.42,2.42,0,0,0-.38,0,.85.85,0,0,0-.37.15,1.34,1.34,0,0,0-.43.61,3.62,3.62,0,0,0-.21,1.4,6.72,6.72,0,0,0,.06,1.35,1.53,1.53,0,0,0,.24.61,1,1,0,0,0,.23.23l.21.21a3.33,3.33,0,0,0,2.19.42,14.36,14.36,0,0,0,1.77-.24l-.05,0c0,.59,0,1.07,0,1.41v.38A.73.73,0,0,0,433.11,281.94Z" transform="translate(-285.64 -189.18)"/><path class="cls-5" d="M463.1,287.35a20.68,20.68,0,0,0,3.4,0,20.68,20.68,0,0,0-3.4,0Z" transform="translate(-285.64 -189.18)"/><path class="cls-5" d="M460.66,289.14a10.2,10.2,0,0,0,1.7.07,10.37,10.37,0,0,0,1.71-.07,10.37,10.37,0,0,0-1.71-.07A10.2,10.2,0,0,0,460.66,289.14Z" transform="translate(-285.64 -189.18)"/><path class="cls-5" d="M458.22,290.93a20.8,20.8,0,0,0,3.41,0,18.21,18.21,0,0,0-3.41,0Z" transform="translate(-285.64 -189.18)"/><path class="cls-5" d="M455.78,292.72a10.37,10.37,0,0,0,1.71.07,10.2,10.2,0,0,0,1.7-.07,9.54,9.54,0,0,0-1.7-.08A9.7,9.7,0,0,0,455.78,292.72Z" transform="translate(-285.64 -189.18)"/><path class="cls-5" d="M453.34,294.51a10.37,10.37,0,0,0,1.71.07,10.2,10.2,0,0,0,1.7-.07,9.54,9.54,0,0,0-1.7-.08A9.7,9.7,0,0,0,453.34,294.51Z" transform="translate(-285.64 -189.18)"/><path class="cls-5" d="M450.91,296.3a10.2,10.2,0,0,0,1.7.07,10.37,10.37,0,0,0,1.71-.07,9.7,9.7,0,0,0-1.71-.08A9.54,9.54,0,0,0,450.91,296.3Z" transform="translate(-285.64 -189.18)"/><path class="cls-7" d="M430.05,276a27.6,27.6,0,0,0,4.2,0,31.53,31.53,0,0,0-4.2,0Z" transform="translate(-285.64 -189.18)"/><path class="cls-7" d="M479.88,283.29a2.37,2.37,0,0,0,.43-.08c.27-.06.67-.15,1.16-.23s1.08-.17,1.74-.23a21.1,21.1,0,0,1,2.15-.06c.76,0,1.48.09,2.14.17s1.23.21,1.72.32l1.15.3.42.1-.41-.16c-.26-.09-.65-.21-1.13-.34a16.62,16.62,0,0,0-1.74-.35,17.2,17.2,0,0,0-2.15-.19,18.63,18.63,0,0,0-2.16.07c-.66.07-1.26.16-1.75.26s-.89.2-1.15.29A3.85,3.85,0,0,0,479.88,283.29Z" transform="translate(-285.64 -189.18)"/><path class="cls-7" d="M397.84,298.18s14.87.9,33.22,1.91,33.23,1.81,33.23,1.76-14.87-.89-33.22-1.91S397.84,298.14,397.84,298.18Z" transform="translate(-285.64 -189.18)"/><path class="cls-7" d="M369.24,283.17a2.64,2.64,0,0,0,.47-.12l.56-.16.74-.18c.54-.13,1.2-.25,1.94-.35a18.9,18.9,0,0,1,4.83,0c.74.09,1.4.2,2,.32l.74.18.56.14a2.64,2.64,0,0,0,.47.12,2.7,2.7,0,0,0-.45-.17l-.56-.17c-.21-.06-.46-.14-.73-.2a17.9,17.9,0,0,0-2-.36,19.21,19.21,0,0,0-4.87,0,17.17,17.17,0,0,0-1.95.39c-.27.06-.52.14-.73.2s-.4.13-.55.18Z" transform="translate(-285.64 -189.18)"/><path class="cls-7" d="M389.91,278.34a3.18,3.18,0,0,0,.54.16,4.09,4.09,0,0,1,1.16.63,3.66,3.66,0,0,1,.88,1c.18.29.26.49.28.48a1.29,1.29,0,0,0-.19-.53,3.33,3.33,0,0,0-.87-1.06,3.41,3.41,0,0,0-1.23-.61A1.63,1.63,0,0,0,389.91,278.34Z" transform="translate(-285.64 -189.18)"/><path class="cls-7" d="M378.27,275.62a4.26,4.26,0,0,0,.87.16c.55.07,1.3.15,2.14.18s1.59,0,2.14,0a5.3,5.3,0,0,0,.88-.08,7.29,7.29,0,0,0-.89,0c-.54,0-1.3,0-2.13-.05s-1.58-.09-2.13-.13A6.17,6.17,0,0,0,378.27,275.62Z" transform="translate(-285.64 -189.18)"/><path class="cls-7" d="M409.55,278.12s2.8.48,6.27,1,6.28.88,6.29.84-2.8-.48-6.27-1S409.56,278.08,409.55,278.12Z" transform="translate(-285.64 -189.18)"/><path class="cls-7" d="M412.41,271.9s1.32.65,3,1.37,3,1.28,3,1.24-1.32-.65-3-1.38S412.43,271.86,412.41,271.9Z" transform="translate(-285.64 -189.18)"/><path class="cls-7" d="M414,271.11a2.8,2.8,0,0,0,.38.23l1.07.56c.92.47,2.19,1.08,3.62,1.71s2.74,1.14,3.69,1.5l1.14.41a2.15,2.15,0,0,0,.43.12l-.41-.18L422.8,275c-.94-.38-2.25-.92-3.68-1.54s-2.7-1.22-3.62-1.66l-1.09-.52Z" transform="translate(-285.64 -189.18)"/><path class="cls-5" d="M363.66,296.09s.26-.84.78-1.78,1.12-1.57,1.08-1.61a2,2,0,0,0-.42.4,6.7,6.7,0,0,0-.79,1.14,6.86,6.86,0,0,0-.54,1.28A2.54,2.54,0,0,0,363.66,296.09Z" transform="translate(-285.64 -189.18)"/><path class="cls-5" d="M363.82,299.19s0-.29.09-.74a9.46,9.46,0,0,1,.39-1.73,9.35,9.35,0,0,1,.74-1.62,5.06,5.06,0,0,0,.37-.65,2.94,2.94,0,0,0-.46.59,7.29,7.29,0,0,0-.79,1.63,7.4,7.4,0,0,0-.35,1.77A2.65,2.65,0,0,0,363.82,299.19Z" transform="translate(-285.64 -189.18)"/><path class="cls-5" d="M385.34,305.57a2.74,2.74,0,0,0,.45-.55,8.08,8.08,0,0,0,.8-1.5,7.28,7.28,0,0,0,.48-1.63,3.54,3.54,0,0,0,.07-.71,11.86,11.86,0,0,1-1.8,4.39Z" transform="translate(-285.64 -189.18)"/><path class="cls-5" d="M384.9,307.9s.08,0,.19-.15.28-.27.47-.48a11.17,11.17,0,0,0,2.25-3.77c.1-.27.16-.49.2-.64a.84.84,0,0,0,.05-.24,7.62,7.62,0,0,0-.35.84,14,14,0,0,1-1,2,13.53,13.53,0,0,1-1.26,1.78A8.75,8.75,0,0,0,384.9,307.9Z" transform="translate(-285.64 -189.18)"/><path class="cls-5" d="M494.16,307.2a2.77,2.77,0,0,0,.45-.43,12.46,12.46,0,0,0,1.73-2.44,1.91,1.91,0,0,0,.26-.57s-.49.81-1.17,1.76S494.12,307.17,494.16,307.2Z" transform="translate(-285.64 -189.18)"/><path class="cls-5" d="M493.75,308.82a6.56,6.56,0,0,0,1.32-1.15,6.89,6.89,0,0,0,1.11-1.35s-.54.56-1.21,1.25S493.72,308.79,493.75,308.82Z" transform="translate(-285.64 -189.18)"/><path class="cls-5" d="M474.24,298.15s.14-.73.47-1.59.72-1.49.68-1.51a4,4,0,0,0-.82,1.46A4.09,4.09,0,0,0,474.24,298.15Z" transform="translate(-285.64 -189.18)"/><path class="cls-5" d="M473.51,298.42a13,13,0,0,1,.57-2.08,14.69,14.69,0,0,1,1-1.9,2.08,2.08,0,0,0-.42.48,6.41,6.41,0,0,0-.75,1.36,6.34,6.34,0,0,0-.41,1.5A1.77,1.77,0,0,0,473.51,298.42Z" transform="translate(-285.64 -189.18)"/><path class="cls-5" d="M496.63,310.67a2,2,0,0,0,.44-.37,8.58,8.58,0,0,0,.92-1,10.14,10.14,0,0,0,.76-1.17,1.62,1.62,0,0,0,.23-.53s-.45.75-1.1,1.61S496.6,310.63,496.63,310.67Z" transform="translate(-285.64 -189.18)"/><path class="cls-5" d="M495.88,312.39l.23-.1c.15-.08.35-.2.59-.36a10.24,10.24,0,0,0,1.76-1.47,9.66,9.66,0,0,0,1.41-1.81c.15-.25.27-.45.34-.6s.1-.23.09-.24-.19.3-.52.79a13.5,13.5,0,0,1-1.42,1.76,12.51,12.51,0,0,1-1.72,1.48A8.19,8.19,0,0,0,495.88,312.39Z" transform="translate(-285.64 -189.18)"/><line class="cls-11" x1="57.9" y1="93.43" x2="26.5" y2="93.43"/><line class="cls-11" x1="57.9" y1="87.17" x2="39.79" y2="87.17"/><line class="cls-11" x1="56.56" y1="100.48" x2="38.45" y2="100.48"/></svg>