<svg id="Layer_1" data-name="Layer 1" xmlns="http://www.w3.org/2000/svg" viewBox="0 0 199.85 118.39"><defs><style>.cls-1,.cls-2{fill:none;}.cls-1{stroke:#222a2f;stroke-miterlimit:10;stroke-width:2px;}.cls-3{fill:#222a2f;}</style></defs><polyline class="cls-1" points="83.07 1 198.85 1 198.85 91.16 83.07 91.16"/><line class="cls-2" x1="67.25" y1="118.39" x2="62.95" y2="118.39"/><path id="text-0" class="cls-3" d="M14.09,41.83l24.35,40H24.26L0,41.83Zm-2.47,40H0V45.63l11.62,19Zm15.2-40H38.48V78.07L26.82,59Zm72.12,0,13.85,40h-13l-14.49-40Zm9.47,21.22,6.47-21.22h13.39L114.42,80.66Zm45.24,18.82L152,77.5H138.85l2.79-7.94h7.24L138.16,41.83h13l16,40Zm-11-22.33-7.33,22.33H122.45l14.3-38.23Z" transform="translate(0 -15.67)"/><path class="cls-1" d="M83.07,24.42v0Z" transform="translate(0 -15.67)"/><path class="cls-1" d="M83.07,99.08v0Z" transform="translate(0 -15.67)"/><line class="cls-1" x1="83.07" y1="91.16" x2="83.07" y2="74.66"/><line class="cls-1" x1="83.07" y1="1" x2="83.07" y2="17.5"/></svg>