<svg id="Layer_1" data-name="Layer 1" xmlns="http://www.w3.org/2000/svg" viewBox="0 0 234.2 134.06"><defs><style>.cls-1{fill:#222a2f;}.cls-2{fill:none;}</style></defs><path class="cls-1" d="M63,0V31.11h3.79V2.82H230.35V61.21h0v61.84H66.74V94.73H63v31.1H234.2V0Z" transform="translate(0 0)"/><line class="cls-2" x1="67.25" y1="134.06" x2="62.95" y2="134.06"/><path id="text-0" class="cls-1" d="M14.09,41.83l24.35,40H24.26L0,41.83Zm-2.47,40H0V45.63l11.62,19Zm15.2-40H38.48V78.07L26.82,59Zm72.12,0,13.85,40h-13l-14.49-40Zm9.47,21.22,6.47-21.22h13.39L114.42,80.66Zm45.24,18.82L152,77.5H138.85l2.79-7.94h7.24L138.16,41.83h13l16,40Zm-11-22.33-7.33,22.33H122.45l14.3-38.23Z" transform="translate(0 0)"/></svg>