<svg id="Layer_1" data-name="Layer 1" xmlns="http://www.w3.org/2000/svg" viewBox="0 0 225.89 192.82"><defs><style>.cls-1{fill:#71c5a7;opacity:0.25;}.cls-2{fill:#acdee9;}.cls-3{fill:#f7bf71;}.cls-4{fill:#204451;}.cls-5{fill:#dff2f7;}.cls-6{fill:#28a4b1;}.cls-7{fill:#61c9e2;}.cls-8{fill:#83d1e0;}.cls-9{fill:#fab25c;}.cls-10{fill:#113240;}.cls-11{fill:#bde1e5;}.cls-12{fill:#217c84;}.cls-13{fill:#3cb4c8;}.cls-14{fill:#f9ca87;}.cls-15{fill:#13b9ab;}.cls-16{fill:#0aae99;}.cls-17{fill:#079a85;}.cls-18{fill:#6ac6bc;}</style></defs><path class="cls-1" d="M389.56,210.27c-34.77,11.59-28.9,48.59-64.68,55.9-39.42,8.05-54.47,40.14-38.45,70.06s69.22,8.13,92.24,38.43C414,421.2,479.31,391.17,479.31,350.79c0-58,31.74-42.61,26-90.05C500.93,224.58,441.24,193,389.56,210.27Z" transform="translate(-280.12 -205.43)"/><rect class="cls-2" x="105.63" y="99.39" width="16.22" height="33.65"/><polygon class="cls-3" points="121.85 107.33 110.55 103.21 110.55 80.51 121.85 80.51 121.85 102.51 121.85 107.33"/><polygon class="cls-4" points="120.29 114.96 114.87 126.21 119.29 133.04 121.85 133.04 121.85 102.51 116.2 110.94 120.29 114.96"/><polygon class="cls-5" points="108.34 96.28 121.85 102.51 116.2 112.65 105.63 99.39 108.34 96.28"/><path class="cls-6" d="M358.82,338.47H402l-19.77-28h-4C358.82,310.44,358.82,338.47,358.82,338.47Z" transform="translate(-280.12 -205.43)"/><polygon class="cls-7" points="97.79 104.46 105.63 99.39 121.85 133.04 103.62 118.08 107.54 112.65 100.31 113.56 97.79 104.46"/><rect class="cls-8" x="121.85" y="99.39" width="16.22" height="33.65"/><polygon class="cls-9" points="121.85 107.33 133.15 103.21 133.15 80.51 121.85 80.51 121.85 102.51 121.85 107.33"/><polygon class="cls-10" points="123.4 114.96 128.83 126.21 124.41 133.04 121.85 133.04 121.85 102.51 127.5 110.94 123.4 114.96"/><polygon class="cls-11" points="135.36 96.28 121.85 102.51 127.5 112.65 138.07 99.39 135.36 96.28"/><path class="cls-12" d="M445.11,338.47H402l19.76-28h4C443.56,310.44,445.11,338.47,445.11,338.47Z" transform="translate(-280.12 -205.43)"/><polygon class="cls-13" points="145.9 104.46 138.07 99.39 121.85 133.04 140.08 118.08 136.16 112.65 143.39 113.56 145.9 104.46"/><path class="cls-14" d="M385.26,269.91l-.41-.18c-2.23-1-2.78-1.08-2.62,3.95,0,0,0,9,3.33,9.49a15,15,0,0,0,1.38,4c3.3,6,9.09,12.92,15,12.92v-43.4C383.59,254.39,387,262.31,385.26,269.91Z" transform="translate(-280.12 -205.43)"/><path class="cls-3" d="M418.67,269.91l.41-.18c2.24-1,2.78-1.08,2.62,3.95,0,0,0,9-3.33,9.49a14.68,14.68,0,0,1-1.38,4c-3.3,6-9.09,12.92-15,12.92v-43.4C420.35,254.39,416.9,262.31,418.67,269.91Z" transform="translate(-280.12 -205.43)"/><path class="cls-10" d="M398.3,247.46a16,16,0,0,0-5.83,1c-12.48,4.83-7.59,21.69-7.21,26.22.1,1.16.66-7,1.64-11.4.61-2.74,4.25-3.33,6.58-1.76,3.52,2.36,8.49,1.76,8.49,1.76V247.46Z" transform="translate(-280.12 -205.43)"/><path class="cls-10" d="M405.63,247.46a16,16,0,0,1,5.83,1c12.48,4.83,7.59,21.69,7.21,26.22-.09,1.16-.66-7-1.64-11.4-.61-2.74-4.25-3.33-6.58-1.76-3.51,2.36-8.48,1.76-8.48,1.76V247.46Z" transform="translate(-280.12 -205.43)"/><path class="cls-15" d="M413.87,292.6H403.78v-1.47h10.09a5.37,5.37,0,0,0,5.06-3.58l1.79-5.08,1.39.49L420.32,288A6.85,6.85,0,0,1,413.87,292.6Z" transform="translate(-280.12 -205.43)"/><path class="cls-16" d="M405.26,294.32h2.36a2.46,2.46,0,0,0,2.46-2.45h-7.27A2.45,2.45,0,0,0,405.26,294.32Z" transform="translate(-280.12 -205.43)"/><path class="cls-15" d="M407.62,289.42h-2.36a2.45,2.45,0,0,0-2.45,2.45h7.27A2.45,2.45,0,0,0,407.62,289.42Z" transform="translate(-280.12 -205.43)"/><path class="cls-15" d="M400.27,241.58a19.49,19.49,0,0,0-19.41,19.52v3.29h2.82V261.1a16.66,16.66,0,0,1,16.59-16.68H402v-2.84Z" transform="translate(-280.12 -205.43)"/><path class="cls-17" d="M403.66,241.58H402v2.84h1.69a16.65,16.65,0,0,1,16.59,16.68v3.29h2.82V261.1A19.48,19.48,0,0,0,403.66,241.58Z" transform="translate(-280.12 -205.43)"/><path class="cls-18" d="M427.69,264.73a6,6,0,0,0-3.88-2,4.6,4.6,0,0,0-2.39,0v21.3a4.6,4.6,0,0,0,2.39,0,6,6,0,0,0,3.88-2C429.15,280.25,429.15,266.56,427.69,264.73Z" transform="translate(-280.12 -205.43)"/><path class="cls-15" d="M418.5,266.92v13a4.07,4.07,0,0,0,2.92,4.17v-21.3A4.09,4.09,0,0,0,418.5,266.92Z" transform="translate(-280.12 -205.43)"/><path class="cls-18" d="M380.12,262.75a6,6,0,0,0-3.88,2c-1.45,1.83-1.45,15.52,0,17.34a6,6,0,0,0,3.88,2,4.6,4.6,0,0,0,2.39,0v-21.3A4.6,4.6,0,0,0,380.12,262.75Z" transform="translate(-280.12 -205.43)"/><path class="cls-17" d="M382.51,262.75v21.3a4.08,4.08,0,0,0,2.93-4.17v-13A4.1,4.1,0,0,0,382.51,262.75Z" transform="translate(-280.12 -205.43)"/></svg>