<?xml version="1.0" encoding="UTF-8"?>
<svg id="Layer_1" data-name="Layer 1" xmlns="http://www.w3.org/2000/svg" viewBox="0 0 50.28 37.16">
  <defs>
    <style>
      .cls-1, .cls-2 {
        stroke: #000;
        stroke-miterlimit: 10;
      }

      .cls-2 {
        fill: none;
        stroke-width: 7px;
      }
    </style>
  </defs>
  <path d="m18.61,18.39l-1.35,3.86h15.21l-1.35-3.86c-.23-.66-.86-1.11-1.56-1.11h-9.38c-.7,0-1.33.45-1.56,1.11Zm-4.95,4.11l1.82-5.2c.7-1.99,2.58-3.33,4.69-3.33h9.38c2.11,0,3.99,1.34,4.69,3.33l1.82,5.2c1.2.5,2.05,1.68,2.05,3.06v9.94c0,.92-.74,1.66-1.66,1.66h-1.66c-.92,0-1.66-.74-1.66-1.66v-2.48h-16.56v2.48c0,.92-.74,1.66-1.66,1.66h-1.66c-.92,0-1.66-.74-1.66-1.66v-9.94c0-1.38.85-2.57,2.05-3.06Zm4.58,4.72c0-.91-.74-1.66-1.66-1.66s-1.66.74-1.66,1.66.74,1.66,1.66,1.66,1.66-.74,1.66-1.66Zm14.91,1.66c.91,0,1.66-.74,1.66-1.66s-.74-1.66-1.66-1.66-1.66.74-1.66,1.66.74,1.66,1.66,1.66Z"/>
  <path class="cls-2" d="m3.5,37.16V7.25c0-2.07,1.68-3.75,3.75-3.75h35.79c2.07,0,3.75,1.68,3.75,3.75v29.91"/>
  <rect x="5.38" y="3.99" width="39.5" height="3.2"/>
  <line class="cls-1" x1="5.4" y1="8.81" x2="44.9" y2="8.81"/>
  <line class="cls-1" x1="5.38" y1="10.74" x2="44.89" y2="10.74"/>
</svg>