<svg id="Layer_1" data-name="Layer 1" xmlns="http://www.w3.org/2000/svg" viewBox="0 0 183.95 187.17"><defs><style>.cls-1{fill:#71c5a7;opacity:0.25;}.cls-2{fill:#217c84;}.cls-3{fill:#113240;}.cls-4{fill:#fff;}</style></defs><path class="cls-1" d="M457.42,230a70.72,70.72,0,0,0-53.37-24c-39,.08-71.18,32.7-70.74,71.7a71.5,71.5,0,0,0,1,11.12,66,66,0,0,1-2.14,31.8,55.21,55.21,0,0,0,71.82,69,102,102,0,0,1,37-6.49h.73c39.24,0,71.7-32.51,71.62-71.76a71.52,71.52,0,0,0-30.17-58.26A150.25,150.25,0,0,1,457.42,230Z" transform="translate(-329.37 -206)"/><path class="cls-2" d="M392.92,292.11l-3.43,9.79h38.57l-3.43-9.79a4.19,4.19,0,0,0-4-2.81H396.88A4.19,4.19,0,0,0,392.92,292.11Zm-12.55,10.42L385,289.34a12.6,12.6,0,0,1,11.89-8.45h23.79a12.6,12.6,0,0,1,11.89,8.45l4.62,13.19a8.41,8.41,0,0,1,5.2,7.77v25.21a4.2,4.2,0,0,1-4.2,4.2H434a4.2,4.2,0,0,1-4.2-4.2V329.2h-42v6.31a4.2,4.2,0,0,1-4.2,4.2h-4.2a4.19,4.19,0,0,1-4.2-4.2V310.3A8.41,8.41,0,0,1,380.37,302.53Zm11.6,12a4.2,4.2,0,1,0-4.2,4.2A4.2,4.2,0,0,0,392,314.5Zm37.81,4.2a4.2,4.2,0,1,0-4.2-4.2A4.2,4.2,0,0,0,429.78,318.7Z" transform="translate(-329.37 -206)"/><circle class="cls-3" cx="101.98" cy="80.2" r="20.38"/><path class="cls-4" d="M441.61,282.1a2.09,2.09,0,0,0-2.95-3L429,288.81l-4.09-4.09a2.09,2.09,0,0,0-3,2.95l5.57,5.57a2.08,2.08,0,0,0,3,0Z" transform="translate(-329.37 -206)"/><path class="cls-4" d="M416.71,317.55h-16a2.68,2.68,0,0,1-2.86-3.05c.16-3.2,2.86-3,2.86-3h16" transform="translate(-329.37 -206)"/><path class="cls-4" d="M416.71,317.55a3,3,0,1,0,0-6.09" transform="translate(-329.37 -206)"/></svg>