<svg id="Layer_1" data-name="Layer 1" xmlns="http://www.w3.org/2000/svg" xmlns:xlink="http://www.w3.org/1999/xlink" viewBox="0 0 598.71 91.77"><defs><style>.cls-1{fill:url(#radial-gradient);}.cls-10,.cls-11,.cls-2,.cls-4,.cls-6,.cls-8{isolation:isolate;opacity:0.5;}.cls-2{fill:url(#radial-gradient-2);}.cls-3{fill:url(#radial-gradient-3);}.cls-4{fill:url(#radial-gradient-4);}.cls-5{fill:url(#radial-gradient-5);}.cls-6{fill:url(#radial-gradient-6);}.cls-7{fill:url(#radial-gradient-7);}.cls-8{fill:url(#radial-gradient-8);}.cls-9{fill:url(#radial-gradient-9);}.cls-10{fill:url(#radial-gradient-10);}.cls-11{fill:url(#radial-gradient-11);}</style><radialGradient id="radial-gradient" cx="409.95" cy="-38.79" r="100.56" gradientTransform="matrix(1, 0, 0, -1, -393.64, 54.11)" gradientUnits="userSpaceOnUse"><stop offset="0.35" stop-color="#fcc10f"/><stop offset="0.53" stop-color="#fbbb16"/><stop offset="0.78" stop-color="#f9a928"/><stop offset="1" stop-color="#f6933e"/></radialGradient><radialGradient id="radial-gradient-2" cx="402.3" cy="-63.71" r="145.39" xlink:href="#radial-gradient"/><radialGradient id="radial-gradient-3" cx="535.57" cy="-38.79" r="100.55" xlink:href="#radial-gradient"/><radialGradient id="radial-gradient-4" cx="527.93" cy="-63.71" r="145.39" xlink:href="#radial-gradient"/><radialGradient id="radial-gradient-5" cx="661.19" cy="-38.79" r="100.55" xlink:href="#radial-gradient"/><radialGradient id="radial-gradient-6" cx="653.55" cy="-63.71" r="145.39" xlink:href="#radial-gradient"/><radialGradient id="radial-gradient-7" cx="786.81" cy="-38.79" r="100.55" xlink:href="#radial-gradient"/><radialGradient id="radial-gradient-8" cx="779.17" cy="-63.71" r="145.39" xlink:href="#radial-gradient"/><radialGradient id="radial-gradient-9" cx="912.43" cy="-38.79" r="100.56" xlink:href="#radial-gradient"/><radialGradient id="radial-gradient-10" cx="904.79" cy="-63.71" r="145.39" xlink:href="#radial-gradient"/><radialGradient id="radial-gradient-11" cx="904.79" cy="-63.71" r="145.39" gradientTransform="matrix(1, 0, 0, -1, -393.64, 54.11)" gradientUnits="userSpaceOnUse"><stop offset="0.35" stop-color="#dbdada"/><stop offset="0.55" stop-color="#d4d3d4"/><stop offset="0.82" stop-color="#c2c1c2"/><stop offset="0.99" stop-color="#b3b2b3"/></radialGradient></defs><g id="Layer_1-2" data-name="Layer 1"><path class="cls-1" d="M78.36,88.38c.42,2.9-1.38,4.19-4,2.88L52.65,80.32a12.13,12.13,0,0,0-9.53,0L21.36,91c-2.62,1.29-4.4,0-4-2.91l3.69-24a12,12,0,0,0-2.9-9.07l-17-17.42c-2-2.1-1.36-4.2,1.54-4.67l24-3.92a12,12,0,0,0,7.73-5.56L45.75,2c1.36-2.59,3.57-2.59,4.91,0L61.8,23.59a12.08,12.08,0,0,0,7.7,5.63l24,4.12c2.89.5,3.56,2.6,1.5,4.68L77.85,55.28a12.06,12.06,0,0,0-3,9Z" transform="translate(0.03 0)"/><path class="cls-2" d="M48.23,1.22c.45,0,1,.49,1.39,1.32l11.14,21.6a13.15,13.15,0,0,0,8.53,6.26l24,4.13c.91.15,1.53.5,1.67.93s-.17,1.08-.82,1.73L77,54.44a13.14,13.14,0,0,0-3.31,10L77.17,88.5a2.41,2.41,0,0,1-.25,1.78.83.83,0,0,1-.67.25,3.23,3.23,0,0,1-1.35-.39L53.18,79.22a13.24,13.24,0,0,0-10.58,0L20.79,90a3.28,3.28,0,0,1-1.34.38.83.83,0,0,1-.68-.25,2.36,2.36,0,0,1-.24-1.78l3.69-24A13.14,13.14,0,0,0,19,54.22L2,36.8c-.65-.66-.94-1.32-.8-1.74s.77-.78,1.68-.92l24-3.92A13.2,13.2,0,0,0,35.47,24L46.79,2.52c.43-.81,1-1.3,1.41-1.3M48.2,0A3,3,0,0,0,45.74,2L34.44,23.45A12,12,0,0,1,26.71,29l-24,3.92c-2.9.47-3.59,2.57-1.54,4.67L18.17,55a12,12,0,0,1,2.9,9.07l-3.69,24c-.33,2.13.56,3.41,2.1,3.41a4.17,4.17,0,0,0,1.86-.5L43.15,80.24a12.13,12.13,0,0,1,9.53,0l21.68,11a4.44,4.44,0,0,0,1.89.51c1.52,0,2.4-1.26,2.1-3.39L74.87,64.28a12.06,12.06,0,0,1,3-9L95,38c2.06-2.08,1.39-4.18-1.5-4.68l-24-4.12a12.06,12.06,0,0,1-7.68-5.63L50.68,2C50,.65,49.12,0,48.23,0Z" transform="translate(0.03 0)"/><path class="cls-3" d="M204,88.38c.42,2.9-1.37,4.19-4,2.88l-21.7-10.94a12.13,12.13,0,0,0-9.53,0l-21.8,10.76c-2.63,1.29-4.41,0-4-2.91l3.7-24a12.1,12.1,0,0,0-2.9-9.07l-17-17.42c-2-2.1-1.35-4.2,1.54-4.67l24-3.92A12.06,12.06,0,0,0,160,23.53L171.36,1.94c1.36-2.59,3.57-2.59,4.91,0l11.14,21.62a12.08,12.08,0,0,0,7.71,5.66l24,4.12c2.89.5,3.56,2.6,1.5,4.68L203.47,55.28a12,12,0,0,0-3,9Z" transform="translate(0.03 0)"/><path class="cls-4" d="M173.85,1.22c.45,0,1,.49,1.4,1.32l11.11,21.57a13.17,13.17,0,0,0,8.54,6.26l24,4.13c.91.15,1.53.5,1.67.93s-.17,1.08-.81,1.73L202.62,54.44a13.14,13.14,0,0,0-3.31,10l3.48,24.06a2.41,2.41,0,0,1-.25,1.78.83.83,0,0,1-.67.25,3.23,3.23,0,0,1-1.35-.39L178.81,79.22a13.29,13.29,0,0,0-10.6,0L146.41,90a3,3,0,0,1-1.34.38.83.83,0,0,1-.68-.25,2.36,2.36,0,0,1-.24-1.78l3.7-24a13.18,13.18,0,0,0-3.23-10.09l-17-17.42c-.65-.66-.94-1.32-.8-1.74s.77-.78,1.68-.92l24-3.92A13.15,13.15,0,0,0,161.08,24L172.41,2.52c.43-.81,1-1.3,1.41-1.3m0-1.19c-.9,0-1.78.64-2.46,1.94l-11.3,21.48a12.05,12.05,0,0,1-7.7,5.56l-24,3.92c-2.89.47-3.58,2.57-1.54,4.67l17,17.42a12.1,12.1,0,0,1,2.9,9.07l-3.7,24c-.32,2.13.56,3.41,2.1,3.41A4.24,4.24,0,0,0,147,91l21.8-10.76a11.26,11.26,0,0,1,4.71-1,11,11,0,0,1,4.82,1l21.66,11a4.44,4.44,0,0,0,1.89.51c1.52,0,2.41-1.26,2.1-3.39l-3.48-24.06a12,12,0,0,1,3-9L220.6,38c2.06-2.08,1.39-4.18-1.5-4.68l-24-4.12a12.1,12.1,0,0,1-7.68-5.63L176.3,2C175.63.65,174.74,0,173.85,0Z" transform="translate(0.03 0)"/><path class="cls-5" d="M329.59,88.38c.42,2.9-1.37,4.19-4,2.88l-21.7-10.94a12,12,0,0,0-9.52,0L272.56,91c-2.63,1.29-4.41,0-4-2.91l3.7-24a12.13,12.13,0,0,0-2.9-9.1l-17-17.42c-2-2.1-1.35-4.2,1.53-4.67l24-3.92a12.06,12.06,0,0,0,7.72-5.56L296.94,1.94c1.36-2.59,3.57-2.59,4.91,0l11.21,21.63a12.06,12.06,0,0,0,7.68,5.65l24,4.12c2.88.5,3.55,2.6,1.49,4.68L329.09,55.28a12.11,12.11,0,0,0-3,9Z" transform="translate(0.03 0)"/><path class="cls-6" d="M299.46,1.22c.46,0,1,.49,1.4,1.32L312,24.14a13.17,13.17,0,0,0,8.54,6.26l24,4.13c.91.15,1.54.5,1.67.93s-.17,1.08-.81,1.73L328.24,54.44a13.14,13.14,0,0,0-3.31,10l3.48,24.06a2.37,2.37,0,0,1-.26,1.78.75.75,0,0,1-.66.25,3.23,3.23,0,0,1-1.35-.39L304.43,79.22a13.27,13.27,0,0,0-10.59,0L272,90a3,3,0,0,1-1.34.38.87.87,0,0,1-.68-.25,2.41,2.41,0,0,1-.24-1.78l3.7-24a13.18,13.18,0,0,0-3.23-10.09l-17-17.42c-.64-.66-.94-1.32-.8-1.74s.77-.78,1.68-.92l24-3.92A13.2,13.2,0,0,0,286.71,24L298.06,2.49c.43-.81,1-1.3,1.4-1.3m0-1.19c-.88,0-1.77.64-2.45,1.94L285.68,23.45A12.06,12.06,0,0,1,278,29l-24,3.92c-2.88.47-3.57,2.57-1.53,4.67L269.36,55a12.1,12.1,0,0,1,2.9,9.07l-3.7,24c-.33,2.13.56,3.41,2.1,3.41a4.24,4.24,0,0,0,1.87-.5l21.83-10.73a11.83,11.83,0,0,1,9.52,0l21.72,11a4.44,4.44,0,0,0,1.89.51c1.52,0,2.41-1.26,2.1-3.39L326.1,64.28a12.11,12.11,0,0,1,3-9L346.21,38c2.06-2.08,1.39-4.18-1.49-4.68l-24-4.12A12.1,12.1,0,0,1,313,23.57L301.92,2C301.25.65,300.36,0,299.46,0Z" transform="translate(0.03 0)"/><path class="cls-7" d="M455.21,88.38c.42,2.9-1.37,4.19-4,2.88l-21.7-10.94a12,12,0,0,0-9.52,0L398.18,91.08c-2.63,1.29-4.41,0-4-2.91l3.7-24A12.1,12.1,0,0,0,395,55.1L378,37.68c-2-2.1-1.35-4.2,1.54-4.67l24-3.92a12,12,0,0,0,7.72-5.56L422.57,2c1.36-2.59,3.57-2.59,4.91,0l11.14,21.62a12.1,12.1,0,0,0,7.74,5.58l24,4.12c2.89.5,3.56,2.6,1.51,4.68L454.71,55.28a12.06,12.06,0,0,0-3,9Z" transform="translate(0.03 0)"/><path class="cls-8" d="M425.09,1.22c.45,0,1,.49,1.39,1.32l11.14,21.6a13.17,13.17,0,0,0,8.54,6.26l24,4.13c.91.15,1.54.5,1.67.93s-.16,1.08-.82,1.73L453.86,54.44a13.14,13.14,0,0,0-3.31,10L454,88.5a2.41,2.41,0,0,1-.25,1.78.83.83,0,0,1-.67.25,3.23,3.23,0,0,1-1.35-.39L430,79.22a13.24,13.24,0,0,0-10.58,0L397.65,90a3.24,3.24,0,0,1-1.33.38.79.79,0,0,1-.68-.25,2.32,2.32,0,0,1-.25-1.78l3.7-24a13.18,13.18,0,0,0-3.23-10.09l-17-17.42c-.64-.66-.94-1.32-.8-1.74s.77-.78,1.68-.92l24-3.92A13.18,13.18,0,0,0,412.36,24L423.68,2.49c.43-.81,1-1.3,1.41-1.3m0-1.19c-.89,0-1.78.64-2.46,1.94L411.3,23.45A12,12,0,0,1,403.58,29l-24,3.92c-2.89.47-3.58,2.57-1.54,4.67L395,55a12.1,12.1,0,0,1,2.9,9.07l-3.7,24c-.33,2.13.56,3.41,2.11,3.41a4.17,4.17,0,0,0,1.86-.5L420,80.24a12.11,12.11,0,0,1,9.52,0l21.69,11a4.4,4.4,0,0,0,1.88.51c1.52,0,2.41-1.26,2.1-3.39l-3.48-24.06a12.06,12.06,0,0,1,3-9L471.85,38c2-2.08,1.38-4.18-1.51-4.68l-24-4.1a12.1,12.1,0,0,1-7.68-5.63L427.54,2C426.87.65,426,0,425.09,0Z" transform="translate(0.03 0)"/><path class="cls-9" d="M580.83,88.38c.42,2.9-1.37,4.19-4,2.88l-21.7-10.94a12,12,0,0,0-9.52,0L523.79,91.08c-2.61,1.29-4.4,0-4-2.91l3.7-24a12.1,12.1,0,0,0-2.9-9.07l-17-17.42c-2-2.1-1.35-4.2,1.54-4.67l24-3.92a12,12,0,0,0,7.72-5.56L548.18,2c1.36-2.59,3.57-2.59,4.91,0l11.14,21.62A12.08,12.08,0,0,0,572,29.22l24,4.12c2.89.5,3.56,2.6,1.51,4.68L580.36,55.28a12.06,12.06,0,0,0-3,9Z" transform="translate(0.03 0)"/><path class="cls-10" d="M550.71,1.22c.45,0,1,.49,1.39,1.32l11.14,21.6a13.17,13.17,0,0,0,8.54,6.26l24,4.13c.91.15,1.53.5,1.67.93s-.16,1.08-.81,1.73L579.48,54.44a13.14,13.14,0,0,0-3.31,10l3.48,24.06a2.41,2.41,0,0,1-.25,1.78.83.83,0,0,1-.67.25,3.26,3.26,0,0,1-1.37-.31l-21.7-11a13.24,13.24,0,0,0-10.58,0L523.27,90a3,3,0,0,1-1.34.38.8.8,0,0,1-.67-.25,2.32,2.32,0,0,1-.25-1.78l3.7-24a13.18,13.18,0,0,0-3.23-10.09l-17-17.42c-.64-.66-.94-1.32-.8-1.74s.77-.78,1.68-.92l24-3.92A13.2,13.2,0,0,0,538,24L549.27,2.52c.43-.81,1-1.3,1.41-1.3m0-1.19c-.89,0-1.78.64-2.46,1.94l-11.3,21.48A12,12,0,0,1,529.2,29l-24,3.92c-2.89.47-3.58,2.57-1.54,4.67l17,17.42a12.1,12.1,0,0,1,2.9,9.07l-3.7,24c-.33,2.13.56,3.41,2.1,3.41a4.17,4.17,0,0,0,1.86-.5l21.82-10.76a12.11,12.11,0,0,1,9.52,0l21.69,11a4.4,4.4,0,0,0,1.88.51c1.52,0,2.41-1.26,2.1-3.39l-3.47-24a12.06,12.06,0,0,1,3-9L597.48,38c2-2.08,1.38-4.18-1.51-4.68l-24-4.12a12.06,12.06,0,0,1-7.68-5.63L553.16,2C552.49.65,551.6,0,550.71,0Z" transform="translate(0.03 0)"/><path class="cls-11" d="M597.45,38c2-2.08,1.38-4.18-1.51-4.68l-24-4.12a12.06,12.06,0,0,1-7.68-5.63L553.16,2A3,3,0,0,0,550.8,0V1.22c.43,0,.91.5,1.3,1.27l11.14,21.6a13.17,13.17,0,0,0,8.54,6.26l24,4.13c.91.15,1.53.5,1.67.93s-.16,1.08-.81,1.73l-17.16,17.3a13.14,13.14,0,0,0-3.31,10l3.48,24.06a2.41,2.41,0,0,1-.25,1.78.83.83,0,0,1-.67.25,3.26,3.26,0,0,1-1.37-.31l-21.7-11a11.83,11.83,0,0,0-4.86-1.08v1.19a10.8,10.8,0,0,1,4.33,1l21.72,10.89a4.4,4.4,0,0,0,1.88.51c1.52,0,2.41-1.26,2.1-3.39l-3.47-24a12.06,12.06,0,0,1,3-9Z" transform="translate(0.03 0)"/></g></svg>