<svg xmlns="http://www.w3.org/2000/svg" xmlns:xlink="http://www.w3.org/1999/xlink" viewBox="0 0 598.64 91.77"><defs><style>.cls-1{isolation:isolate;}.cls-2{fill:url(#radial-gradient);}.cls-11,.cls-13,.cls-3,.cls-5,.cls-7,.cls-9{mix-blend-mode:multiply;opacity:0.5;}.cls-3{fill:url(#radial-gradient-2);}.cls-4{fill:url(#radial-gradient-3);}.cls-5{fill:url(#radial-gradient-4);}.cls-6{fill:url(#radial-gradient-5);}.cls-7{fill:url(#radial-gradient-6);}.cls-8{fill:url(#radial-gradient-7);}.cls-9{fill:url(#radial-gradient-8);}.cls-10{fill:url(#radial-gradient-9);}.cls-11{fill:url(#radial-gradient-10);}.cls-12{fill:url(#radial-gradient-11);}.cls-13{fill:url(#radial-gradient-12);}</style><radialGradient id="radial-gradient" cx="409.95" cy="130.68" r="100.56" gradientUnits="userSpaceOnUse"><stop offset="0.35" stop-color="#fcc10f"/><stop offset="0.53" stop-color="#fbbb16"/><stop offset="0.78" stop-color="#f9a928"/><stop offset="1" stop-color="#f6933e"/></radialGradient><radialGradient id="radial-gradient-2" cx="402.3" cy="155.6" r="145.39" xlink:href="#radial-gradient"/><radialGradient id="radial-gradient-3" cx="535.57" cy="130.68" r="100.55" xlink:href="#radial-gradient"/><radialGradient id="radial-gradient-4" cx="527.93" cy="155.6" r="145.39" xlink:href="#radial-gradient"/><radialGradient id="radial-gradient-5" cx="661.19" cy="130.68" r="100.55" xlink:href="#radial-gradient"/><radialGradient id="radial-gradient-6" cx="653.55" cy="155.6" r="145.39" xlink:href="#radial-gradient"/><radialGradient id="radial-gradient-7" cx="786.81" cy="130.68" r="100.55" xlink:href="#radial-gradient"/><radialGradient id="radial-gradient-8" cx="779.17" cy="155.6" r="145.39" xlink:href="#radial-gradient"/><radialGradient id="radial-gradient-9" cx="912.43" cy="130.68" r="100.56" xlink:href="#radial-gradient"/><radialGradient id="radial-gradient-10" cx="904.79" cy="155.6" r="145.39" xlink:href="#radial-gradient"/><radialGradient id="radial-gradient-11" cx="912.43" cy="130.68" r="100.56" gradientUnits="userSpaceOnUse"><stop offset="0.35" stop-color="#dbdada"/><stop offset="0.55" stop-color="#d4d3d4"/><stop offset="0.82" stop-color="#c2c1c2"/><stop offset="0.99" stop-color="#b3b2b3"/></radialGradient><radialGradient id="radial-gradient-12" cx="904.79" cy="155.6" r="145.39" xlink:href="#radial-gradient-11"/></defs><g class="cls-1"><g id="Layer_1" data-name="Layer 1"><path class="cls-2" d="M472,126.16c.42,2.9-1.38,4.19-4,2.88L446.29,118.1a12.09,12.09,0,0,0-9.53,0L415,128.81c-2.62,1.29-4.4,0-4-2.91l3.69-24a12,12,0,0,0-2.9-9.07l-17-17.42c-2.05-2.1-1.36-4.2,1.54-4.67l24-3.92a12,12,0,0,0,7.73-5.56l11.33-21.51c1.36-2.59,3.57-2.59,4.91,0l11.14,21.62A12.07,12.07,0,0,0,463.14,67l24,4.12c2.89.5,3.56,2.6,1.5,4.68L471.49,93.06a12.05,12.05,0,0,0-3,9Z" transform="translate(-393.64 -37.78)"/><path class="cls-3" d="M441.87,39c.45,0,1,.49,1.39,1.32l11.14,21.6a13.18,13.18,0,0,0,8.53,6.26l24,4.13c.91.15,1.53.5,1.67.93s-.17,1.08-.82,1.73L470.64,92.22a13.16,13.16,0,0,0-3.31,10l3.48,24.06a2.4,2.4,0,0,1-.25,1.78.84.84,0,0,1-.67.25,3.19,3.19,0,0,1-1.35-.39L446.82,117a13.27,13.27,0,0,0-10.58,0l-21.81,10.74a3.16,3.16,0,0,1-1.34.38.83.83,0,0,1-.68-.25,2.35,2.35,0,0,1-.24-1.78l3.69-24A13.15,13.15,0,0,0,412.64,92l-17-17.42c-.65-.66-.94-1.32-.8-1.74s.77-.78,1.68-.92l24-3.92a13.2,13.2,0,0,0,8.59-6.18l11.32-21.52c.43-.81,1-1.3,1.41-1.3m0-1.19a3,3,0,0,0-2.46,1.94L428.08,61.23a12,12,0,0,1-7.73,5.56l-24,3.92c-2.9.47-3.59,2.57-1.54,4.67l17,17.42a12,12,0,0,1,2.9,9.07l-3.69,24c-.33,2.13.56,3.41,2.1,3.41a4.26,4.26,0,0,0,1.86-.5l21.81-10.76a12.13,12.13,0,0,1,9.53,0L468,129a4.4,4.4,0,0,0,1.89.51c1.52,0,2.4-1.26,2.1-3.39l-3.48-24.06a12.05,12.05,0,0,1,3-9L488.6,75.78c2.06-2.08,1.39-4.18-1.5-4.68l-24-4.12a12.07,12.07,0,0,1-7.68-5.63L444.32,39.73c-.67-1.3-1.56-1.95-2.45-1.95Z" transform="translate(-393.64 -37.78)"/><path class="cls-4" d="M597.61,126.16c.42,2.9-1.37,4.19-4,2.88L571.91,118.1a12.09,12.09,0,0,0-9.53,0l-21.8,10.76c-2.63,1.29-4.41,0-4-2.91l3.7-24a12.09,12.09,0,0,0-2.9-9.07l-17-17.42c-2-2.1-1.35-4.2,1.54-4.67l24-3.92a12.05,12.05,0,0,0,7.72-5.56L565,39.72c1.36-2.59,3.57-2.59,4.91,0l11.14,21.62A12.1,12.1,0,0,0,588.76,67l24,4.12c2.89.5,3.56,2.6,1.5,4.68L597.11,93.06a12,12,0,0,0-3,9Z" transform="translate(-393.64 -37.78)"/><path class="cls-5" d="M567.49,39c.45,0,1,.49,1.4,1.32L580,61.89a13.17,13.17,0,0,0,8.54,6.26l24,4.13c.91.15,1.53.5,1.67.93s-.17,1.08-.81,1.73L596.26,92.22a13.16,13.16,0,0,0-3.31,10l3.48,24.06a2.4,2.4,0,0,1-.25,1.78.84.84,0,0,1-.67.25,3.23,3.23,0,0,1-1.35-.39L572.45,117a13.32,13.32,0,0,0-10.6,0l-21.8,10.74a3.12,3.12,0,0,1-1.34.38.83.83,0,0,1-.68-.25,2.35,2.35,0,0,1-.24-1.78l3.7-24A13.2,13.2,0,0,0,538.26,92l-17-17.42c-.65-.66-.94-1.32-.8-1.74s.77-.78,1.68-.92l24-3.92a13.15,13.15,0,0,0,8.58-6.18l11.33-21.52c.43-.81,1-1.3,1.41-1.3m0-1.19c-.9,0-1.78.64-2.46,1.94L553.7,61.23A12.05,12.05,0,0,1,546,66.79l-24,3.92c-2.89.47-3.58,2.57-1.54,4.67l17,17.42a12.09,12.09,0,0,1,2.9,9.07l-3.7,24c-.32,2.13.56,3.41,2.1,3.41a4.3,4.3,0,0,0,1.87-.5l21.8-10.76a11.16,11.16,0,0,1,4.71-1,11,11,0,0,1,4.82,1L593.62,129a4.4,4.4,0,0,0,1.89.51c1.52,0,2.41-1.26,2.1-3.39l-3.48-24.06a12,12,0,0,1,3-9l17.11-17.28c2.06-2.08,1.39-4.18-1.5-4.68l-24-4.12a12.1,12.1,0,0,1-7.68-5.63L569.94,39.73c-.67-1.3-1.56-1.95-2.45-1.95Z" transform="translate(-393.64 -37.78)"/><path class="cls-6" d="M723.23,126.16c.42,2.9-1.37,4.19-4,2.88L697.53,118.1a12.06,12.06,0,0,0-9.52,0L666.2,128.81c-2.63,1.29-4.41,0-4-2.91l3.7-24A12.09,12.09,0,0,0,663,92.8l-17-17.42c-2-2.1-1.35-4.2,1.53-4.67l24-3.92a12.05,12.05,0,0,0,7.72-5.56l11.33-21.51c1.36-2.59,3.57-2.59,4.91,0L706.7,61.35A12.1,12.1,0,0,0,714.38,67l24,4.12c2.88.5,3.55,2.6,1.49,4.68L722.73,93.06a12.1,12.1,0,0,0-3,9Z" transform="translate(-393.64 -37.78)"/><path class="cls-7" d="M693.1,39c.46,0,1,.49,1.4,1.32l11.14,21.6a13.17,13.17,0,0,0,8.54,6.26l24,4.13c.91.15,1.54.5,1.67.93s-.17,1.08-.81,1.73L721.88,92.22a13.16,13.16,0,0,0-3.31,10l3.48,24.06a2.35,2.35,0,0,1-.26,1.78.77.77,0,0,1-.66.25,3.23,3.23,0,0,1-1.35-.39L698.07,117a13.3,13.3,0,0,0-10.59,0l-21.81,10.74a3.12,3.12,0,0,1-1.34.38.85.85,0,0,1-.68-.25,2.4,2.4,0,0,1-.24-1.78l3.7-24A13.2,13.2,0,0,0,663.88,92l-17-17.42c-.64-.66-.94-1.32-.8-1.74s.77-.78,1.68-.92l24-3.92a13.2,13.2,0,0,0,8.59-6.18L691.7,40.27c.43-.81,1-1.3,1.4-1.3m0-1.19c-.88,0-1.77.64-2.45,1.94L679.32,61.23a12.05,12.05,0,0,1-7.72,5.56l-24,3.92c-2.88.47-3.57,2.57-1.53,4.67L663,92.8a12.09,12.09,0,0,1,2.9,9.07l-3.7,24c-.33,2.13.56,3.41,2.1,3.41a4.3,4.3,0,0,0,1.87-.5L688,118.05a11.09,11.09,0,0,1,4.71-1,11,11,0,0,1,4.81,1L719.24,129a4.44,4.44,0,0,0,1.89.51c1.52,0,2.41-1.26,2.1-3.39l-3.49-24.06a12.1,12.1,0,0,1,3-9l17.11-17.28c2.06-2.08,1.39-4.18-1.49-4.68l-24-4.12a12.1,12.1,0,0,1-7.68-5.63L695.56,39.73c-.67-1.3-1.56-1.95-2.46-1.95Z" transform="translate(-393.64 -37.78)"/><path class="cls-8" d="M848.85,126.16c.42,2.9-1.37,4.19-4,2.88L823.15,118.1a12.06,12.06,0,0,0-9.52,0l-21.81,10.76c-2.63,1.29-4.41,0-4-2.91l3.7-24a12.09,12.09,0,0,0-2.9-9.07l-17-17.42c-2-2.1-1.35-4.2,1.54-4.67l24-3.92a12,12,0,0,0,7.72-5.56l11.33-21.51c1.36-2.59,3.57-2.59,4.91,0l11.14,21.62A12.1,12.1,0,0,0,840,67l24,4.12c2.89.5,3.56,2.6,1.51,4.68L848.35,93.06a12.05,12.05,0,0,0-3,9Z" transform="translate(-393.64 -37.78)"/><path class="cls-9" d="M818.73,39c.45,0,1,.49,1.39,1.32l11.14,21.6a13.17,13.17,0,0,0,8.54,6.26l24,4.13c.91.15,1.54.5,1.67.93s-.16,1.08-.82,1.73L847.5,92.22a13.16,13.16,0,0,0-3.31,10l3.48,24.06a2.4,2.4,0,0,1-.25,1.78.82.82,0,0,1-.67.25,3.23,3.23,0,0,1-1.35-.39L823.68,117a13.27,13.27,0,0,0-10.58,0l-21.81,10.74a3.12,3.12,0,0,1-1.33.38.81.81,0,0,1-.68-.25,2.35,2.35,0,0,1-.25-1.78l3.7-24A13.2,13.2,0,0,0,789.5,92l-17-17.42c-.64-.66-.94-1.32-.8-1.74s.77-.78,1.68-.92l24-3.92A13.2,13.2,0,0,0,806,61.79l11.32-21.52c.43-.81,1-1.3,1.41-1.3m0-1.19c-.89,0-1.78.64-2.46,1.94L804.94,61.23a12,12,0,0,1-7.72,5.56l-24,3.92c-2.89.47-3.58,2.57-1.54,4.67l17,17.42a12.09,12.09,0,0,1,2.9,9.07l-3.7,24c-.33,2.13.56,3.41,2.11,3.41a4.29,4.29,0,0,0,1.86-.5l21.81-10.76a12.11,12.11,0,0,1,9.52,0L844.87,129a4.36,4.36,0,0,0,1.88.51c1.52,0,2.41-1.26,2.1-3.39l-3.48-24.06a12.05,12.05,0,0,1,3-9l17.12-17.28c2-2.08,1.38-4.18-1.51-4.68L840,67a12.1,12.1,0,0,1-7.68-5.63L821.18,39.73c-.67-1.3-1.56-1.95-2.45-1.95Z" transform="translate(-393.64 -37.78)"/><path class="cls-10" d="M974.47,126.16c.42,2.9-1.37,4.19-4,2.88L948.77,118.1a12.06,12.06,0,0,0-9.52,0l-21.82,10.76c-2.61,1.29-4.4,0-4-2.91l3.7-24a12.09,12.09,0,0,0-2.9-9.07l-17-17.42c-2-2.1-1.35-4.2,1.54-4.67l24-3.92a12,12,0,0,0,7.72-5.56l11.33-21.51c1.36-2.59,3.57-2.59,4.91,0l11.14,21.62A12.07,12.07,0,0,0,965.62,67l24,4.12c2.89.5,3.56,2.6,1.51,4.68L974,93.06a12.05,12.05,0,0,0-3,9Z" transform="translate(-393.64 -37.78)"/><path class="cls-11" d="M944.35,39c.45,0,1,.49,1.39,1.32l11.14,21.6a13.17,13.17,0,0,0,8.54,6.26l24,4.13c.91.15,1.53.5,1.67.93s-.16,1.08-.81,1.73L973.12,92.22a13.16,13.16,0,0,0-3.31,10l3.48,24.06a2.36,2.36,0,0,1-.25,1.78.84.84,0,0,1-.67.25A3.19,3.19,0,0,1,971,128L949.3,117a13.27,13.27,0,0,0-10.58,0l-21.81,10.74a3.09,3.09,0,0,1-1.34.38.8.8,0,0,1-.67-.25,2.35,2.35,0,0,1-.25-1.78l3.7-24A13.2,13.2,0,0,0,915.12,92l-17-17.42c-.64-.66-.94-1.32-.8-1.74s.77-.78,1.68-.92L923,68a13.2,13.2,0,0,0,8.59-6.18l11.32-21.52c.43-.81,1-1.3,1.41-1.3m0-1.19c-.89,0-1.78.64-2.46,1.94L930.56,61.23a12,12,0,0,1-7.72,5.56l-24,3.92c-2.89.47-3.58,2.57-1.54,4.67l17,17.42a12.09,12.09,0,0,1,2.9,9.07l-3.7,24c-.33,2.13.56,3.41,2.1,3.41a4.22,4.22,0,0,0,1.86-.5l21.82-10.76a12.11,12.11,0,0,1,9.52,0L970.49,129a4.36,4.36,0,0,0,1.88.51c1.52,0,2.41-1.26,2.1-3.39L971,102.1a12.05,12.05,0,0,1,3-9l17.12-17.28c2-2.08,1.38-4.18-1.51-4.68l-24-4.12a12.07,12.07,0,0,1-7.68-5.63L946.8,39.73c-.67-1.3-1.56-1.95-2.45-1.95Z" transform="translate(-393.64 -37.78)"/><path class="cls-12" d="M991.09,75.78c2-2.08,1.38-4.18-1.51-4.68l-24-4.12a12.07,12.07,0,0,1-7.68-5.63L946.8,39.73a2.63,2.63,0,0,0-2.36-1.68v79.13a10.52,10.52,0,0,1,4.33.92L970.49,129c2.61,1.31,4.4,0,4-2.88L971,102.1a12.05,12.05,0,0,1,3-9Z" transform="translate(-393.64 -37.78)"/><path class="cls-13" d="M991.09,75.78c2-2.08,1.38-4.18-1.51-4.68l-24-4.12a12.07,12.07,0,0,1-7.68-5.63L946.8,39.73a3,3,0,0,0-2.36-1.92V39c.43,0,.91.5,1.3,1.27l11.14,21.6a13.17,13.17,0,0,0,8.54,6.26l24,4.13c.91.15,1.53.5,1.67.93s-.16,1.08-.81,1.73L973.12,92.22a13.16,13.16,0,0,0-3.31,10l3.48,24.06a2.36,2.36,0,0,1-.25,1.78.84.84,0,0,1-.67.25A3.19,3.19,0,0,1,971,128L949.3,117a11.84,11.84,0,0,0-4.86-1.08v1.19a10.69,10.69,0,0,1,4.33,1L970.49,129a4.36,4.36,0,0,0,1.88.51c1.52,0,2.41-1.26,2.1-3.39L971,102.1a12.05,12.05,0,0,1,3-9Z" transform="translate(-393.64 -37.78)"/></g></g></svg>